<mxfile host="65bd71144e">
    <diagram id="MKwcYKzWwqgFfIhJPZwy" name="Page-1">
        <mxGraphModel dx="2834" dy="1115" grid="1" gridSize="10" guides="1" tooltips="1" connect="1" arrows="1" fold="1" page="1" pageScale="1" pageWidth="827" pageHeight="1169" math="0" shadow="0">
            <root>
                <mxCell id="0"/>
                <mxCell id="1" parent="0"/>
                <mxCell id="30" style="edgeStyle=none;html=1;strokeWidth=5;" edge="1" parent="1" source="12" target="3">
                    <mxGeometry relative="1" as="geometry"/>
                </mxCell>
                <mxCell id="12" value="Azure Function App" style="aspect=fixed;html=1;points=[];align=center;image;fontSize=12;image=img/lib/azure2/compute/Function_Apps.svg;" parent="1" vertex="1">
                    <mxGeometry x="470" y="410" width="68" height="60" as="geometry"/>
                </mxCell>
                <mxCell id="23" value="" style="group" vertex="1" connectable="0" parent="1">
                    <mxGeometry x="570" y="520" width="207.47" height="257.65999999999997" as="geometry"/>
                </mxCell>
                <mxCell id="24" value="" style="group" vertex="1" connectable="0" parent="23">
                    <mxGeometry width="200" height="207.66" as="geometry"/>
                </mxCell>
                <mxCell id="3" value="" style="shape=image;verticalLabelPosition=bottom;labelBackgroundColor=default;verticalAlign=top;aspect=fixed;imageAspect=0;image=data:image/png,iVBORw0KGgoAAAANSUhEUgAAAyAAAAFoCAYAAACv5J9AAAAACXBIWXMAABYlAAAWJQFJUiTwAAAgAElEQVR4nO3d744c15kn6F9Uie4xZgadg8EAjV0vHLwClRb+w/ZgoeQViLoCFa+A1NdueyrZnoU/irwClq5A1BUohem21dNuqHwFDG33d2djseNuSazYD1HlougiK09G5P/nAQolmxEnTmVmZJz3nPeckwAAAAAAAAAAAAAAAAAAAAAAAAAAAAAAAAAAAAAAAAAAAAAAAAAAAAAAAAAAAAAAAAAAAAAAAAAAAAAAAAAAAAAAAAAAAAAAAAAAAAAAAAAAAAAAAAAAAAAAAAAAAAAAAAAAAAAAAAAAAAAAAAAAAAAAAAAAAAAAAAAAAAAAAAAAAAAAAAAAAAAAAAAAAAAAAAAAAAAAAAAAAAAAAAAAAAAAAAAAAAAAAAAAAAAAAAAAAAAAAAAAAAAAAAAAAAAAAAAAAAAAAAAAAAAAAAAAAAAAAAAAAAAAAAAAAAAAAAAAAAAAAAAAAAAAAAAAAAAAAAAAAAAAAAAAAAAAAAAAAAAAAAAAAAAAAAAAAAAAAAAAAAAAAAAAAAAAAAAAAAAAAAAAAAAAAAAAAAAAAAAAAAAAAAAAAAAAAAAAAAAAAAAAAAAAAAAAAAAAAAAAAAAAAAAAAAAAAAAAAAAAAAAAAAAAAAAAAAAAAAAAAAAAAAAAAAAAAAAAAAAAALAdqnVXADbFr37QPm6rvLfo+edvZfzz59VXQ9bpTb79+ehedZiPFj2/fZEP3/rvs2dD1gkA4CZvrbsCsCnaKqMk9brrMbcqo7ZHfc+7vxcAYKUO1l0B2Bhtftjn9G9/n38ZqirzaKt+wdLBYWYDVQUAYG4CELjSa0RgMqtW3aDvVd/2WwEIALB6AhC4VOWox9krb8xXVd7uc377lgAEAFg9AQgk+b//97ZP8JEkZ4NUpEDVc77KraQZpiYAAPMTgECSHPQa/UiV1c7/+MNkVPeZgJ5kVk1mRkAAgJUTgECSg+TdPueft6sdAbn1IuOeRax8xAYAIBGAwKVxn5OrasUN+oN+AVPb5ndDVQUAoIQAhL33yx+0457pTPn6cOUjCvf6nFwdGAEBANZDAMLee6vKBz2LaCZN1QxRl3l8+4vRcXouwftNMh2kMgAAhQQg7LVf/UVbt8lxnzKqFTfmq4M86FlE8/3JrBmiLgAApQQg7LX2Vu/GfNrk0yHqMo9vJqNxm94rdk0Hqg4AQDEBCHvrV3/R1uk5+pEkX/+/q2vQH7T5qG8Z5y/y8RB1AQBYhACE/XUrJ+k5l6JKPp3MqpXsp/HtL0bHfUc/kjS3/vtsOkR9AAAWIQBhL12sfHXct5zz5NkA1bnRHyajujrISd9ypF8BAOsmAGHvTEbt6K0qTwcoqvnrf6pOByjnRrfanPRdKjhJXlR5MkB1AAAWJgBh7/zZf8xHQzTmD1Y0+vHi0ehBBhitSTL93mRm/w8AYK0EIOyVX/2gPRki9SpJ/vVw+aMJX09GR+15Hg9SWGXyOQCwfgIQ9savftCetFUmQ5RVJafL3nzw68no6KDNZwMV17w1mZ0OVBYAwMIEIOyFIYOPJPm3wzwaqqzrvBR89Fql64+q5dYXAGBeAhB23tDBR1vl0TJHP779+ejeoMGH0Q8AYIO8te4KwLJMRu3o3/3HPD1P7g1YbPPNQU4HLO87XjwanbTnwwVLSXJe5f0hywMA6EMAwk765Q/a8VtVnp4PsNrVy9osZ/TjD5NRfavN0/Y84yHLrZJTK18BAJtEAMJO+dVftHV1Kx+dJ/fagcuuktO/Gnjfj3YyGp2f50Hb5mGGS7m61Hxt7gcAsGEEIOyEX/1FW+d7+aBt87AdviGfJM2QE88vA48XbR6mWkp9kyoffn8ya5ZSNgDAggQgbK3JqB0d/occHVY5aZNxhh7yeMmL5MMhUq+++flofHCY9160OV5a4JGkbfPo1qPZSjZKBAAoUa27AjCvPwYcBzlKm/eSHGU5ox3f0VZ59Nf/TzUpPm8yGn3zdeocZnx4kLfbbjL80utbJWeHj2bvLPs6AACLMALCxvrV/9E+bbtJ5HW6hnvXeF/iSMer2jZP/vqf5gs+vv7F6OHBQd6rLur6ok19cOuinOVV8VXN11a9AgA2mACETTbOwKtYFWlz9tf/XD2c+/gqR0nGKww2XtV8U+WueR8AwCazESFcp83Z12/l7rqrUWAm+AAAtoEABF7VBR/vT5pqtu6qzGl2LvgAALaEFCx42cXIxxYFH9KuAICtIgCBKx//1T9Xx+uuRAHBBwCwdaRgQbqldv/qn7Yn+Dhv8/FhlXcEHwDAtjECwr5rXrS5/4t/qqbrrsicZufJo+/9zezxuisCALAIAQh76yB59q+Hub8t8z2q5OxFlfvfm8zO1l0XAIBFCUDYR82LNvf/6p+3Z9SjrfLkrclssu6KAAD0JQBhn8zaNk++eSuPt2jU4/TrKo/M9QAAdoUAhH2wlYHHiypPpFsBALtGAMLOatucJfl0iwKPWVvlybfJqREPAGBXCUDYNbO2zcfnybNfbMccj1mSs7zIk8O3Mq0ms20IlAAAFiYAYfu1mbbJ5+fJdBuCjippztt8Wh1kehhBBwCwXwQgbINZklnazFKladt8lTZnuZWzb5JmE9OrqqRJkjY5q5LZi+R3VZWzt5IzAQcAsM+qdVeAPXWnrXOeo5ynzmHeTjJKcpQkaTNKlVEOU+fX1VerqtLPnk+Oq6p6uuj5bds++vXtyWTAKu2CUZJxkjrJ2xe/64t/u/w9u/hpXvr9+cVvk/ABYMcYAWE17rR1vs29HObdtBlfBBnJ4TXHri8srtd25d0yTvJuknu5DCrfbHTxU7/0/z28+N0kmSb5NMmzgeoHAKyRAITlGbej/K88SJVx2oz/GGzs7rhbs+4KrNEoyYPMH3TMq05yfPHTpAtGHmW/X2sA2GoCEIb3o3acw5zkDxlvU7DRJnWf6rZd+tC+uQw8Hl789zLVuQpGTiMQ2SV1rlLxWI06XnNgTQ7WXQF2yI/b4/yk/TKH+SxdGs5WOaiqH/Y5/3D/HuQnSZ4nmWT5wcerji+u/TRS57bVOMlnSdp07+Xvk3yZ7r1lOY7Svea/z9Vr/jzdvbzqexjYY1vUP83G6kY8hm8IrngS+n9tHv0+PR7C7fcO61//bz9fWX3XaJzNavjPkjxONyLCdvgoV/N8rnOW5G72L6hfpgfp7pPXadK95s0qKsNc7mX+Z9KzuF/YIgIQFnenrdPmaZY12rHCAORnzydHVVV92aeMv6tP9uF+Okk34rGJpknuRwNq0837GZqmaxDT33G6ToObNEneiYbspnie+Tt66iT70AHGjpCCxWJ+2j7Ieb7MFqZavUbfidO7vlzsKF3qxmTN9XiTcbo6DjkJnmHVmf8zNE7XA0x/J3MeV+fNI1MAgxCAUOZOW+en7WdJHqfanZzhqqo+6HN+27a73PNUJ1sTbNbp6trr/WRpShu3D5ZSi/1yL2Xpkl5zYOkEIMzvR+047XZOMH+TO88ndXr+TW3a6RB12UB1ulGFer3VKHYaPbmb6O3C441m9Vf6Go6S9FqQA+AmAhDm89P2wcXqVvW6qzK0gwECqsNUu5iCVWc7g49LH8VIyLbbmVFWAK7YB4Sb3WlP0m507n8/VTVvfvTrzP729mQ6RFU2SJ3hg49ZukmuZ0n+JVcTXS97XOsM3+N9mm5i5nTgcnfFKF2gdpOPM8xrWJqquIuB/aotMqH8XwavBcBLBCC82Y4HHz97Pjmuejay27b9fKDqbJKhltmdJvn84vd0znPG6fLW3xuoDp+kW9mnGaCsXTPKfPtuDPUZf5ayUSkBSH/PMl+QeWkaq2ABSyYFi9fb8eAjyRCjH0kOnvUvY6OcpH9a2jTdEqp30616NC0892GS20neLzz3OqN0QYh0nvV7lvkDwVns7TKEJt3rPq+Pl1QPgD8SgHC9PQg+hhj9SJLv5XyXApA6/ZbaneYq8Jj2rk3XcLqbLhBpepRzlPmXImW53s98PeyPYtRqKPPuj/MoXdoiwFIJQPhTP20frDH4aC5+pvne8vKQ7zyf1IOMflTV6fT2ZJfSFT5b8LxZkg8zXODxqmfpRkT69Ig/zI6t4LalzvLmlLhZuiDlTbt2U2aW7t583ejG5f07WVWFgP1mDgjf9eP2KKt78DdJPs15znKYab6omhVdN4cHOUnbf/SjOj/fpXSFkyw2ItSkazCuIl9/cnGdp1kspeokJqRvgiZdQDlON9/nz9NNfD5LF2zuUlC/KZp0830mF78vl9r9XbpRD685sDLVuivABrnT1hf7fNRLu0abWQ7yJMnpKgOOl/3sq1+eVO35ZICimr+rT24PUM4mqLPYqldNup7VZtDa3Owo3byOeoFz70eayaU6yfM5jvOaweo9z/zfcXXKV5mDtTECwpV2sJWPrjNNlUf5+2q6pPLn8n89n9w7Hyb4SNtWuzRBdpHRjybrCT6Srqf8/XRBU+lIyEk0pi/V664AAPvHHBA6P20fZDn58U2q3M3fV3fzxXqDj589nxydV9XTgYprfn37v50OVNa61ZlvKdaXXeaUNwPXpcRlEFKqTvnfu6vqdVcAgP0jAOEy9WqyhJKf5Pt5Z92BR9IFH1VVLdJbfq0dG/0YL3DOh9mMFYqmSZ4scJ4d0jteBwBWTgoWSZuTVIPukdCkyv1NCDySi7SrbuRjqL9xl0Y/kvLlaU+zWSlMD5O8m7Jd1McXP9M5jq1v+PdmzmseXfzUuZoAPMvV5Osmq914r2S/lz/PfKMlzRzHzFNOSXlJd2+/6f6e5eZJ1qN0E+LrXP/+XL5Hfdx0jSbL+QzUBcc2N/z7Ta/1KszzfvZR5+peHeXqvfrq4rpNhvk8rEJdcOwyXtfSz0sz8PXZUAKQffeT9l6GTUc5S5X31zXB/FU/++qXJ0PN+bi0g6MfdeE5m/j3f5jyJYTv5eYApM7Nk7TftPTwON2O7seZ7yHcXJT18Rx1m8erD/9RuobVBykb+Xqc+VbHm2dhk3kmvZeUl3RB6JsC6Vm6Vbeua1yNM38wdpZuxG2asuDoON3nYJ5rNBflD7kPytM5r53cvJT246x/5GwZiyKM071HlwHiPJoMe78uwyeZv3PmSbp7aUifFVz/NN17yx6QgrXvqnw0YGln+X7ubkLwcef5pP6vzaPPBlrt6kpVne7Y6Me9wuNPs5k9VNOUNwCGakRd1/Adp3vwfpbugT5vD2CdrrH6WZIv079z4Chdg//y58uUNUZ3xeXIw8uOcvUejecs5yjd6/dZbh45HF0c8zzJRwXXqNO9788vrlXPeR6LGee792pdcG6dq/v1eTZzbtmnBcd+kGFHt+qUjUzv0rL23EAAss9+3B5nuIdbF3xMq7WuJT9+Phn97KtfnhxW1ZcZvpE1e3F+vom9/328W3j8Jv/9pXV7ObWij3GuPmt1yhu1r3PZ2NUIHcbLAeeDdMHYeMGy6nT7abxumdQHF/82Sb8G3XG6z1JpRwE3WyQAfZM63b1asnTuKjzO/GlVl6N1QykZTWmyuaNILIEAZJ8dFOf+v06z7uBj/Hwy+svnf/Pw66r68mLUY/Ac5batPvzi9qQZutw1ukzHmddpNnP049I05Q+wRVbRus4HFz/LCHyP0zWSjgcud9+ML36eZrjNVut07/nlfTR6qfyhvoPqdGk0Q31f0z8AfZM6XRCyKe/XLGXfi+8NeO2Ssja5c4slMAdkX91px0PsBJ7LZXbXFHz8+Pnk6NbB4XvftOcPD9Iub2JkVZ3+ut6p1KukLPhIyoby1+XzlDUq3h7ousdZboBQp2vY/jAe1H18kuE7J0bpAsS76d6j0vtqXpN0HQDSVBY3SvcZGK/gWpOL6324gmvd5EnmH0Ubp/sM910M4XIS/7ymPa/HlhGA7Kt2oPz3brWrZpCy5jB+Phn9WzI+OMi7aatxkqO058u+bHPr/HwTHiJDGxceP11CHYb2LGU9j+Ml1WNZJhe/BSGLWVYnxShdj/qyPU4XZDcruNauqdMFivUKr3k5/2vdE6un6QKKeYPje+kfgDwoOPbT+EzvHQHIPur2/TgeoKQny1xq92fPJ4+rg4M/T5K07VGS+ptkdJAk7bKu+ieaF2179+9uT9Y6t2VJSnr/p1nuspdDOUtXz5JJ39tmkm7Z1qHSiNgelyled9ddkS1TZ/XBx6Xji9/rDkI+zfwByIOk995g44JjT3teiy1kDsg+ejFIr2+T7y9l88IrVfVe2vY4bXuc7otz1WvPz9q2fX/H5n28rOT1/N3SajG80p67ISair1rJqkrslnG896U+yXo7G44z/PK2pUo6LEbp9xkbp2wp42c9rsWWEoDso4MB0q+qPFr3ilfLdtC29399e7LKjeFWrS44tllSHZbhq8Lj/9NSarF8Q26uyXbZlAnO2+Aky5uXU+KjrLcepZPR+3zGStoY0x7XYYtJwdo3XfrVuGcpTb6oTgeozcZq2/b+/7g92fVemV3dnbYpPH7Vjfgmw+wmXadrJLxpftLlrs3XKanDsnee3hRNlt9Tfvk69nn/xxfn78N78qom8/eYj9M/lajJ1T1Up9/n46OsN33uUeYf2Rhn8c/YvNdIzGfbWwKQffMi497jXtVOf2HMDvYj+EjKGkDb1NAprWu9jEq8ZJpu4vCz/Gl62DjdhM/3FqzHw3Qr3DSv+fezdDuAX+c08/dUfpjdzdOepmsEXc4fSrqe6ocZbrPKJt37dPrSNepc7cJeL1DmvaznPTnNcL3WD1I2KjBL14Cf9x5/WlyjzjTdamPPrrnW5aaWH6Q8TWmcLh3rdMF69TVN2Ry5hykP4Ep2kp9muzq3GJAAZN8cFG8896pdHv1o2rZ9/3/sdtrVPtiUYKlJ13B/UzA7vfh5mK5h8lHKe8ZPsv4Jrtvqw1yfG3+W7v2YpP/k5Y/Tvb+vfi6bdA3Ry5/SYOfdrKchOx2onNLgI+ner2bOY49T/r416e6l6RuOmeXqPTtOeQD5IOsN5p9k/vSqRdoLJXt/WFJ6j5kDsm/a3jmo0yGqsYHOXrTt3R2f8/Gqkob6Ns01qAuPb5ZQh7Mk76RscuXpxTml9TnOdr0/m+JRbp6Y26Ssx/1Vl4HMTecfp3wi7ibMa1hUnfJV3B6lrOFeOofhLN17PS045/TinJLnxlHWu4hAyes+TlldR5l/P6QmuzuqyhwEIPvkqB2l6vnQerF7PRZV2z651bZ3d3i1q9fZ1QBk3S4bMos0WpuLc5vC89a9ws62Ocv8qSVNFt9M7v2CY++n7DNTl1VlY9TpRpVKlLxfSfnoR5PuvWoKznn53NIgpGSPjKGVTkafdwPD0mNL6sAOEoDsk3/Xu8dslt8ub9+PNZgdtO37f3t78nC6m/t83KTkb96m3tbS3c2HfO+bdA2ZPmU2KQ9g+qZW7pvSgOI05cs7n6asQTtLlx4zryEWMliHp1ksOChRms62SND/slnK7vtx1vvelczj/CDz17Uk/WqX55IyBwHIPumffvX5IPXYBFV1eqttb+/JZPPXaQqOrZdUh2WoC48fMu3uUYZJ6WpS1hgdZzsbo+vQZLHe108Lj19ktPi08Pg/X+Aa63SS8vSj0pGJ0j0sTgvLf50m89+zo6y3U2ea+YOledOq6sw/AnIWk8/3ngBkv9S9zm4HbaitSTut2vbu3/3wv93f01GPl5Xsl7EtPeylD/ahRz9OByzvccrqV5L+sM8W3VRzuuTjk+4ztKvfS8cpX1HpcnWyEuMFrjGUknt23fdrSQfHPCMb4yVdmx0lANkv/XZ8Pt/mnM2LwKOe3P3b25PpumuzIUoe7KW9iutS+lAfMqieDlhW0jVkSie3crNF3/NmScf2Ofd1SyxvmjrdCm8lnmSxPTzGBcdOM2xPfMk9Ww943UWUTka/qf0wb9rbLHY+J5bh3Tf9UjSqbeyZa6dVm0eCjmtNC4+/t8A5q1Y6UjNkWuEyFmj4NPM3qOolXJ/V28Lv2TcapZt0XvL8abL4BoKlc8AWvU5fpfUc2uVk9PGcx9/P61+ruqCc6/ZWYQ8JQPZJm1GqHuf/+63J2ZxVbfskyVTg8UZNyjal+iDdA2hTHx515l8C8tJ0wOsvI0VxWnBsvxFOWI6PUj7pvM/SxyWBzjjrG9ndhDlbJTujP8jrA5B5y0js/cEFAcg+qXp+4U2rTW14JmnP2jafHyTPBB1FPs38Q+eXOwCfLq02/ZSufFO6HOU85Q3NUslss5OUdwqUbDZ4nbrHuau0CffrNPN3Ql2m4U6v+bd5lxVuXnM+e0gAwraZtWlnycFZ2vPfHSZnh8nUhPKFnaas4X6SzRxCr1Pe0BkyD3nTXg9Yt3EWm3Te977chIb9NinZGf0kfxpA1Jl//pmld/kjAQgb66Bt71/+97cXPWJL3Szwt+1pynvRrxykzv9ZlawstQnOUpaGVafb9G6ypPos6iTlPZ+ly6q+iUYPXKnT7fdR4lk273tlHzzO/AHIUbrvupc7XEo2QZ0WHMuOE4CwsdaQSrVta+oPYZYuJ7dkZ94HGW7t/CGMUz760WQ7VmIR2LCNPkv5vI9Fd5u/rqySa6/LpoyalkxGv9wT5OUVtObdfPA0m/PMYANYhneftD2/8MbtrjeG+q4S9i8D1WPVShvii6xqsyx1yntak+UEH8uYBF66chCsW+mk81n670T+annbYJP21SpJjXo54Bhn/vfa5HO+QwCyT/ouo/v1zo8Q9GtQv7PJk/TfaJryofE65ev6D22U5JMs1tu5jI2w7i6hzHHBsdsaALM7HqQsJSfpGr/NgHVYdKPJVduk+3Wa+QO3ca6+l+ZNWW4i/YpXSMHaJ22+6rUM77d5J2W7Z2+bxTdyq7a+97lkOcZLxxe/77/poCX6KIu9Z6dZzmjBuxl+hbCSfU02qUeV/VOnbHO7pPveKT3nJmcpm8v3TtYzarJpHVYlk9Ev94Qaz3m80Q/+hABkn/QdAam2Iq92Mf+z7beLdLv1Acg0XVpS6U7ix+lGIu5ndQ/UyxSwRd6zJstbieVeujz2oV6HOuW7OsM61OnuyRJnWc6k89JAfJzhg6BtVDIZ/YN03zf1nMeflleHXScFa5+c9+4hnXey2fY57DH6kSTtRg2nL2rRxvO9JF9mNRM/jy6utej7NXS6x8tGKU8/eZN5GwOXjICwLk9TPun8/aXUpCydKNnl51qZkn2RRpl/7t005qdxDQHIPrnVu4HSr5G+ydreD6FdaPw1WXx0oE7yPOWN5nmNLsruE+g0WX5P3EmGuU+OU7ay1zTLHYHahAUH2EwnKU/ffD/LbZSWLLE9zrAdB9us5Pt/3u8E6VdcSwrWPvlfafJnvUoY5UftOL+tpsNUaKOMe54/HaAOm+Bxuh7B8YLnT9I1nB9lmMb+5e7ri+zz8bLLlXZW4ZP0W9XnKOUT/Bd5yJf2EktT4VXHWWyzwWV32JymfIPVaRavV+no5zSb+cyYpmxfqJs0kX7FawhA9slZNctP2yZ9GnKHf5x8tjt+295L3y/ct3ZiBOTS/ZSv4/+yOt3w/OWu6R9nsbzsd9M91Id4GH6Y1aUB1Olev/dT/nd/kK6hX7r87mnhdS7Pm9f44me6wHXYTXXKA+UnWc1mg9OUTZK+XFFvkXu2vji3ZORzk/cgKpmMfpPpQOWwg6Rg7Z++uz9/sIP7gfRPv9reJXiv06R7EPf9m+p0AcSX6dKzPknX+LiXqwbt5c/xxbFPk/w+XQN+kmGCj6FGY0rU6f7ueXPj64tjT1P+Ny+a4lDa0CrN82d3LbIXUJPV7nRemk5ap7tn5x1tfTkttCT4mGazU3aHHOlc1oIf7AAjIPvmPGc9w85R/vAnO6Fur9+0dcp30f6uaqMfJos6SzdqsMgmf9epL35KV9nqa1U9rq9zfPHzLMnn+W7DY5TuNemT8tZk8eDqLGXpFnW6RufrArpRNm9pUZajdLPBpPusDrl30E0LSkxTNgpyaZKuM+Tynm3y3fukTjc6u+jI+VA7vi9Lyc7obzKNyee8gQBk33yTZ/mz3o3KB9mVAOTWAEPNbe9RpU11evF7qCBk1T7O5kwuvZflBF99VvWapQtCxgXn1Ok+Dx/lu8FUne71nixYF7bHwyzWaTMethr5ODd/9u+nG6EoDRRGKV8IYh6n2ezRj0uL7Av1KpPPeSMpWPvmrCpZau916vy03ZSG3eKGGP1IZvlRtcn5vH2dZn0bDfbxcYZvPGyaafqnli2aIjHKd1Po6p71YHts02qITTZnxKHJ9qQkTdNvNHOWzZ7nwgYQgOynIXrsT7Z+LsgQox/VXnzJnqbbLbhZbzXm9ii7H3w0GSYwnGZ73ldYxGnW3/C/XIWvWXM9Sjzpce6zSMfkBgKQffRvOU3b+8thlP9vaXs+LN8/tscZopG6u+lXrzrL5j9AZ+ka5ZM112PZhm7MbEoPMSzLJOtNCbqfzf7uvE6fNGvpV9xIALKPzqpZqgGWxzvIw/yoHfcuZ9V+09ZpBwmemh1Pv3pVk+R21t+beJ1pulGa0/VWY+mW0ZP6LNIl2H3HWf1312WnyDbeX4umazcLnseeEYDsq6rX8OqVw3ySO209SFmrcmug5UTPN7IhvgqTdIFIs95qJOkekh9m80dnhtCk+zuXMYl1G3toodQkqwtCmnT36+mKrrcMi7xW+/pcpJAAZF99UU0zTC/FKG0+25r5IP/YnmSY1VhmebHXvTxNuiBkXQ3XWboH3e1szopsTZb38J1mecFHsp056rCISZY/p22a5d6vqzJN+VyO6fDVYBcJQPZZNVhjqc4ftiAI+cf2JO1A8wOqPMtfVs0gZW2301wFItMVXO/lwGOSzZvoOMmwQdkqR3iai+vI32bXneUqnXTI75Am3SauuxTMl2RLfJrd+btZMgHIPhtuFCRJjjY6CBky+EiafG2Y+RWn6R66t9M9sIbs+Zu9VP5/ymYGHi87TdfD2jm5JN0AAAXjSURBVCcQWdcIT5MuV15KFvtgku5efZJ+n/fLjVvfyXbO93iTHxYcu2t/O0tkI8J9V+VR2sE2iDrKH/Jl7rR388UGjQ78Y/tR2gE3pGvzsdGP12pytflfnat9In6Ybv+AeQLUJl1g/Lt0D/bpgPVblcug6TTd33+cbvfk+g3nNOl6EJ9l/X/z6cXP5QaKb6r75WTVeRsfTZ+KvaEO85bbJ3id9xrzHnedr3qev+wyS17rbdCk+856mKt79e3cvN/JWbqd0pd5vzZLKndeo8y/gWqT7Z7vwopV664AG+An7SepBt2lucmL3M9vq+mAZZb7TVvnVj7JsBtnNflRdXvA8vbNKF1D9tVAZJbNbNjUSZ7PeWyTbsTiTUb508/j5d+9yaM6yfV1b7J57xkM5bpOkyZX31e77jjJ0zmPPc12blrLmghASO60dc7zZaq5eqfnd57H+fd5lGm1+i/q37YP0g2vD/033c9PqtNBy2ST1Rk2AAHYFs8z/4qRm7IyIlvCHBCSL6omh0uY03CQh/lDvsyP2+PBy36df2jH+W37Wbq8+WGDjyqngg8A9sBJ5g8+TiP4oJAAhM5vqsdZTh5rnYM8zU/b50sNRC4DjyqfZZhldl9l4jkA++Ayg2BeVs6jmBQsrhy1o/xZvswQm/S9XpNkmvM8yT9U/VZK+rId5dscp8p7WU7QceU87+QnPevLNqojBQvYHycpCz6m6VYohCICEL7rx+1Rqnw2+HyQ6zVJpnlxsdrRf8jZa+eLfNmO8q8Z5XsZJ3n7YuWuISeXv16bR/lxNVnJtdg0dQQgwG6r06129SDlHZB3s/5V+9hCAhD+1J32OO3cK18Mq80s1cXqIpMk/yVJN5djPfuLCD72XR0BCLCbSiaZX2caox8syD4g/KkvqtPcaeu0OVn5tauXgo11z1A6z8f5ieADAK5h2V0Wtu4mHpvqi2qSaq8nXZ/l1oCbFwLA7jiNla/oQQDC6+1vEHKWw9zNO2vYvwQANluT7GXbgAEJQHizfQtCzvNxflS9I/gAgGvdj9EPehKAcLMvqkkO8uG6q7F0bR7lJ9XxuqsBABvqUax6xQAEIMznN9XjnOed7GavxyxtPrTaFQC81qOU7RECryUAYX7/UJ2lyt20O7XraZPz3M2Pq8frrggAbKAm3XK7k/VWg10iAKHMF1WT/1kd5yAfps22z5N4kkM7nAPANWbpRj3eibQrBmYjQhZ3p61znkmqfLCU8v8myX9eSsnTiw0Gp0spnV1TFxzbLKkOAEMbJzlKt/fWDy/+v6/SfY+dXfzAUghA6O9OO77YOb0etNzhA5BZzvNhflKdDloqAABzk4JFf19U0/x9dTvVxi7NN0ubRznMbcEHAMB6GQFheHfacc5z3Ds1q/8IyDTJk/yoetarFAAABiMAYXnutHWScdp8kC7XtMxiAUiTNh+nzTOTywEANo8AhNW4DEbOM07ydqoc3XjOfAHILN2k8s/zbZ7lL6umVz0BAFgqAQjrMW5H+dccpc1Rkjptfpgqo7w8kX2S5L/88X/NkjSpMst5fpcqTb7JmYADAAAAAAAAAAAAAAAAAAAAAAAAAAAAAAAAAAAAAAAAAAAAAAAAAAAAAAAAAAAAAAAAAAAAAAAAAAAAAAAAAAAAAAAAAAAAAAAAAAAAAAAAAAAAAAAAAAAAAAAAAAAAAAAAAAAAAAAAAAAAAAAAAAAAAAAAAAAAAAAAAAAAAAAAAAAAAAAAAAAAAAAAAAAAAAAAAAAAAAAAAAAAAAAAAAAAAAAAAAAAAAAAAAAAAAAAAAAAAAAAAAAAAAAAAAAAAAAAAAAAAAAAAAAAAAAAAAAAAAAAAAAAAAAAAAAAAAAAAAAAAAAAAAAAAAAAAAAAAAAAAAAAAAAAAAAAAAAAAAAAAAAAAAAAAAAAAAAAAAAAAAAAAAAAAAAAAAAAAAAAAAAAAAAAAAAAAAAAAAAAAAAAAAAAAAAAAAAAAAAAAAAAAAAAAAAAAAAAAAAA2D3/P+TsxBpcglM5AAAAAElFTkSuQmCC;" parent="24" vertex="1">
                    <mxGeometry width="200" height="90" as="geometry"/>
                </mxCell>
                <mxCell id="5" value="" style="shape=image;verticalLabelPosition=bottom;labelBackgroundColor=default;verticalAlign=top;aspect=fixed;imageAspect=0;image=data:image/png,iVBORw0KGgoAAAANSUhEUgAAA5wAAAJ8AgMAAADv70Z0AAAACVBMVEXnNazlNavlNatpLGi/AAAAAnRSTlMAvlpKU7MAAA2jSURBVHja7Z1Nkts4EoUFRggL7q0FjsBTsG+ghe2FjoBTeG6gRXUvZqWJUHWYPGXbVSUKfyQBkjWdmXxv0dG2JQU+JpAPxO/hAEEQBEEQBEEQBEEQBEEQBEEQBEEQBEEQBEEQBEEQBEEQBEEQBEEQBEEQBEEQBEEQBEEQBEEQBEEQBEEQBEEQBEEQBEEQBEGidfzW7gHze9/3X+VjnvrfOkvHVG+YfSe96l7eOfv7LsL5S7IDagbOF9GcduDsJGPqvt9FxTUO530X1VZ0xVV9v4uKqz3O6y6ap+QGaj3On/tonnITUeVzik1EOuCUmojMTjibgFNqwrUBp9SEG2BKTbgq5Oz3YStSjUVHnD92winTWOqdcJqI87YTTpkdhQacort9Ujt+++XswCnodQWc4AQnOMEJXwEn+n3gxPsnxk04ct4QT75Sif5Qu4twihyoVrbfRQdX9/0uAmqTnK/7CKe8KdDLCKcwa1F9v4uAmlHOl32EU5a1nMY5RVmL7XcRUN1PSc5es8sk511cFvrb4/uvNGsZTOUPj1MLs5YhnK/Bvg4rKxMNpnL181GrZVnLM2zB/hUlKqBO1EwwCmYkWYt9ptUm8BMlyFqODku0T+cix1qMgxJ1+LSYgCpnhETFr55WygjnyfGOt+h1w39+c0qxFs863qDux0v/em4+2KRYixcv85xTGf7XyAio1/6aJ0/9SD5KxAjn0cun9rnHQQ911UiwFh/CwVED51GAtfj9HeXmmyezAGvx+6/aXXrxrMP8rSUwDe3WTicnsbeWIFLGnap3/nDiHtCg5TUuixNc7tYSdtKt6x7aqanMrSV46VIeipt8eVtL+BKt/FzjUlteAf3VQ+++jphKYCte5+iQGOH8Yvs/iVK/28g5bSpOl/YQZ6XIWr685aWWcHt8dGsitzD+CjDvj+GHFeH2qhPZ1Q1R41uk12tQweTZhfA4oJ9M4iZn/USjvYfgW8uRsKNqf/4rGslTQUL106+fnA3h1QvGm7iNR2ZV2IX1OdznogjPGSp/Jj7u4uhwobj1ThZw67kmPNmt0wPtzwZWh+EJ8pKTtwzhIxaMNwCdeAUx4cLi4C+cr1Ce7LZzM5tN+OalfYxnv0ITXqXhD7X/lZiptmH61AHGUCMuhNeL6blFbSoqdJiAFYflRWZuJYmKK2FInl6VcqPbPFN1Tsf7j2yQTzWDVTezi4jruMwmrJaW/HIxNdu0TFwHTYiuyS9c1bORaOKcokPO5FYBUj2FejZT2jg0VfQwDPWEmypgF5lIn6rss9WfUsJt5hJllUopcfMzxBOuncsfOrWt1UbN75j4HUqbYWfDUKciY+LmZ0kbi5pNHyaVUUwMn0rcdDir2SjYFKeOOVPWQsdA9awb2FSBU8nJ8OIMJqdVsgKOmw3RjoKeS5JVOqGkwmUJdxTqOU6dNgibCBdlTjOXhuq04Zuxlky0QzTLadJxSRjLoefMadOcOouTTsevmTN3m/aHRHpSnDnVSL9GjX2UKWc11k+NjYU1px5774jbLTfONsNWUnmYNacZs/v4AbDmtGOccYVm3T7t2GtHnKA4c6rR1+WsoTA2nNX48IdNzi4x5dTjpY1aLmnOmf6tGS+tEcd5HX9zvQt5X7Hjox+xsVDmrKc5J0azqvRDYTluoiZGYeN/o8ypJ3NHNTWqHhlLw2q8755nKwljMYQ5q8ncYaY4zTxnS4ZTzU/ZX6ea9n2yrR+YcNqpyhcZi6a8EMNO1bXJyhclKbacarLyRf+qKM9nm4kYVNNBscnHwpBTTxfWzq2WorTeRE/EwExzRtm4IcxZzdnndbrPeJ+oGy0hTrXUVuaNhdZCY7vQVhJpqqJ8xrwZjYGa6dOofjrh0lqXWo/GoJqrfNEbiyW8nroaTUN6LijNdE++JcV5GH2TMnOcJvlkqG7UacbeMMxc5YuMRVHev6LHymbnXpXjoTBL+DRVNVa22UamJpcbE2ueXhDaSYpZYyG9XzDc/+n9dTf/hNr0M6N3RMZzpeX5UGIrqS0CmvIZwKfkXmMzP6Ke+IglfOLJI6DnmWDNG8sQUJon2BxTh9na+RHY1GqUC+VjN03WnoYMY/n4O6rHndQj5e1yrLeNn8+VD6fOaWZWCOdc/UvlKmacJmeiNvUhZpxNTnnrkWW4jDhtzsReyliYcWa9c6SSMi9OldWrSRkLL06d13uzIjjnuzWJbMWL0+St/0l8jBdnk1fcRNh5cdq8IR6dPiyDD2fmUJZizqlyX5bj58GKU+dOeMXdJlacde7bcpMc9mXDaXKXlcYfZMXZ5JZWJ5cbs+G0uTMHOrlmlwunyp4hUfw588Zgk6sauHDq/HUUkbFw4qzzB2GjjMWJ0+TvVog+yomzyS9sZCycOG3+hLROnRrLhFMVTLwr7py5U3vhM2HEqUuW54XGwoizLpnbC3MWI84CW4mXjTHibErKqvly2pJ1TuGyTj6cqmg9l+LNmb9iJHgqfDh12arvwFj4cNZlS0aC9at8OE1ZUQNj4cNpy4qqWXO22V+u4uuTWHCqwj2qwefZcFalCxF9Y2HDqUs3E/nGwoazLl2J6OdnNpymtKS+sbDhtKUl1Yw524Jv+4mLC6cqPvrA/wYXzqp8fbtnLFw4dfkeVc9YuHDW5QvcvQzNhdOUF9QzFi6ctrygmi1nW/T1KrxHnAFnua0E32HCWS3ZNuUaCxNOveToA7dNM+Gsl+ybMvw4zZJyug+HCaddUk63snPibAu/7yYvHpxLbMX/Fg/OatluXKcW8ODUy7apOq2aB6dZxmlYcl4X/cDH4+HBmbVNcNJYeHAuPJrESV8sOJfZivc9FpzV0kMensbCglMvPf3gaSwsOM1STsOQ87rwF94fEAvOhbbiGgsLzsUnXj0TGAfOpbbifpMDZ7X87KDBWDhw6uWH6gzGwoHTLOc07Divi3/i7RFx4FxsK46xcOBccZDisJiVAadacVTbsDiZAWe15kg6y4dTrzmr7bF5gAFn0X6OpLHcWHA2a8r4MBYGnCts5WksDDhXnc/7SNb0OdWqE0AfxkKfU6876dSy4lx+BOhHFqPPucpWBmOhz9msK+KHsdDnXGUrg7HQ51x57PtHuibPqVYeLP1hLOQ59doDtC0jzjUnS7/nMcqcb+dwr7SVD2P5H+FzuI/b3LLhXM1D8lx1Zbe5slPTvWTmTaeNbhNRhG9fCcK5Lg496YDqzYpnSQfUbnapUUP4eiT/8qbbqp8yhK/18i/julL5qc/pI2x0E7SmfK9X/0nx7Ag3z5VBoHzvnt7wLkvK9yia7e4mJX0vpt3urllN+J5TteHdwZTvrVUT9xCvawK0EpHe8G7v8P7sH4Q46w3vpKd8T3hY1/rtmgCphBveYb52/JYqZ1jX1o7HU024YdlWNCrKnGpDzqip93Q4q6hstw056RhoVNfWzvPugDNKaYQ6CjHnzw056XQU6qhs3bel6glzxrljS93AKYrzDs5/uxsPTnCCE5zgBCc4wYl+HzjxvkKec8vxBMrjJnsZH4o5lw+iN4TH+6rtBq+UJTx+G887LA5oXDVocy5dCx2Hk9D8ymEzdz/2Gzb17ZWIwrLqlnBiSgtrmo0Cqkh3+9Idoq7d5nduhDjrVH+t3FqU7XvC3YSkGyxJIMmfaQlxqn6TgFrqnIck5+u/Uyv+38ZSHIpLTzzdjr2B3jeo/DdSnMkqV2gtj2dlyS5jDGPx15JM9DCVO+X18X4Dbe2CJPLYh3emvN/Ba6Ddc+/gtfhJdVtubfrcBnp/FvW1+Aeufm+ZWLX1umxXJ7zZ5bw86ynpna7GK9ux1FoeNeDFT2r0tmgf/bLZwoAa9+OGbLWNyIa691IUzrv/zF7pYQ5kdx87r4Wd/PhdKG+4v3h9oDJrsX78jlRb5zPlnsMeUldQF4Zn8uWNuj3QBP3ev36NE3CbHU7nkXyx/Z9EMce6vPO171iUs2i215yAGrouUtIVfMmM/P3AU7nWcmIdTieg1yJTYSeVF1BN99CW0r79ucxU2AU0x1qO7MOZZy1m+XQMvUx0F2sqgbW0MvsI2dYyjGayxkxZy9H2r+foQZx5cz6t5eqm1+4sx1TS1vIR4E5MH2HkNfTk9+0vAkzF7wa8BzQYZZBhKglrOfmT3TJMJWEt1hvNFmIqsbUof+ZEiqn4r9G/Amr8VRpSTCWwltfg0EY5phJYyx/+OsyLqHA61vK3x/kf1qOZU9bS9+QXQm1jLfQXCH1eQFtBnKdxzE4Q5shSL1GmEliL6HBOBPRFFmd6LaawLDRhLfeDNNldhHPEWl7FYaYz0VUeZ8paOoGYqYDeJHImrOUqktPsJJ5mB+75W81OOO1uOX+CUxSnyH7CoQcnOMEJTnCCE/6J/hA4d8HZ4D1b+LjJDZyMVe9kXFPvlvOHSM5qB7OCv6Uon0D4mS8snVBOu4tuX9whugvlNLuwldhYpHJWu7CVyFikptsw4f4Uy2l2kW7DRHQVy6l2kYaCBio3DfkN9CaYU++j2ob7BfdQcV9Ec6p9VNvnYsa7bMxHQDvh4XysHz8fxOv7L8yvhx3o+K09QBAEQRAEQRAEQRAEQRAEQRAEQRAEQRAEQRAEQRAEQRAEQRAEQRAEQRAEQRAEQRAEQRAEQRAEQRAEQRAEQRAEQRAEQRAEQZBo/QPcYgQA8YD19QAAAABJRU5ErkJggg==;" parent="23" vertex="1">
                    <mxGeometry y="170" width="200" height="137.66" as="geometry"/>
                </mxCell>
                <mxCell id="31" style="edgeStyle=none;html=1;strokeWidth=5;" edge="1" parent="23" source="3" target="5">
                    <mxGeometry relative="1" as="geometry"/>
                </mxCell>
                <mxCell id="29" style="edgeStyle=none;html=1;entryX=-0.021;entryY=0.519;entryDx=0;entryDy=0;entryPerimeter=0;strokeWidth=5;" edge="1" parent="1" source="25" target="12">
                    <mxGeometry relative="1" as="geometry"/>
                </mxCell>
                <mxCell id="33" style="edgeStyle=none;html=1;strokeWidth=5;" edge="1" parent="1" source="27" target="5">
                    <mxGeometry relative="1" as="geometry"/>
                </mxCell>
                <mxCell id="42" style="edgeStyle=none;html=1;strokeWidth=5;endArrow=classic;endFill=1;" edge="1" parent="1" source="5" target="6">
                    <mxGeometry relative="1" as="geometry"/>
                </mxCell>
                <mxCell id="43" value="&lt;font style=&quot;font-size: 20px;&quot;&gt;&lt;b&gt;SearchFlows&lt;/b&gt;&lt;/font&gt;" style="text;html=1;align=center;verticalAlign=middle;resizable=0;points=[];autosize=1;strokeColor=none;fillColor=none;" vertex="1" parent="1">
                    <mxGeometry x="-80" y="850" width="150" height="40" as="geometry"/>
                </mxCell>
                <mxCell id="44" value="&lt;font style=&quot;font-size: 20px;&quot;&gt;&lt;b&gt;CommerceFlows&lt;/b&gt;&lt;/font&gt;" style="text;html=1;align=center;verticalAlign=middle;resizable=0;points=[];autosize=1;strokeColor=none;fillColor=none;" vertex="1" parent="1">
                    <mxGeometry x="1200" y="830" width="180" height="40" as="geometry"/>
                </mxCell>
                <mxCell id="45" value="&lt;font style=&quot;font-size: 20px;&quot;&gt;&lt;b&gt;ConversationFlows&lt;/b&gt;&lt;/font&gt;" style="text;html=1;align=center;verticalAlign=middle;resizable=0;points=[];autosize=1;strokeColor=none;fillColor=none;" vertex="1" parent="1">
                    <mxGeometry x="570" y="1280" width="210" height="40" as="geometry"/>
                </mxCell>
                <mxCell id="47" value="" style="shape=image;verticalLabelPosition=bottom;labelBackgroundColor=default;verticalAlign=top;aspect=fixed;imageAspect=0;image=https://devblogs.microsoft.com/semantic-kernel/wp-content/uploads/sites/78/2024/03/Large_SK_Logo.png;" vertex="1" parent="1">
                    <mxGeometry x="743" y="1380" width="100" height="100" as="geometry"/>
                </mxCell>
                <mxCell id="48" value="" style="shape=image;verticalLabelPosition=bottom;labelBackgroundColor=default;verticalAlign=top;aspect=fixed;imageAspect=0;image=https://oroinc.com/wp-content/uploads/2023/09/Algolia-logo-blue.png;" vertex="1" parent="1">
                    <mxGeometry x="-80" y="930" width="180.68" height="41" as="geometry"/>
                </mxCell>
                <mxCell id="50" value="" style="group" vertex="1" connectable="0" parent="1">
                    <mxGeometry x="203" y="90" width="210" height="440" as="geometry"/>
                </mxCell>
                <mxCell id="26" value="" style="group" vertex="1" connectable="0" parent="50">
                    <mxGeometry x="30" y="50" width="150" height="390" as="geometry"/>
                </mxCell>
                <mxCell id="25" value="" style="rounded=0;whiteSpace=wrap;html=1;sketch=0;" vertex="1" parent="26">
                    <mxGeometry width="150" height="390" as="geometry"/>
                </mxCell>
                <mxCell id="8" value="Azure Storage Account" style="aspect=fixed;html=1;points=[];align=center;image;fontSize=12;image=img/lib/azure2/storage/Storage_Accounts.svg;" parent="26" vertex="1">
                    <mxGeometry x="40" y="160" width="65" height="52" as="geometry"/>
                </mxCell>
                <mxCell id="10" value="Storage" style="strokeWidth=2;html=1;shape=mxgraph.flowchart.database;whiteSpace=wrap;" parent="26" vertex="1">
                    <mxGeometry x="42.5" y="270" width="60" height="60" as="geometry"/>
                </mxCell>
                <mxCell id="13" value="" style="shape=image;verticalLabelPosition=bottom;labelBackgroundColor=default;verticalAlign=top;aspect=fixed;imageAspect=0;image=https://static.thenounproject.com/png/3913326-200.png;" vertex="1" parent="26">
                    <mxGeometry x="45" y="50" width="60" height="60" as="geometry"/>
                </mxCell>
                <mxCell id="49" value="Product Information" style="text;html=1;align=center;verticalAlign=middle;resizable=0;points=[];autosize=1;strokeColor=none;fillColor=none;fontSize=20;fontStyle=1" vertex="1" parent="50">
                    <mxGeometry width="210" height="40" as="geometry"/>
                </mxCell>
                <mxCell id="52" value="" style="group" vertex="1" connectable="0" parent="1">
                    <mxGeometry x="940" y="260" width="250" height="330" as="geometry"/>
                </mxCell>
                <mxCell id="28" value="" style="group" vertex="1" connectable="0" parent="52">
                    <mxGeometry x="35" y="40" width="180" height="290" as="geometry"/>
                </mxCell>
                <mxCell id="27" value="" style="rounded=0;whiteSpace=wrap;html=1;sketch=0;" vertex="1" parent="28">
                    <mxGeometry width="180" height="290" as="geometry"/>
                </mxCell>
                <mxCell id="19" value="" style="shape=image;verticalLabelPosition=bottom;labelBackgroundColor=default;verticalAlign=top;aspect=fixed;imageAspect=0;image=https://www.pipelinersales.com/wp-content/uploads/2018/09/s-sap-erp.png;" vertex="1" parent="28">
                    <mxGeometry x="10" y="50" width="154" height="70" as="geometry"/>
                </mxCell>
                <mxCell id="22" value="" style="shape=image;verticalLabelPosition=bottom;labelBackgroundColor=default;verticalAlign=top;aspect=fixed;imageAspect=0;image=data:image/png,iVBORw0KGgoAAAANSUhEUgAABAAAAAQACAYAAAB/HSuDAAAAIGNIUk0AAHolAACAgwAA+f8AAIDpAAB1MAAA6mAAADqYAAAXb5JfxUYAAAAGYktHRAD/AP8A/6C9p5MAAAAJcEhZcwAACxMAAAsTAQCanBgAAAAJdnBBZwAABAAAAAQAAOaUMcYAAIAASURBVHja7P1ZbFxZvu/5/dbeMXOeSZEURYqTRFHUPA85Z1ZWVt06p+rc2+cauPZDt+GHfjkNXMAN2C/9ZLttwA3YaKPtBtxG4957zumqU1lDDpVKpVJDap4lUgMpiRqokaJEinPE3n7YQYlScZQ4RezvB4ikRDEl8r93kLF+a63/kgAAAAAAAAAAAAAAAAAAAAAAAAAAAAAAAAAAAAAAAAAAAAAAAAAAAAAAAAAAAAAAAAAAAAAAAAAAAAAAAAAAAAAAAAAAAAAAAAAAAAAAAAAAAAAAAAAAAAAAAAAAAAAAAAAAAAAAAAAAAAAAAAAAAAAAAAAAAAAAAAAAAAAAAAAAAAAAAAAAAAAAAAAAAAAAAAAAAAAAAAAAAAAAAAAAAAAAAAAAAAAAAAAAAAAAAAAAAAAAAAAAAAAAAAAAAAAAAAAAAAAAAAAAAAAAAAAAAAAAAAAAAAAAAAAAAAAAAAAAAAAAAAAAAAAAAAAAAAAAAAAAAAAAAAAAAAAAAAAAAAAAAAAAAAAAAAAAAAAAAAAAAAAAAAAAAAAAAAAAAIC3ZygBAACAVPPvP530z278t99SIABAygtQAgAA4FdvDPptSTFJxZLKJFVLGpT0laQBqgUASHUEAAAAIO1MNZs/jpH3WqhIUpWkGkkNkhqTv66W1C7piAgAAABpgAAAAACktCkG+0aSlXzYkjLlze6Xyhvgr5Q32K+UlCcpI/kISwqO+3tcqgwASAcEAAAAIGVMM7MfHveI6dWsflXyUStphbxBflBSKPmYqidSXAQAAIA0QQAAAACWpCkG+7akqLwZ/SxJuZKWyxvgV8ub2V8mb7Y/K/nxY6sBaIAMAPAtAgAAALDophjshyTly1uinydvv/5KSeXJR6W8wX+peF0DAMCU+EEJAAAW1BSD/Yi87vtjg/tieYP76uSvCyQVJh8WlQQAYHYIAAAAwJyYZn++Gfc2IG/ZfrGkCnn78lfIm9kvkzfQz5W3fD8mlu0DADAnCAAAAMCsTTPYt+S9xrCTjwK9OlZvubyGfHXyAoCYvKZ8MXnL/QEAwDwhAAAAAFOaZrAfkNd1P5p85Msb7K+S15RvubxZ/ZLkxwXGPQAAwALihy8AAHhpmsF+TN6y/CxJOfKW75fLG+Sv1KsZ/mx5M/9jXfdZwg8AwBJAAAAAgE9NM9jPljdrP9Z8r0TeIH+5vCP2SuXN7GdTSQAAUgMBAAAAPjHJgD8qbzZ/rCFfpbw9+uMH+gXyZv2jVBEAgNRFAAAAQAqbZhZferUE38hbwr9M3uC+Qt5Af6W8QX+uvCAgT96sPsv2AQBIMwQAAACkkCkG/EbevvuApKC8zvrLJNXLG+TXytuvXy5vsB+RN6MfEYN9AAB8gQAAAIAlaorB/ljn/bFBfJG8gf0yeYP9Vcm3xck/H+u6P9aUDwAA+BABAAAAS8A0g/0cebP2ufKO2auWtELe0v2xPful8mb+xy/5BwAAeIkAAACABTbFYD9T3v77Inmz92OD+yp5M/wVyT/LljfYBwAAmDECAAAA5tEkg30jqVCvjtIrlTfIr5U3wC9Ivi0VnfcBAMAcIQAAAOAtTNN93+jVfvuAvMF+lbyl+zV61YG/RN5sfqa8Y/YiVBYAAMwXAgAAAKYxzWB/rOt+QN4xe2XJR7W8Gf16eYP+HL1q2heS17EfAABgwRAAAAAwzjSD/Yi84/ViyUe5vAH+cr3aq18jb1bf1qtj+WjIBwAAFh0BAADAt6YY7NvyBvg5kvLkdd4vlzejP9aBv0zePv0cecv9xzDYBwAASxIBAADAF6Y5Zm+s636hvH35Y/v0SyUtSz5KxM9NAACQwnghAwBIO1MM9qPyZu5XyDtir0zezH61vAAgL/nIFXv0AQBAmiEAAACkjBl23rfk/XzL1avu+yvlzeqvlDfoz5XXdT9TUlivL+EHAABISwQAAIAlaZrBviWvk35IXgf+PL06Yq9arwb9ZfIa90XkDfSDVBYAAPgVAQAAYEmYYsAflDeAz5Q3a18gbwl/vaS65K+Lk4+IvHDAFrP6AAAAryEAAAAsuCkG+xnylufnypvVL5c3m18qb2a/Wl5zvhx5g3w67gMAAMwQAQAAYN5Ms4w/V97Aviz5KNar7vslejWrn00lAQAA3h0BAADgrUwzuB9j5HXez5d31F6lvEF+jaTl8gb4BcnHWEM+AAAAzAMCAADAtKYZ7I/tt7fl7cGvkDe4r5S3fL9W3tL9bHlL/MfeskcfAABgAREAAABeM8Vgf+x4vbHu+5ny9ujXymvGVytv0D92zN74Lv0M9gEAABYZAQAA+NgUg31b3ix9hqSYvOX7yyUtk9d1v0ZeF/4yecv2x1YBGNGYDwAAYEkiAAAAn5hmsF8w7pGvV4P8cnmD/HJ5g/8QlQQAAEhNBAAAkIamGOxn6VX3/WXy9utXy5vdL00+CpIfF6SSAAAA6YMAAABSyAw6748tv7fkzeRXyhvklyV/3SCv836upLzkx2RQWQAAgPRHAAAAS9Q0g/2xrvu2vO/lOZJWymvGt1KvBv7l8gb40eQjQmUBAAD8iQAAAJaAaQb7QXmN9sLyGvKNLd+vkdd5vzb563y96rofkBcOAAAAAJIIAABgwU0z2I/Im83PlrcPv0het/1qebP6lZKq5C3ft+Ut+R/rvg8AAABMigAAAObZJAP+sWP28uTtyS+St1x/hV415SuTt1c/R8zmAwAA4B0RAADAHJliZj8ob5BfKm9QX6pXM/pFyd+XSCoUnfcBAAAwTwgAAGAGplm2b8Y9Ino1wB9rxrdM3sx+obyl/WPL+/keDAAAgAXDi08AeMMUg/03O+/nyZu5XyZvn369vEF/mbxB/lj3/WDy/wUAAAAWDQEAAN+awTF7Eb06Pi9bXqf96uRjRfJRKa87f0Cvuu8DAAAASw4vVAH4xhQD/pC84/Wy5c3qF8lrwlcjb0a/Jvm+guTHjXXdp/M+AAAAUgYBAIC0NMVgP1PeQD5f3p78sWP1SuV14V8uqUJe930G+AAAAEgbBAAAUt4kg30j7/i8cnkD+gp5e/Wr5A368+UFAYXyGvIBAAAAaY0AAMCSNYvO+zF5g/lieTP41fIa8q2QN8DPST4y5S33BwAAAHyHAADAkjDNYD+gV032QvJm9avlzeZXSaqVt1c/W68a943t1QcAAAAgAgAAi2CKwb6RN8Af67yfJe9IvTp5g/xaecv3S+U16wvq1bF8DPYBAACAKRAAAJhXUwz2LXnL8rPlDfTz5c3mV8gb5K+Q132/Qt6s/viu+zTnAwAAAGaJAADAnJlisG/L24tfKqlE3n79Snkz+mXy9u6XJP88TCUBAACAuUcAAOCtTTDgt+TN5ufJ67hfqVdN+ZZLKko+cuU15AtSRQAAAGBhEAAAeM0MOu9b497myFu2v1yvBvt18mb1s8c9YlQWAAAAWFwEAIDPTbNHPyCvKV9Y3kC+SlKDvCP2quTN8pfJm/Uf+ziO2QMAAACWIAIAwCemmdkPyZulH3uUyTtqb7m8wX6NvGX8+cmPpfM+AAAAkGIIAIA0NM1gPypvj36BvL34hfKa8a2Qt4x/mbzO+4V6NcCn6z4AAACQ4ggAgDQwyYA/oFcN+cqSj0p5S/cr5Q3yS+SFANlikA8AAACkNQIAIIVMMbMfkjeYXyZv6X65vGX7K+QFAIXJR77ovA8AAAD4EgEAsERMMbg3etV135bXaK9E0kp5g/w6vb5sP1NSRvLBcxwAAACAJAYHwKKYpvN+MPkIyZu9L5U3o18taZW8pnxl8gb64eQjKJbwAwAAAJgCAQAwz6aZ2c8c98iSt2S/Vt4e/RXJR7m8xn1jKwBsqgoAAABgtggAgDk0xWA/LG+QnytvmX6JvCP2apJvl8ub1c+Vt3Sf2XwAAAAAc4oAAHhLUwz2syQVSSpOvq2QN6tfknyUyduzn0cVAQAAACwUAgDgDVMM7Mcba8qXrVcz+FXylutXyRv050rKkTfQz6KyAAAAABYTAQB8bZrB/tiee0veEv5CeQ35quTN6I89CuUt28+Ut1c/RGUBAAAALDUEAPCNaQb7Qb3qqD92zF6dvCZ8VXo16C+QN8Af69JPQz4AAAAAKYEAAGlpms77Yw35suQt4S+RN7ivk9eUr0Le/v2C5HPE0qsl/wAAAACQkggAkPKmGeznyhvI50nKlzeTv1xeE77l8o7bK5e3hB8AAAAA0hYBAFLKFIN9W95e/Irko0TeIL86+bZIXhBQKClCJQEAAAD4DQEAloxp9uib5Nuxzvv58gb2NfJm9VfKm8kvkjfbnyMpxj0OAAAAAB4GR1hwMxjo28l705a3V79KXjO+ar0a7FfKW7afIW+gH6WyAAAAADA5AgDMu2mW7QflDd4j8vbrV0qql9Qgb3a/NPnISt6vYw9DZQEAAABg5ggAMKemGOyPdd7PlLeEv1TeYH+ZvBn9lfJm+PPlHa831nWfgT4AAAAAzAECALy1KQb7UXnN9orkHadXJG8J/wpJZfL26pcmP4aj9QAAAABgARAAYEYmGewH5c3mF8gb2C+XN8hfLm+QXyxvoJ8jb68+s/kAAAAAsEgIAHxuBg35xh5Bvb5sf7leX7afo1fd94NUFgAAAACWFgIAH5lisD+2336swV5E3ux9rbxBfr1eDfyLkn8+1riPewgAAAAAUgCDtzQ1zWA/knyE5c3YV8pbwl8tqU5eB/4KeQ37AvJm9G2xhB8AAAAAUhYBQBqYZhl/TvKRK2+//nJ5g/wKefv0K5Pvy0h+/Phl/wAAAACANEEAkGKmOWYvW15n/bHme1XyZvXHBvvF8vbpx6gkAAAAAPgLAcASNsVgP1PefvzS5KNc3qz+Mnkd+YuSj3yqCAAAAACQCAAWxQw771vJR4a8Jfq1kmrkzeZXJN+XIykr+TFZVBYAAAAAMBkCgHk2zWDf1uud9wvlzeivkDfgr5U3s18kb9n+WOM+jtkDAAAAAMwKAcAcmmawH5Q3Ux9LPgrkHbFXK282f7m8/frFetV1PyBvFQAAAAAAAO+EAOAdTDHgj8pbkp8vr+ne+Fn9anl79ouSfxbSq477dN4HAAAAAMwLAoAZmGKgb+QN8gvlDeiL9Wo2v1TeXv1lkspE530AAAAAwCIiAJjAJAP+gLyB/nJ5x+tVyhvkVyffjs3258nbqw8AAAAAwJLhqwBgmpn88Z33s+TN6JfoVSO+GnmD/jxJ2cmPifithgAAAACA1JSWg9cZHLMXlLf3PiRvv/4KeTP54x9V8pr2heUN9Mfv1QcAAAAAIKWkXQDwxuDfljeAz5A3Y58rb1/++CP2yuTN9mfLm/23k28Z7AMAAAAA0kY6rgAw8vbkb5K3bL9E3tL9Gnkz/QViNh8AAAAA4DPpGADYkt6X9H+TFwQAAAAAAOB76drALltex34AAIB3Nk1/IQBAGrnx336btl9bugYAjiSXWxcAALyjsVOCbEoBAGnPleTW/PtP3XQNATjCDgAAYHIFkn4l6ZnoHwQA6cyW9FzSGUn3JSXS8YskAAAAAJhcrby+QqwsBID0Zku6Kun/KOk7SYPp+EUSAAAAAEzOkhSlDADgC1FJwXT+Ai2uMQAAAAAAcpKPtEUAAAAAAACADxAAAAAAAADgAwQAAAAAAAD4AAEAAAAAAAA+QAAAAAAAAIAPEAAAAAAAAOADBAAAAAAAAPgAAQAAAAAAAD5AAAAAAAAAgA8QAAAAAAAA4AMEAAAAAAAA+AABAAAAAAAAPkAAAAAAAACADxAAAAAAAADgAwQAAAAAAAD4AAEAAAAAAAA+QAAAAAAAAIAPEAAAAAAAAOADBAAAAAAAAPgAAQAAAAAAAD5AAAAAAAAAgA8QAAAAAAAA4AMEAAAAAAAA+AABAAAAAAAAPkAAAAAAAACADxAAAAAAAADgAwQAAAAAAAD4AAEAAAAAAAA+QAAAAAAAAIAPEAAAAAAAAOADBAAAAAAAAPgAAQAAAAAAAD5AAAAAAAAAgA8QAAAAAAAA4AMEAAAAAAAA+AABAAAAAAAAPkAAAAAAAACADxAAAAAAAADgAwQAAAAAAAD4AAEAAAAAAAA+QAAAAAAAAIAPEAAAAAAAAOADBAAAAAAAAPgAAQAAAAAAAD5AAAAAAAAAgA8QAAAAAAAA4AMEAAAAAAAA+ECAEgAAAEzMGKOAZcvIyKUcAPAaI8mVq4STkOPyXTIVEAAAAABMoqGsWv/1z/9z5WXkSLy4BYDXGaOBoUH9X77+H3XyxiXZtk1NljgCAAAAgElkBCNaVVajgsxcigEAExgYGVJ2NFOOXDH8X/roAQAAADAFl5l/AJhU3Eko4TgUIkUQAAAAAAAA4AMEAAAAAAAA+AABAAAAAAAAPkAAAAAAAACADxAAAAAAAADgAwQAAAAAAAD4AAEAAAAAAAA+QAAAAAAAAIAPEAAAAAAAAOADBAAAAAAAAPgAAQAAAAAAAD5AAAAAAAAAgA8QAAAAAAAA4AMEAAAAAAAA+AABAAAAAAAAPkAAAAAAAACADxAAAAAAAADgAwQAAAAAAAD4AAEAAAAAAAA+QAAAAAAAAIAPEAAAAAAAAOADBAAAAAAAAPgAAQAAAAAAAD5AAAAAAAAAgA8QAAAAAAAA4AMEAAAAAAAA+AABAAAAAAAAPkAAAAAAAACADxAAAAAAAADgAwQAAAAAAAD4AAEAAAAAAAA+QAAAAAAAAIAPEAAAAAAAAOADBAAAAAAAAPgAAQAAAAAAAD5AAAAAAAAAgA8QAAAAAAAA4AMEAAAAAAAA+AABAAAAAAAAPkAAAAAAAACADxAAAAAAAADgAwQAAAAAAAD4AAEAAAAAAAA+QAAAAAAAAIAPEAAAAAAAAOADBAAAAAAAAPgAAQAAAAAAAD5AAAAAAAAAgA8QAAAAAAAA4AMEAAAAAAAA+AABAAAAAAAAPkAAAAAAAACADxAAAAAAAADgAwQAAAAAAAD4AAEAAAAAAAA+QAAAAAAAAIAPEAAAAAAAAOADBAAAAAAAAPgAAQAAAAAAAD5AAAAAAAAAgA8QAAAAAAAA4AMBSgAAADCxuJPQ88E+2bbt70K4royxlBmJKWClVi2GRoc1MDIkYww3NOb4eeG9iYUjCgdC1AMpgQAAAABgEtce3NL/7n/6bxSw/P2SaSg+rJKcQv0ffvG/1ZryupT5vONOQn8494P+H/v+ozJCUW5ozKnRRFzGSP/wyf9an7fspiBICQQAAAAAkxgcHdaNx3d9X4eE4yhoBzQwMpRSn7fruuobGtCdp/dlGXa+Yu7vr3AwpGeDvRQDKYPvhAAAAAAA+AABAAAAAAAAPkAAAAAAAACADxAAAAAAAADgAwQAAAAAAAD4AAEAAAAAAAA+QAAAAAAAAIAPEAAAAAAAAOADBAAAAAAAAPgAAQAAAAAAAD5AAAAAAAAAgA8QAAAAAAAA4AMEAAAAAAAA+AABAAAAAAAAPkAAAAAAAACADxAAAAAAAADgAwQAAAAAAAD4AAEAAAAAAAA+QAAAAAAAAIAPEAAAAAAAAOADBAAAAAAAAPgAAQAAAAAAAD5AAAAAAAAAgA8QAAAAAAAA4AMEAAAAAAAA+AABAAAAAAAAPkAAAAAAAACADxAAAAAAAADgAwQAAAAAAAD4AAEAAAAAAAA+QAAAAAAAAIAPEAAAAAAAAOADBAAAAAAAAPgAAQAAAAAAAD5AAAAAAAAAgA8QAAAAAAAA4AMEAAAAAAAA+AABAAAAAAAAPkAAAAAAAACADxAAAAAAAADgAwQAAAAAAAD4AAEAAAAAAAA+QAAAAAAAAIAPEAAAAAAAAOADBAAAAAAAAPgAAQAAAAAAAD5AAAAAAAAAgA8QAAAAAAAA4AMEAAAAAAAA+AABAAAAAAAAPkAAAAAAAACADxAAAAAAAADgAwQAAAAAAAD4AAEAAAAAAAA+QAAAAAAAAIAPEAAAAAAAAOADBAAAAAAAAPgAAQAAAAAAAD5AAAAAAAAAgA8QAAAAAAAA4AMBSgAAWIqMjGTG//6NX5nX32ckuXKVcByKBwAAMAECAADAlNxx/x17M/HHTPw7jzdAN8Z7K2NkGSPbsmVblmzLVsC2ZZvkW8tW0LIVCUUUCYQUCgS9t8GQIsGwIsGQwoGQosGwwsGQwsGQMsMZuvXkrv6Xk99pcHSIC4c5YRlLoUBwfBblS3HHUSgQlGVSb/GobdmKBMOyU/Bzx9LmuK7CwaAClk0xkDIIAAAgBb0clLuT/dkbv3In/L8ljc2ij5tLN96gxyQH6a9+bXkPa9yvjZFlWRN8nHn5sUZGwUBAITukcCDoDdgDyV+HwgrbQYUCIYUDAQXtoIKBoEJ2UMFAQLFQROFASEE7oHAgqFDA+9hQIKSQHVA4mAwHgt77vzyzX+5kKQXwFpblFevvNn+qzHDU13WIJ+LKCMdUmVeaUp+3bVnaULVK//DJv1MoEOSGxpxKOI6McbVueSPFQMogAACARea4rlzXW7b+cujqvvqdK2/+fGxAboxRwLLeeN+rQbc3g27JMuNm15NvX5txt2zZtq2gFVDADiiYnHkP2UFFgslBdjCYHKAHkwNwb8AdtIPJwbc3aA/ZQYUCAe/PrLFfe39uGeuv/s1A8nMZe2vMmzHEJMzrv3n1W1c3H9/T1xcPa2h0mJsKc6YkK1//ZvOnKszKoxjSy+dqqrCMpeaKejWX13HxwPMCEAEAACy6kuwCLcstlDGWgnbg5SA9YAdeDpDHZsAjwbCCgYA3QLe9pe8h2xvA28b7f0J2UAHbTg7qvYG99zaYfBtQMBBU0LIVDAQUSL4/kPx3AlZAAdt6OaOfCoZGR/W70/t0/vZVbijMOZMM3pCi18+7iBQCAEQAAACLKhqK6L/Y82vtqFsnMzZ7P27m3h43cx+Y4H0WL2olSW1dHfrzhYNyXBoAAgAATIYAAAAWieu6aiyr1mfNu1WeX0xB3tLQ6LD+fOFH3et5RDEAAACmQAAALHGvt2vTDLqwT9UA7dU+a68bu5ExkjGWxPFpC862bO2sW6/8zByK8Q5O3ryk7y8f02h8lGXaAAAAUyAAAN7BRJ3YJxqwT3ZE2vj3j2/oJulls7ex94/9enzXdWMs2cZK/t5KHqtmybLsl+8PWK83XAvYttdlPfCquVssFNFwfERHrp/V4xc9r7VWw/xwXEcrCsu1q26DoqEwBXlLzwf79fsz+3W35yGDfwAAgGkQAMBXXHf88Dz539fbro9rvj7ZYWKujMafXx54Oeh+rdO6ebVf27Ksl/u63zz7fGyQ7nVeD7881iw8rst6wPY6qY81aXvZxM32uq6H7LHj0YIKJ7u0j7192aV97Ii1ZIM4a1y4YBtLAyND+m/+8P/S7898r4ST4GaZZ0ZGW1c2q7ZkOcV4h+fzT9fP6HjHBcUdh34IAAAA0yAAgG8YY5QRjikaDMmyrNe7or88yizwcoAdsAPJ49FeHV326pi1gHeOeTCoSCCsSCiksB3yzjRPHpE2NtsesLyu7i//Hst6+f6xt8Fkx/bxvx77txdqVjMzEtPHTdv1w5UT6u7rYTZ1HjmOq5KcfO2u36S8WDYFeUsPe7v1p/M/quvZIwb/AAAAM0AAAF9w5SpoBfRx03Z9sW7vy4H22NFndvLty4H5+K7r9qvl9CYZAIwFAWO/ty0rLeq0paZZzRV1OnT1lBzX5caZt/vR0eplK7W2op5ivKV4Iq7D18/qWMcFuRKbVgAAAGaAAAC+YGQ0HB9V3+ALrSqtVmluEUWZQHYkQ1+07NWJGxc1ODJEQeaB67rKiWZqZ916leYUUpC39Kjvqb6+cFA9/c+Z/QcAAJih9Ji2BGbASDrVeVmHrp/lrPDJamSMdtVvUENpFcWYJ67rqjyvVFtqmtNm5chCizsJHbhyUkc7zrNVBQAAYBZ49QnfMMboaX+vvrlwSF3PHlOQSeTGsvTpml2yLZtizINwMKStNc1aWUzzv7d1/9kj/e70Pg2PjlAMAACAWSAAgM9ueKMTNy/p5I2LiifodD+RkB3UnoaNqi5cNuk5CHg7ruuqKCtPH67eplgoQkHeQtyJ6w9nf9DFu9coBgAAwCwRAMBXjDF6MdyvL8/+oJ7+Xgoyicr8Mu1p2CzHIQCYS7Zlq6WyUS3LGynGW2p/eEd/PHeAAA8AAOAtEADAfze9sXT6VquOtJ/lvPtJxMIR7W3cpIr8ErmcBjBnoqGIPlmzQ5nhKMV4C/FEXL899RfdetJFMQAAAN4CAQB8aWBkUP904hs9ZRXAhIyMVpXVaHN1kxI0TJyzmq5eVqPttetoXPeWTt68rP1txzUcZ+8/AADA2yAAgG9dvHddP7SdYIZ7EvkZOdpRu14FGTnUaA7Ylq29DZuUG82iGG/hxdCA/nzhoO48fSjL8KMLAADgbfAqCr41ODKkP184qO7+5xRjAsYYbaharfrSFRyb+I5cuaosKNX22nUKBAIUZLb1c10dv3lRh6+d1mhilIIAAAC8JQIA+JbjOLp495oOtJ2gGJNYUViunXXrlRGOcR7AO9pdv1EriyvF4v/Z6+5/rq/PH9Tdpw/ZPgEAAPAOCADgW8YYPR/o0zeXjuhJXw8FmYBtWdpdv1HleUVyWQXwVlzXVUl2gfY0bFJmOEZBZslxHZ28cVEHr55SwnVkiFAAAADeGgEAfM1xHZ2/c0WHr5+hGJNoLKvRjroNCgdCrAJ4y3tsQ1WTVi9byez1W3jS16Mvz/6gxy+eyaJ+AAAA74QAAP5+AhhLj/t6tK/1GKsAJhEJhvTR6m3KjWVJNAOcFdd1lRvL1nuNm1SUlUtBZinuJHTw6mkdunaawT8AAMAcIACA7xkZnbhxUac7W+l2P4m1lY1av3yVLItvGbPhuI7qS1do3fJGOte/hSe9PfrHE99oaHSYYgAAAMwBXpGCJ4ExetjbrW8vHtbTAU4EmEhmOKLPmncpGopQjBlyJUVDEW2qblJV4TIKMkuO6+irCwd1+d51igEAADBHCAAASbaxdPDaaZ2/fU0OqwD+imUsbV25VqvLaijGDLmOo9KcQu2u36CQHaQgs9TZfV+/P7tfw3GO/QMAAJgrBACAvBMBul8805/OH1DfUD8FmUB+Rq4+atquoM059jMRsANat7xRayvqKcYsjSRG9dtT3+n6w06KAQAAMIcIAICxJ4OxdODKCZ3tbKMXwASCgYB21m1QbXEV9ZmG67rKjmbog1VblcHRf7PW1nVD+1uPaWh0hGIAAADMIQIAYJzngy/021N/0cDIIMV4g5FUVVCmXfXrOc5uGpax1FBWo5116ynGLL0YGtC/nN6n9kd36PwPAAAwxwgAgPFc6af2czp58xK1mEBGOKo9DZtUkVdCr4QphIJBfdK0XTnRLIoxu6efznS26cerpzTC3n8AAIA5RwAAvKFvaEBfnv1BL4YGKMYEGkurtal6jUQAMKnKvFLtadgkm2MTZ6V3sE9fXzykW0/uUTsAAIB5wCss4A2jibiOdVzQiRsXKcYE8jJztLNuvQqz8lgFMIkPV29TeW4xhZgFx3V06marDl49JW/DCQAAAOYaAQDw5pPCGHW/6NE3l46od/AFBXmDkbRxxWo1lK5gFcAbXNdVUVa+3l+1RaEAR//NRk9/n/5wdr/uP3vM3n8AAIB5QgAATGA0EdeJGxd0prONYkygPK9Euxs2KiuawYkA47iuqy01zaopqqBR4izEnYQOXjulQ9dOUzcAAIB5RAAATPTEMJbuPH2gfZePqm+wn4K8IWDZeq9xiyrySuWKAECSXLnKjMT04aqtysvIpiCz8KSvR7879Z16ea4BAADMKwIAYBIJx9FP7ed06d51ijGBlcUV2lHbolAgRDEkOY6j5sp6NVfWyzJ8a51x3VxXf7n0k852thEmAQAAzDNepQKTsC1Lnd339H3rMU4EmEDACujjNTtUkJHj+4GbK1eRUFi76tarMr+Um2MW7j97rD+eO6DB0WGKAQAAMM8IAIApuK707aWf1PbgJsWYwKqyGm1Ysdr3M96O46i6sFw7atcraAe4MWb6/JKrP577QW33b9BLAgAAYAEQAABTMMao69kj/fHsAb0YZhXAm7IiGfpFy3vKiWb6tgauXAXtoDauaPJORsCMXbrXrq8uHNLA8CDN/wAAABYAAQAwA99cPKQr92+yR/kNxhhtWLFazRV1vq2B67oqzinQ+41bFA1FuClmaGhkWH86e0BX79/0zpYEAADAvCMAAGagZ6BXvz/9vYZHRyjGG3Jj2fpg1TbfbgOwjaXG0hVaX7WKm2GGXEln71zR/rbjGomPypAAAAAALAgCAGAGHMfR/rbjutJFL4A3BW1bm6vXqK6kSo7r+O7rj4Wj2tu4RfkZOdwMM9Q7+ELfXDikm0/uyrL4MQQAALBQeOUFzNDT/uf68twPGo6zCuBNVYXL9P6qLT5cBWC0PL9Mexs2cRPMkOM6One7Tfvbjstx2FIDAACwkAgAgBkaiY/q0LVTunjnGsV4QywU0baVLSrPK5bj+GcVgG1Z2tu4WeW5xdwEM9Q72K8vz/ygu08f0vgPAABggXFeFTBDxhjdefpAX108pOaKeoWDIYoyTnNFnTZXN+t29wPffM3FWXn6qGmbbJaxz0jCcXSs47x+vHqKpf9InfvWdTU4OqzB0WHvbFifcuX9HAwHgim32iueiGskQb8RzJ9gIKiAZVMIpAQCAGAWhkdHdazjglrvd2j9cpq+jZcby9Lu+g368eopdb/o8cV2gF31G1VbvJyZ7BnqHXqhfzzxjZ4N9FIMpIz2R7f1D//h/6xgwN8vmUYTcZXmFOq//PDv1VhWkzKfd9xJ6KuLh/T/PfR7gnvMuUQiIcuy9F/s+Y0+bNpGQZASCACAWbAtS+0Pb2t/63GtXrZS4QAvJsbbXtuiNeUrdeDqqbT/WrOjmXq/cYsywjEu/Aw4rqN9l37SmVutFAMp5cVQv850ct/GnYTqS6vUO9SfUp+367p61PtUp29dls0MLeaY4zoKB0N60NdNMZAyCACAWRpJjOrHq6f0yZodaq6opyDjFGcXalf9Rp3pbNOL4YG0XW7puI42rVittZUNspj9n5GuZ4/1u9Pfq39kkGIg5bDKR7KMlbIru4wxsiyL64i5f17Ie15wZyG17lsAs3vSGKO2rhv6oe2EhkY5EWA8I2lPw0ZV5BWn7VZZV97Rf3saNqkwM5eLPgMJx9E3Fw/pcleHr5pEAgAALDUEAMAsGRnFnYS+uXhYt57cpSBvWFlUqW0r1ylkp+cCI8dxtLK4UhtXNPl+T/BMXX94S1+dP6S+oRfMwAEAACwiAgDgbZ44xqj90W0daDuh4TirAMazLVu/WP+eCtJwdtyVFLBsbV6xRisKyrnYMzASj+vrC4fU2tXB4B8AAGCREQAAbynhOPqXs/t19+lDivGGxrJqba9bl3YDPsdxVJ5fot31GxULR7jQM9DW1aHvW49rcHSEI7gAAAAWGQEA8A5uPenSH879oFEnQTHGiQTC+uW69xQLpdcg2baM1pTXqrmijos8Ay+GBvSHcz/ocleHAhY/bgAAABYbr8iAdxBPxPXtxSO6/aSLYoxjjNGa8jptrl4jJ026Abquq9xYjvY2bE7L7Q3zUa/LXe36y6WfKAYAAMASQQAAvANXrm5339fvz+xXnFUAr8mOZuqzNbsUDYbT4usxxqi+tErba1u4uDPQO9SvL8/8oK5njzgqEQAAYIkgAADegZHR0OiwfrhyQtcedFKQcYJ2QJuq16ipfGVaHP0WDoa0q26DKvJKuLjTcFxXZ2616vvWoxQDAABgCSEAAN6VkW48vqt9l39SglUAr1mWV6y9jZsVsANK9Y0AJdkF2tu4mU72M9D94pn++eS36n7xnGIAAAAsIQQAwDsyMhoYHtSha2fU8egOBRknHAhqa81aVRctS+lVAJZlaXfdBtUWV3JRp+HK1eHrZ3TsxgW5KR/7AAAApBcCAGAunkjGqO3+Df149RS9AN7QULpCG1Y0yUrhLvCZ4ajeX71VoUCICzqNh8+79Ycz+9U7+IJiAAAALDEEAMAcMMboxdCAvrv0k248uktBxsmOZuq9xs0qyS6Q46beKgBXrjavWKOm8lqa2U0j4Tj69tIRnbtzNS36PgAAAKQbAgBgrp5MxujC3Ws61nFeo4k4BRlnY1WTVpVVyyj1BtCxUFQfrN6q/Fg2F3Iand1d+urCIT0b6KVXAgAAwBJEAADMEWOMhuMj+vP5H9X17BEFGacoK097GzYrK5Ih102dfeGO46ixrFqbqpsVsANcyCkMx0f0l0s/qa2rg8E/AADAEkUAAMzlE8pYunD3mg5fP8sqgDfsbdyk6qLylBocBuyAdtWtV3luMRdwGtcfdurrC4fUN9Sfkis9AAAA/IAAAJhjI/FR/e7UX/S0/xnFGKciv0wfNe1QKBBMic834TiqKlymHbXrFQ2FuYBTGBwZ1neXjupyV7ssw48VAACApYpXasA8aOu6qT+fP5RSy93nm21Z2lO/UcVZ+Snx+VpG2lDVqIayFVy8KbiSrj24qa8vHlaCxn8AAABLGgEAMA+G4yP60/kDetzXQzGSjKS60irtrt+45LcBOK6joqx87ahdr5xoFhdvCv3DA/qXs9+r49FtTkkAAABY4ggAgHnguq7aH3bqqwsHKcY44UBQH6/ZoZxo5hL/TI2qiyu0dnkDF22a+/zsrTZ9e/EIxQAAAEgBBADAPDDG6MXQoL6+cEi3u7soSJJlLDVX1Gln7Xo5S3R7hOu6yghFtLV6rSpyS7hoU+gbHtA/nfpWT3pZ6QIAAJAKCACAeeJKuvrgln68eopeAOPkxrL0UdN2ZUaicrX06uJKKsjM1Y7adSnTsHCx/HT9rI61n1diCV5HAAAA/DUCAGC+nlzG6Plgn/5y6ag6WQUwri6W1i1fpY1VTXKdpTdwDFi21lY2aE1FHRdrCt0vnul3p/epp7+XQ/8AAABSBAEAMI+MjC7cuaqj7efokD7Ostwi7a7fqGgosuTmjqOhsD5cvVWxUIQLNQnHcfTdpZ90prNVCZf7GgAAIFUQAADzyBijZ4N92td6TA+eP6YgSQHb1qbqNVpZXCnHSSyd6yWj6qIKbahqWvInFSymzqf39dWFQ3ra/5zO/wAAACmEAACYZ7Zl6+TNyzp+44LiS2iwu9jqS6q0fYntszfG6P3GzSrLKeACTWI0Map9l4/q7O02sfUfAAAgtRAAAPPMSOodfKGvLhxSd98zCpIUDYW1o26dSnMK5SyB7RGupLLcIm2vXaeAHeACTeLm43v65uJh9Q71s0oCAAAgxRAAAAvAtiwd77ig4zcuLInB7lKxtqJeLZUNsm178T8Z19Xm6jWqL6liYDuJwdFh7W87rtZ77QpYS+CaAQAAYFYIAIAFMjAypN+e2qfnQy8oRlJeRrbea9yinGjWoh+VmBGOaXtti7KjWVyYSdx4dEd/PHdAw/FRigEAAJCCCACABXT2dqsOXTuz6IPdpcLIaHtti1YWVy5qM7mEk1B9aZXWL2+UbfFtcSIDI0P68ux+XX/YyQoJAACAFMUrXWABDYwM6Xenv9PzgT6KkVSaXaj3V21WcBGbAdqWrW01a7Ust5gLMgFXUuu9dn178QjHWQIAAKQwAgBgASUcRxfuXNXBa6cpRpJlWfqgcavKcooW5d93HEflecXaUtOsaCjCBZlA//Cg/tOJb9T1jKMsAQAAUhkBALCQTzhj9Hzghb48u1+P+55SkKTlBcv0XuOmxdkGYKRVZStVX7aCCzGJY+3ndPjaaSVcjrEEAABIZQQAwAJzXEfnbl/Rwaun5XKQuiQpEgzp46YdKs4uXNCaOK6rnGiWdtatU3FWPhdiAs8G+vTb0/v0pO+ZjNj7DwAAkMoIAICFftIZS90vnum71qN60tdDQSQZY1RfukKbq9csbINE11VFfok2rFgtm2PtJiiPqwNXTurMrVYlXPb+AwAApDoCAGARGGN09larTt68xIkASbmxLL3XuFnZ0cwF+zdDgZA2rVij+pIVXIAJ3H/+WH86f0CP+p4u6ikNAAAAmBsEAMBiPPGMpQe93fr24hE97X9GQeR14l9f1ag15bWKO/O/19x1XeXGsrSjdp1Ci3gCwVKVcBLa33ZCJ25cZOE/AABAmiAAABaJbVk62nFepzvb5LC8WpJUllOknXUbFA2GpXleGWEZSyuLK7WhahWFn8Ct7vv6+vxBPR/sk2H2HwAAIC0QAACLxMjoSV+P/nTugJ4P9FEQSaFAUFtrmlVdVKHEPAcAoUBQexo2KS8jh8K/YWh0WN9d/kmnO9vojQAAAJBGCACARWSM0ZHrZ3T+zjV6ASTVl67QxqrVCgWC83oeQGFWrrauXCvb4tvgmzq77+vL099rOD5M538AAIA0witfYJH1Dvbry7Pf68XwIMWQlBXJ0I66dSrIzJ23UMQYo521G1RXUkXB3zA4Oqw/njug9sd3ZBl+RAAAAKQTXt0Bi8xxXf10/ZzO326jGEkbqlartrhS1jxNPmeEotpZt07RUJhiv+H6g059ff6gHIe+FAAAAOmGAABYAnoGevX7M/vVPzxAMSSV5hRqb+NmxULROf+7HddVXWmVWpY3ymaG+zX9Q4P63envdLfnIcUAAABIQ7z6BZaAeCKhox3nderWZYqRtKtug8pyi+TOcScAyxhtX9miwsxcivyGEzcv6vu24xpNxCkGAABAGiIAAJYAY4we9T7Vn87/qBdDrAKQpBWFy7SjtkVBKzBnf6fruirLLdKO2nWKhiIUeZxnA3363el9uv/sMcf+AQAApCkCAGCJiDtxnbrZqnN3rlAMSeFASB+u3q78OTymz3FdratapZUlyynwOK7r6vC10zp165IS7P0HAABIWwQAwFJ5MhpLnd339O3FIxoYGfJ9PYwxWlvRoHXLV83J3+fKVVYkpk1Vq+c0VEgHj/ue6o/nDujBsyeymP0HAABIWwQAwBLiuq5+aj+n87dZBSBJGeGI9jZuUjgQeue/y3EcLS8o07rlqxSwbIqbFHcSOnz9rM50trH0HwAAIM0RAABL6QlpLN14fEffXDys3sF+39cjYAe0pXqNGsuq5bjOO/9dayrqVFNUzo02zt2nD/T7M/v15MUzAgAAAIA0RwAALDlGP7Sd0PWHtyiFpLK8Yu1u2Cj7HWbtHddRXka2ttWsVXY0k6ImjSRGdfjaGZ2+dYnBPwAAgA8QAABL7UlpjLqePdY3Fw7rxfCg7+sRDYa1o3adlheUyXnrBnVGVQXl2rCiiRtsnPvPHutfznyvgZEhMfwHAABIfwQAwBLkytWfLx5U+8NOiiGppqhCzeV1ct9ylBoOhLR+eaMq8kooZtJIfFR/Pn9Ql++1yzL8KAAAAPADXvUBS9STvh59efYHDcWHfV+LgsxcbattUX4sR67rzur/dV1XObEMbVu5VrbFt7wx7Y9u67en/qLRRJxiAAAA+ASvhoElKuE42t92XFfv3/J9LSxjaUPValUXlcuZZQBgWZbqS6rVVF7LTZU0ODqkfzzxje4+fUQxAAAAfIQAAFjCHjx/ot+e+k7D8RHf16K6sFybqpsUCc7uSMCAbWtX3XoVZ+VxQyWdudWq/a3HNJoYpRgAAAA+QgAALGEj8VEdvn5GF+9c830tQoGgdtSuV1FW3qyaARZm5mlz9RoZlv9Lkp4N9Ol3p/bpwfNuOv8DAAD4DK+IgSXMGKN7Tx/qzxcOaniUVQDNFXVaVbZyxkcCGmO0fnmjVhYvl6HPvSTpbGebTt66pLjD3n8AAAC/IQAAljAjaTg+ouMdF9Xa1e77euRlZGtn/XplhKOaSSeAoB3QrvqNyoxEuZkkdfc/05/O/6h7PY/o/A8AAOBDvAIElvqT1LJ04/Ed/eXSUQ2MDPm6FkZGO2rXqTK/ZNr5fFeulheUaUPVqhmvGEhnCcfRT9fP6fC103Jcx/f1AAAA8CMCAGCJMzIaGh3RgasndeX+Td/XY0VhuXbVb5j2SD/XdbWlplkl2QXcRJIe9j7W7898r4e9T5n9BwAA8CleBQIpwLYstT/s1I9XTmjQ56sAArat91dtVXY0a9KPceUqN5atzSvWKDMS8/39M5qI6+DVMzpx49K0wQkAAADSV4ASAKkhnkjou9Zj+rR5l1YvW+nbOhgZ1Zes0Maq1drXenTCj3EcRw0lK7R62UpmuyXd7r6vfzn9vfqHB+j8D8ySZSyFA0HJ58+d0XhclrFkp+D3VMsYBa2AQrM8RhaYTiKRUMCyFbAYUiF1cLcCKcKyLHU8vK0frpxUTXGlIgH/vpDJimRob8Mm/Xj1pEYTf93NPmAHtKayTqU5Rb6/b0YTo/q+7Zgu3rvG4B94C7Uly/VfffrvlBvLluu6vq2DI1eRQEgriytT6vMOWLY+W7NLjaXV9IPBnHPlykhaUVRBMZAyCACAFBJ3EvryzPf6ePU21Zeu8G0dAratDStWq66kSpfutcsaN7B1XFfFWXnaWLVaGZGI7++Zzu77+uPZHzhGEnhLWeGYNlStVkFmLsVIQcYYleUWqSyXQBgAJHoAACmns/u+/nDugOJOwtd1KMst0vqqVbLemNR2XUcrCpapvrRKRn5fsjuq35/Zr45Hd3niAO/AzzP/AID0QgAApJh4Iq59l3/SvZ6Hvq5DdiRDO2rXqSAzT864F+fhQEhrK+tVmV/m+3vl0r12fXvxiIbizP4DAACAAABISbe77+v3Z/b7elbKGKOm8lqtKquR43jn2juOo/zMHG2uXqNQIOjre+TF8IC+PPuD7jy97/N1EAAAABhDAACkoKHREe1rPaobPl/aXZZbpM3VaxQJheW6rowxWl5QplU+PiVhzOmbl3Xg6gkNx0d5wgAAAEASAQCQmozU8fCOvrp46LXl734TsGxtrG5SZX6JHNdRJBjW5hVrVJpT6Ovb48mLZ/rj+QO6033/tQaJAAAA8DcCACAFGRkNjAzpwJUTan/Y6etarFpWozUVdbItW1nRDG2uaVbQ9u8BJ67r6sytyzp87Ywc+pYBAABgHAIAIFWfvMao7f4NHbhyUvFE3Ld1yI1maVtNi3JjWaoprFBTub+X/z950aM/nvtRD3q7mf0HAADAawgAgBRljFH/8KD2tR7TzSf3fF2LdcsbVFNcqU3VTcqNZfu2DgknoaMd53Xo2ilZtP4DAADAG/y7ThZIA7Zl69Ldazpy/ayqCpb5tvN9dVGF/ssP/14VeaWyLf/mmt0vnuufT3yr3qF+GWb/AQAA8AZWAAApzEgaHBnWt5eOqOvZY9/WIRwIaW/DZq0srpTx6cx33EnoL5d/0tnOK76tAQAAAKZGAACk+pPYsnSus037245p1Me9APzu7tMH+k/HvtLg6BDFAAAAwIQIAIA0MJKI65uLR/Skr4di+FDcSegPZ3/QjSd3KQYAAAAmRQAApInLd6/rL5eOyHEdiuEzl+5e15/P/aihkWGKAQAAgEkRAABpYjg+oj+e/1GPerspho8MjgzpD+d+UOfT+xQDAAAAUyIAANKEI+nag1v67tJRiuEjZ2636ccrJzU0OkLnfwAAAEyJAABIE0ZS/9Cg/nzhoO50MxvsB88GevX1+UPq7L4vy8fHHwIAAGBmeMUIpBFXrq7cv6EfrpyU67oUJJ2vtevqXOcVHbx2SgnH4eA/AAAATIsAAEgjxhg9G3yh79uO696zRxQkjXX3P9OX5/br7tMHslj6DwAAgBkgAADS7kltdP72Ff10/SwnAqQpx3V0+larDl07KzH3DwAAgBkiAADSjDFGPQPPta/1GCcCpKknfc/0Tye+UU//cxr/AQAAYMYIAIA0ZFu2jnWc10/t55VwWAWQThKOo32tR3Xy5iWKAQAAgFkhAADSkJFR72C/vr54SN0veihIGrnd3aXfndqn/uFBigEAAIBZIQAA0pRtWTrecUHHOi7IYRVAWkg4jr66cFBXHtykGAAAAJg1AgAgjQ0MD+lfznyvZ4N9FCMNtHV16E/nD2pgeIBiAAAAYNYIAIA05srVyZsXdazjvFzKkdKG4yP6+uIh3XrSJTr/AwAA4G0QAABpbmhkRP988i/q6X9OMVJY670O7W87rsGRITr/AwAA4K0QAABpzpGj87ev6McrJylGiuob6tfXFw6q/dEdWRbftgEAAPB2eCUJpDkjo+eD/frm0mH19PdSkBTjSrp0r13ftR5TPB5n8T8AAADeGgEA4AOO6+hs5xUduHKCYqSYZ/29+vLsfnU+uc/sPwAAAN4JryYBPzzRjdHj3qf6vvW4ntILIGU4rqszna3ad+koff8AAADwzggAAL8wRqc7L+tox3k5LmcCpIJn/b36x+Nf69lAH+N/AAAAvDMCAMAvT3ZjdP/ZE3178YievOihIEuc67r68epJHbtxQS6HOAIAAGAOEAAAfnrCG6Mj18/q9K1WVgEscfefP9Z/PP6V+ocHKQYAAADmBAEA4CPGGD3tf659l4/q+QAnAixVruvqj+d+VGvXDeb+AQAAMGcIAAC/PemN0aFrp3XpXjuDyyXqxuO7+ur8QfUPD7D3HwAAAHOGAADwoZ7+5/ry7A/qG+ynGEvMSDyuP53/Udcfdsow/AcAAMAcIgAAfMhxXR26elpnb7dRjCXm6v0b+u7STxoYGZQxBAAAAACYOwQAgE/19D/XH88d0ODoEMVYIgZGBvXd5aO69vCWbMumIAAAAJhTBACAT8WdhI51nNeJG5coxhLR2tWhby4d1mg8TjEAAAAw5wgAAJ8yxuhRb7e+Pn9IA8OsAlhsvYMv9KfzB3Xj8R1ZFt+aAQAAMPd4lQn42Eg8ruM3zuvULVYBLCbXdXWms03fXDgsl6MZgCWHfhwAgHQRoASAf1mW0Z2eh9rXekwbVzQpIxylKIvg+cAL/fPJb/XkRQ/FAJaYhOuof3hQ0WBErs8PTzWSIsFwyq1SGk3ENRwf4WQVzAtXUiQQUsCmdw9SAwEA4GNGRvFEQoevndHnzbu1rbaFoiyCw9dP66f2c3KZ/geWnK5nj/Tf//CPigYjko8DgITjqDArV79c/76qCpal1Od96tYlfXPxiGzDwlfMLcd1ZVuWPl+7WxtXNFEQpAQCAMDnbMtSZ3eXvms9qtUVK5UdyaQoC+hhb7f++eRf1DfUTzGApfgcfd6t/3D0Tz6f+/cG0g1lK7SlpjmlAgDHdXTpXrv+x4O/lUUAgDnmuq7CwZCqi8oJAJAyCAAAyHEd/eXyT/q4abu2rWQVwEJx5er71mO6cPeaHNdheSqwBBljFLB5uWQZRwHLTsl+CJaxFLQDBACYc67rcm8h5XC3ApBlLHX1PNL+thPqHx6kIAvkxqO7+sPZA3o+2MfgHwAAAPOOAADAS1+dP6jrD29TiAWQcBL6vvWYLt+77udtxQAAAFhABAAAXnrY163fn9mnwdFhijHPOh7d1XeXf1Lf0ABHjAEAAGBBEAAAeMlxHO27fExXum5QjHk0ODKsby8d0cW712Uz+AcAAMACIQAA8JrHfU/1x3M/ynEcijFPrty/oa8vHNTQ6IhEAAAAAIAFQgAA4DWjibgOXT+ly/faKcY8eDE0oK8uHNL1h7dlW3wLBgAAwMLh1SeA1xhjdLv7vr4894PiToKCzLFL99r11YWDSrissAAAAMDCIgAA8FeGR0d16Nppnb99hWLMob6hAf3TyW/1qPcph/4BAABgwREAAPgrljG69eSevrt8VAMjQxRkjhzrOK8f207IYfYfAAAAi4AAAMBfMcZoeHREh6+fUcejOxRkDjzs7dY/nvhavUMvKAYAAAAWBQEAgEmFAkEF7QCFmAMHr57Suc4rSnC6AgAAABYJAQCAv+K6rjLDGfpkzU7VFFVQkDkQC0fp+g8AAIBFxatRAH/FkavGZdX6pGmHQoEgBZkDe+o3atvKtbItm2IAAABgURAAAHiNK1fZ4Qz9rHmXqgvLKcgcyQzH9JvNnyovI5tiAAAAYFEQAAB4jZHUuKxaP2/ZK2M4rG7O6mqMNlat1vurtlAMAAAALAoCAACviYVj+vWmT1SaU0gx5lg0FNHfbvxIy3KL5bouBQEAAMCCIgAA8JIxRmsr6vXh6m0UY57qu6a8Tp8175Jl+PYLAACAhcUrUAAvhQJB/Zstnyk/I4dizJNYKKLPW3arprhCjsuRgAAAAFg4BAAAJHlH/+2sXa/ttetksfd/3hhj1FBarQ9Xb5dtOBEAAAAAC4cAAIBc11VWJEN/s/FDFWTmUpB5FgtF9OmaHWooW6GEwyoAAAAALAwCAAByXVd7Gzdrc/UaZv8XSGNZtfY2bFY0GJYrGgICAABg/hEAAD7nuK5Kcgr1+drdKsrKpyALJBIM6/OW3aorqRIHAgAAAGAhEAAAPmdktK22RZurmynGAmsordbHa3YoMxzlWEAAAADMOwIAwMcc11FZbqE+bdqh/Ew6/y+0oB3Qz1v2qKaoUoatFwAAAJhnBACAjwUsW5ur12h73Tox/FwcVQVl+tWGDxUNhikGAAAA5hUBAOBTruuqKKtAv1z/vnKjWRRkkdiWrU/W7FDDshqKAQAAgHlFAAD4lG3b2l67VttWrqUYi6wkp0B/u/EjRUOsAgAAAMD8IQAAfKo4K19/u/FjxUIRirHIApat3fUbtaFqtRyaAQIAAGCeEAAAfnziG0sfrNqqluUNErv/l4Ty3CL9av0Hyo5mcCIAAAAA5gUBAOAzrqTS3EL9auOHygzHKMgSYVu2ttet08669XJch4IAAABgzhEAAD5jJH28ervqS6ooxhJTml2on6/do6KsfEIAAAAAzDkCAMBHHMdRVeEy/WztbmVFMijIEmOM0ZaaZm1d2SLD1gwAAADMMQIAwEds29bHq7drFUfOLVlFWfn6vGW3irPz5TisAgAAAMDcIQAAfCLhOKotrtTHTdvZ+7/E7axdry3VzQrYAYoBAACAOUMAAPiA67oKB4J6v3GLmivrKcgSlxPN1K83fayCzBxOBAAAAMCcIQAAfMB1XVUXleuz5l0KB0IUJAVsqWnWrvoNCtg2xQAAAMCcIAAAfCAcDGtvwxY1VdRRjBQRCYb1n239XEVZ+RQDAAAAc4IAAEh7rirzS/U3Gz9UwGI2OVUYY9RUXqsvWvZyIgAAAADmBAEAkOYCdkA/b9mt+tIqipFiosGwPm/Zq8qCUnoBAAAA4J0RAABpzEiqKarUrzZ8KMvwdE9FdSXL9fO1e2RbXD8AAAC8G15RAun8BLds/WbzJ6rMK6UYKSoWiuiDVVu1sni5HFYBAAAA4B0QAABpynEdramo00ertsmmk3xKa6qo1edrdysSDMkVIQAAAADeDgEAkKaCdlC/XP++luUVU4wUFw6E9FHTdq0qq5HjOBQEAAAAb4UAAEhDCcfRhqpV2l23QUE7QEHSQENZtT5cvU2ZkRirAAAAAPBWCACANOPKVU40Qz9r3qXlBWUUJE3YxtJnzbvUUFpNMQAAAPBWCACANOM4jporG/T+qq3M/qeZ6sJyfbR6m2KhKKsAAAAAMGsEAEAacV1XeRnZ+nj1dlXkl1CQNGNZln7eskerl9VwrCMAAABmjVeQQBoxxqi5ol4fr9nOADFNleeV6FcbPlQkGKIYAAAAmBVGCECacOUqO5qpL9a9p7LcIgqSpmzL1sdN27WucpVcl20AAAAAmDkCACBdnszG0tqKBr3fuEVGhoKksbyMHP1688fKimRQDAAAAMwYAQCQJjJCUf1600cqzMylGGkuYNnasXKdttasVcJxKAgAAABmhAAASBOba5q1o3adjGH23w8Ks3L1+bo9Ks7OZysAAAAAZoQAAEhxrqScWJZ+s+ljFTD77xu2ZWt7TYu21jRzJCAAAABmhAAASHGu42hn7XptqFrN7L/PFGfn67Pm3SrJLpTDKgAAAABMgwAASGGO66gwK0+/WLdXRdn5FMRnjDHaUbtO21au5dhHAAAATItXjECK29O4SRtXNNH336fyMrL1i3XvqSQ7n1UAAAAAmBIBAJCiHNdRWW6RPl69nb3/PrdtZYu2165T0A5QDAAAAEyKAABIUbaxtG1li3bWracYPpcRjuo3mz5WYVYuxQAAAMCkCACAFOS4jkpzi/RFy15lRTJ8+fUPjY5w/N04Lcsbtadhk2yLb+sAAACYGOtFgVR84tqBl8u+/caVq0t32/Wn8wf0b7d9oRWFy7ghJMVCEf39lp/p8LUzuv/sMQUB5hBho1eDVD5yNNU/fyzh+4rvD0gxBABAinHlqji7QH+/9XNFg2Hfff2O4+pI+xn94ewBVRdVqKqgjOMPk+pKVuiX697T//Djb+W6DgUB5oBtWQoHQr7/PjOaiCtoB1JylZFt2YqGwgraQW5ozKmE4ygYCNCDBymFuxVIMbZl64NVW7W2st6XX//AyKDO37mmJy96dOT6WX26ZqfyM3K4MSTFwhH9vGWv9l85oav3b3I0IDAHluUW619v/lQZkZiv6xBPxBULR1WRV5pSn7dtWdqwfJX+4dP/jcIBAgDMrYSTkCS1VDZQDKQMAgAgxSzLKdLfbf5EAcv25dff2tWhq/dvKJ6I6+Kd67p497r2NmzixkhaWVypz9fu0Y1HdxRPJFgdAbyjkuwC/dvtXyg3lkUxUpBlLK2trPdtaA4Ab2J6CEghRkafrd2tuuIqXw7sXElnOtv0qK9HlmXpbs8DHbx6Sv3DA9wcSZFgWO81blZjWY0c9iUC78x1XcUTcQoBAEgLBABAinBcVyuLK/Tzlj2KhEK+rMGj3m4daz+vodFhGRklHEenbl7Sre4ubpBxVpXV6OOmbYqGwjQnAgAAwEsEAECKsC1Ln63drdri5TLy57Lu6w86dfPJPTmO1+DOsixde9Cp4x0XNZoY5SZJCtoBfbh6hxpLq+l6DQAAgJcIAIAUkHASaihdoQ9XbVUsFPFpDRyd6WxV94tnLwMQI2lodFhH2s/ocV8PN8o4jWXV+rR5lzLDMSIAAAAASCIAAJY8V65ioag+btqhupIq39bh/rPHOnWrVf3Dg6/1PzDG6GznFZ29feVlN15IljH6Yt1eNZbVUAwAAABIIgAAljzHcVVXulyfrNmhqE9n/yXp6oObuvHojt7sfWiM0fP+Xn136ScNjg5zw4xTkVeiL9btVTQYphgAAAAgAACWMtd1lRmJ6sNV21Tv49n/vqF+Heu4oEe93ROfbW+Mjt+4oKv3b9H07g0fN+3Q2op6jgMEAAAAAQCw1K0oKNfP1u5RwA74tgYPnj/RuTtXNDJFo7+nL57rL5eOKO5wXNd4JdkF+tuNHykWilIMAAAAnyMAAJawWDiiz1t2a2VRhW9r4LiuWrs61P7w9sSz/0lxJ6GjHed19+kjbpxxbMvSnsZN2lqzhhMBAAAAfI4AAFjCakuq9EXLe7Is/z5Vewdf6Ej7OfX09065jN2Vq1tP7umHK8flsA3gNYWZufrl+g+UG8smBAAAAPAxAgBgiQpYtv5mw4cqzyv2dR1ud9/XyRsXpw1BjIz6hwd14MpJPe59yg00jm3Z2rpyrbbXrpPjOBQEAADApwgAgCXIdV21LG/Uh6u3ybZs39ZhJD6qo+3n1PXskWbSws5xXbV13dSxjgvcRG8oyszTz5p3qTgrn0aJAAAAPkUAACxB4WBIf7fpE5XlFPm6Dk/7n+vw9TOKJxIz+njLGHW/6NHh66f1YniAG2kcY4y2rVyrbXXrxHkAAAAA/kQAACwxCcfRphVN2rpyrWwf7/13XFfnbl9Ra1f77P+/O1d06e51bqY3FGTm6udr96gst1iOy1YAAAAAvyEAAJYQ13WVGYnpl+vfV2V+qa9rMRIf1aFrZ9Q3NLuZfMsyut19X8c6LmgkPspNNY6R0fbaddq6slkBH28tAQAA8CsCAGAJcVxXO1a2aFfd+ik73vtBx6M7OnHjghKzbFpnZDQ8OqpjHRfU2X2fm+oN2ZEM/av1H6g4u4BeAAAAAD5DAAAsEY7rqjAzV5+s2aGyXH93/pekI9fP6P7zx281SLUsS5fvXde5221KOIk0rM672Vy9RttqW2TbAYoBAADgIwQAwFJ5MhqjTdVN+mD1Nt/XouvZYx26dlqDI0NvtRLCSOobGtAPbSfU09/LzfWGaCiif7v15yrOyqUYAAAAPkIAACwBruuqIDNHP1u7W/kZOb6vx7nbbWp/dFvOO6xQty1Lx29c0MV71+Ww1P2vNJXX6rPm3bIMPwYAAAD8gld+wFJ4IlqW1let1t6Gjb6vRe/QC/3Ufk5PXzx/5z4IzwdfaN/loxocGeIme0MkGNKvN32k5YVlckVAAgAA4AcEAMASkBvL0t9u/Eg50Wzf1+Lag06dunlZI/HRdz6v3nVdHW0/pxuP7nKTTaC6sFK/Wv+BbE4EAAAA8AUCAGCRGUk7atdpW02L7zv/jyRGdfLGJXV2d81ZLe4/f6zD7acVpxngX4mGwnqvcbPqSpbLmeVpCwAAAEg9BADAInIl5WXk6DebPlF2NMP39bj/7LGOXD/z1s3/JjIaj2t/63F1PXvEDTeB2uLl+rx5t6KhCBsBAAAA0hwBALCYXFd76jdqbWWD72f/HdfVpbvtutzVIcuau29Njlxde3BLh6+d4X6bQDQU0cdrdmjVsmo5rJIAAABIawQAwCJxXVeluYX65Yb3lR3N9H09ng/26eDVk3o+2CejuQtDjIz6hwd18OopPR/s48abwMri5fq4aaeyIhlyOTEBAAAgbREAAIvElav3G7eopbJRls9n/11J7Y/u6PiNi/Py9ydcR5futetEx8XUKswCCVi2frZ2l1aV1bANAAAAII0RAACLwHEcVeSV6KOm7cqNZfm+HiPxER26ckr3eh7N6ez/GGOMHj7v1qFrZzQwMsgNOIHlBWX62do9yo7ECAEAAADSFAEAsAhs29bO+o3asHw1xZDXqf+71qPztvzcyGg0EdepW5d05f5NCj5JjT5q2q6m8lpZ/l6QAgAAkLYIAIAF5jiOyvNK9IuWPcqJsfffcV0dbT+nziddcudx7tmyLHU8uqND185ocHSYG3EC5bnF+lcbPlIsFKUYAAAAaYgAAFhArqRQIKhddRu0cUUTBZHU0/9c+1qPaSQxOq//jpE0FB/Rketn1NXDkYATsSyj9xs3a0PVat+fSgEAAJCOCACABeS6rkpyCvV3Wz5VJBimIJJOd7bq0t0OOY4z7/9WwLLVdv+mLt1tl+M6KVCdhVeYlad/vflTVgEAAACkIQIAYAEF7YA+XLVVTctWUgxJL4YHdaDthJ4NPF+wGef+oQF9e/mIul885wJMwDJGm2rWaFfdejkcCQgAAJBWCACABbQst1i/3vSxArZNMSRdvX9Tp25e1sjo6IL9m8YYnbxxUa332jnzfhKFmXn6xbr3VJCRQ40AAADSCAEAsFBPNmP0Rcse1ZeumJej7lJN3Enop+tndbfn4YLvN+8Z6NX3rcc0ODrEjTnJvbq5pll7GjbNa2NGAAAALCwCAGABuK6r2pIq/axlt4KBAAWRdLv7vo52nNfAyNCCBwCu6+rgtdO6dr+TGe5JFGbm6pM1O1SWW0S/BAAAgDRBAAAsgIBl6/O1e7SyaDmz/5ISTkLHb1xQa1fHonWbv//ssb6+eFhxJ8ENOomddeu1u36jbGOzDgAAACANEAAA8yzhOGooq9b7q7YoEgxREEndL57pp/azejbYJ2uRAoDRRFw/Xj2pW0/ucUEmkRXJ0M+ad2tZXrFcVgEAAACkPAIAYB65kiLBkD5Zs1N1JcspiLzl95fvdejUzcuyFnk1xP1nj3Xo6mm2AUxhe22LdtS2KGgHKQYAAECKIwAA5pHjOFq9bKU+WL1V4QCz/5LUPzyg/W3H9fB596It/5e80wBeDA3o8PUzetjbzYWZRDgQ0m82faLSnAK2AQAAAKQ4AgBgnrhylRWJ6YNVW1VXzOz/WE1uPenS4etnlsTn47iOLt9r17H283S7n0JzZZ0+XL1NAYsfGQAAAKmMV3PAPHFdVyuLK/VZ8y6FAiyflrx999+3HtO9RTj6byKWZenxix5933ZMj3qfcoEmEQ6E9ZtNn2h5fhnFAAAASGGcRwbMA1euMsNeA7XqogoKknS/57H2tR5Twlk6DeVc19WpW606f/uaPlmznYs0ibEw63/48X9RgpMT4CP9I4O6fK9DeRnZvl4p5DiuQoGAVhSWKyMcTZnP23VdPe57qns9j2Sxiglz/bxwJSNXlfmlKsjMpSBICQQAwDwwMlpZXKEv1r0nmxcckrwXYT91nNOtJ11L6vOyjKUHzx7r8LXT2rayWdnRTC7WBMLBsH7eslc/Xj2ly/fal8QKDmAhdDy6o3//T/9XWcbf38sTjqOa4nL973/+n2v98lUp9HkntK/tuP7v3/5PsozNDY055bquQoGg/qtP/53+ZuNHFAQpgQAAmAfRUET/2dafqTSnkGIkPRvo1VcXDmpwZGjpfXJGOnbjvG496dLaynou1sQl0oqicn3avEtXHtyUs4RWcQDzaTQR15O+Ht/XIeE4yo1lajQRT6nP25U0ODKkR71PfR/iYB7uL9dVOBjS4OgwxUDKIAAA5sH65Y36cPV2Zv/HOdJ+Tle6birhOrKW2OyxZSx1PrmvI+1n1VC2ghMbJhENhvXh6q3ad/knnbt9lfsbvsGKF68GqVyHVP/8sbTvLSCV8OoNmGOxUFR/t/kT5WdkU4ykF0MD2nf5qHr6e5fc4H/MaGJU3136SXefPuSCTWFlcaU+X7tHmeEoJycAAACkGAIAYA45rqMtNc3aVN0s22Kv4ZgLd6/pwp1rijtLd+moMUZXH9zUwaunFE+xJa4LKWQH9cGqrVpdvlKOQwAAAACQSggAgDniuq7yYjn61foPVJJdQEGShkdHdPDqad3tebjkQ5Gh0RH9+fwhPWK/75Sqi8r1cdMO5cSy5LqEAAAAAKmCAACYI67rauvKZm2qaWJv9Dg3H9/VyZsXNRIfSYnP99rDm/rx6ikGtlOwLVsfN+1QQ+kKGbH3EQAAIFUwSgHmgOM6KsrO1ydrdtL5f5y4k9CJGxfV1tWRMt2X+0eG9N2lI+oZ6OMCTqGqoEy/WLdXGZHUOQ8cAADA7wgAgDlgjKVNK5q0s3Y9M6LjPHj+RN+1HtXAyHDKdMl1HEeX73XoaPtZLuCU97zRZ827taaijnseAAAgRRAAAO/IcR0VZubq0+ZdKs7OpyBJCcfR+dtXdLazLaW2RFjG6Gn/c+1rPabng6wCmEpBZq7+fuvnioTCFAMAACAFEAAA78i2bG2sWq09DRspxjgvhvr1fesx9Y8MptznPpqI6/StVp3tbONCTsEyRjvr1mlH7TqKAQAAkAIIAIB34LqucmNZ+lcbPlBeLJuCjNPx6K4OXTuTMnv/x7MtS/d6Hmpf63H1DfVzMaeQG8vRv978qXcigGicCAAAsJQRAADvwLYsbV/Zot31zP6PN5IY1beXDutZCi+hTziOTnRc0JWuG1zQKVjGqGV5o/Y2bJY4OQEAAGBJIwAA3kFONEu/2fSpYqEIxRinq+eR9rUek+M4Kfs12JalG0/u6uC10xocGeKiTqEwK08/b9mj0pwiOW7qXnMAAIB0RwAAvCXXdfVR03ZtXNGUMh3uF8q3l47owfMnKf91JBIJHbx6WreedHFRp2Akbahapd31G1NyywcAAIBf8EoNeAuu66o0p1B/s+EjZYSZ/R/vyYtn+vHKKQ2NDqf812JZlq49vKUj7Wc0Eh/l4k4hPyNHn6zZoWW5xSm98gMAACCdEQAAb8GRN/u/uryG2f83HOs4r45Ht+WmyX7w4fiIvr14RA97u7m409i6cq121q1XMBCgHSAAAMASRAAAzJLjOqourNDnzbuVGYlRkHEGRoZ0oO2Enrx4njbBiJFRW9cN/XT9rBJOgos8hcxwTL9Y955Kc4rSJgACAABIJwQAwCwF7aA+Wr1VayrrZMTs/3iX77Xrwt1rSjjxtPq6huIj+uO5Ayl9qsFC2VzdpA9WbVHIDlAMAACAJYYAAJgFx3VUXVSuT9bsUGaY2f/xRuKjOnTttDqfdKVdIzjHdXS5q0OnbrZyoacRCoSSqwAKKQYAAMASQwAAzEI4ENLu+o1aU1FPMd5w++l9He84r+H4SNr1RTAy6h8e1L7Wo+ofGeRiT6OpvFafNe9SwLIpBgAAwBJCAADMkOu6qi6q0BctexUNhinIOAknobOdV9R2/6YsKz2/rcQTcZ26eUnnO69ywacRDoT0y/Xvq6pwGc0AAQAAlhACAGCGwsGQ9jZsUlN5LcV4Q89An45cP6Pewf607YtgjNH9Z4+1r+1YWhxxON+1qi2p0hcte2VzSgYAAMCSQQAAzFBpdqF+0fKegjQ3e40r6dqDWzrWcV6Wld6DvaHREZ25dVk3Ht/lwk8jHAjq4zU71LisRo7rUBAAAIAlgAAAmIGAHdCvNnyourIqivGG4dFhHbx6Sk/6etL+VATLGLU/vK2j7eeVcBjUTmdlcaW+aNmroB1kKwAAAMASQAAATMOVVFVQpp+37FHIDlKQN6rT9eyxDl477YsBnjFGfcMDOnj1lO49e8Tln0bIDmpvw2Y1V9Qr4SQoCAAAwCIjAACmEbBt/XrTx6rML6UYb0g4jr5vPaabPloSbxtb5+5c0ckbFxVnUDut2pLl+rR5h7IjGXJd1gEAAAAsJgIAYAqO62hNea0+atqucDBEQd7Q/eK59ree0Ggi7puv2Ripd/CFfmg7rp7+59wE0whYtj5t2qmWyoa0Ox4SAAAg1RAAAJNw5SoSCOsXLe9peX4ZBZnA6VuXdf3hLTk+m9k1xuh0Z5uuP+yUy+72aVUWlOqjpu3KYhUAAADAoiIAACbhuK7Wr1ilPQ2b6Pw/geH4iL5vPa7ewRdp3vrvrxkZPe57qu8uH9XA8BA3wzQsY+mz5l1aU1HHKgAAAIBFRAAATMBxXWWFY/po1TbVFFVQkAm03uvQ2dttGnX8s/x/PNd19f3l48n+B8xqT6cku0C/XP+esiIZFAMAAGCREAAAEzCSmspr9V7jZmYsJzCSGNWBKyf14PnjtD/6byoPe5/o60uHORJwJs8pY/TR6u3auGI1xQAAAFgkBADAG1zXVVYkQ5+s2akVReUUZAK3u7t07MYFDYwM+TogiTsJ/dB2Ql3PHnNTzEBuLEu/3vSJsqOZFAMAAGAREAAAbzDGqKm8Vp8175JleIq8yXFdnbp5WdcedEo+nv0fc/fpA+1vO86NMQOWsbSlZo121q2jGSAAAMAiYHQDvCEjHNWvNn6ostxCijGB7hfPdLT9vHr6n8tie4ReDA/ou0s/6WFvNzfHDORn5OgX695XUVY+IQAAAMACIwAAxjEyWlNRp/cbt/h6b/tkXEntj27r/J2rYuyfrIkrXX1wS0eun6UYM2AZSxuqVmtn/XpaJwIAACwwAgBgnGgorH+z+VPlZ2RTjAkMDg/p8LXTuvP0Adsjkixj9KSvR/tbj+v5QB8FmYHCrFz9ouU9VeSV0EARAABgAfEKHkhKuK62167T7oZNsi2bgkzgTs8DHWk/J4el23+ltatDl+61U4gZMDLaULVK22tbZFksJQEAAFgoBACAvKXt+RnZ+vWmj5Uby6IgExhNxHWs47yuPbjF3v83WJal291dOnj1pPqHBynIDOTEsvT52j0qzy2RwyoAAACABUEAAEhynITea9ykTdVNLG2fRO/gC/3QdkJDoyMUYwJxx9GPV0/pxuM7FGOGttQ0a2/jJoWCIbl0BAAAAJh3jHTge47rqDS3SD9r3q38WA4FmbBGrs7fueI1/6McE7ItS+0P7+hI+zkNxwlJZiIWiujXmz7RspwiMf4HAACYfwQA8D0jaWvNWm2oapJhafuERuKj+u7yUfUPD1CMKSTchA5fPa0nvT0UY4bWlNfq85Y9CgdCFAMAAGCeEQDA1xKuo9KcIn2+drcKMpn9n8z1h506eeMSHdunYRlLZzpbdbqzlUaJMxSwbf28ZY8qCkopBgAAwDwjAICvBS1bm6ubtLVmLcWYRNxJ6PvWY7r//An7tGdgJB7XH88d0DOOBJwRI6OVxcv1+drdCtlBCgIAADCPCADgW67rqiAzV/9qw4d0/p/C3acPdOjaaQ2ODMnQAWD6+0quTt68pFO3LrEKYIZCgaB+1rxbDWUr5FIzAACAeUMAAN8K2La21KzVlupmijGF4zcu6OaTuxRiFvpHBvXNhcNKOAmKMQNGUk1RhX7eslcRTgQAAACYNwQA8K28jGz9my2fKTMSoxiT6Ol/riPXz+pZfx8NEmchkUjo9K1WXbp7nWLMUCgQ1N6GTWquqGflBAAAwDwhAIA/b3xj9GnTTq1fvopiTOHC3eu6cOcay7JnyRijR33d+vriIVYBzEJNcaU+ad6pjFCUVQAAAADzgAAAvuPKVUl2gX618UPFwhEKMomh0WEd77igez0PZSy+VczW4MiwDl07o2sPOinGDAUsW3sbNmltZT2hEwAAwDzgVT38d9MbS79c/4Eay2ooxhQ6n9zX0Y7zGk0kaP33VveZ0Z3u+zrQdkKOy/GJM1VdVK7P1+5WXiybugEAAMwxAgD4iuM6qimq0MdNOxQLMfs/mXgirtO3Lqutq0M2s/9vxRijvuF+/dRxTl09jyjIDNnG1serd2htZb0sw70HAAAwl3h1Bd9w5SpoB/Rx0w41lK2gIFPofvFM37Ue1fDoCMV4B5axdLmrQ6duXaYYs1CSU6BPmncqK5LBVgAAAIA5RAAA33AdRw1l1fq4aTuz/1PVyXXV2nVDZ261ymL2/51YxtLT/ufa33ZCj3qfUpAZMsbok6ad3ioA7kEAAIA5wysr+IIrKRIKa2/9Zq1eVktBpjA4Oqz9bcfVPzJIMeaAJaMTNy+q9X4Hs9mzkJ+Rrb/b/IkywxzTCQAAMFcIAOALruuourBCHzVtVygQoCCT1UnS7e77+vHqSQarc8QYo4fPu3Xgygn1Dw9QkBmyjKW9DZv1XuNmjgQEAACYIwQA8IVIIKTdDRvVVL6SYkzBdV395dIRPertoRhzyEj66fo53XrSxVB2FjIjGfrVhg+Vn5FDMQAAAOYAAQDSnuu6qios16/Wf6igzez/VO4/e6zvLh/VaGKUYswhY4xuPrmn/VdOaDRObWfKMkYtlQ16v3ELRwICAADMAQIApL28jGz9cv0Hqi+tohjTOHD1hDq777Pkeh44jqO/XDqih8+fUIxZyI1l6YuWvarIK2VbCgAAwDsiAEBaM8bo7zZ/ol9v+kiu6zKLOIW+wX4dvnpG/SODMjIUZB7cenJPR9rPcR/O8jncXNmgXXUbZBnuSwAAgHfBemikvTtPH+qfTnyjnFiWSrLzVZxdoJxopgJWQEE7qFAgoHAgpFAwqJAd9G2dzt5uU2tXh5xEgqPX5snw6Ii+u/yTPm3eqbxYNgWZobyMLH3eslsnbl7Qjcd3ZRnuTwAAgLdBAIC05rquvr10RN9eOiJjjCKBkDLDMcXCUcVCEeXGslSQmaPCzDwVZeerMDNXWdFMZYUzlBWNKRaKKiMcVSQYVsgOKGgHFEjDPgIj8VEdunZa958/lmGWdd4kHEfn71zTketn9UXLXgoyQ0ZG65Y3atvKFt15+kAJhxUUAAAAb4MAAGlvbN+w67oaGBlS/8iQ1Jt8X/K/rustNQ5YlsKBkLKimcqNZSk3lq28WJayohmKBr3AoDg7X/kZOcqOZioWiigaCiszHFNmJENZkVhKzk5ef9ip4zcuajg+qoBlc9PMF2P0fKBP+y4f1a66DcqNZVGTGcqKZOiLde/pp3bvNAW2AwAAAMweAQB8x0hScvDw8r/JsYTjuhoYHdLAyJAePH8s1/XCgbGmeKFAULFgRLFwRLHkyoBIMKTMUFT5Gbkqys5TTixLsVBUOdFM5WfkeI/MHOXGshQJhhWw7CU1yx534jp585I6Ht2RzdL/eb/3Rp24znZe0YU7V7WnYRNFmYUNVav0/qot+g9H/6yRRJxOFQAAALNEAAC8wSQDATMuGBjjuq5eDA+ob7hf3sKCV/3ybWMpYNuyLVtBO6BQIJgMCMLKCEeVGY4qO5KlwuxcFWXmqTi7QEVZecqNZSszHFVGJKasSIaioYgsmWRGYWSM9+v5asz38PlTHbl+Vv3DgwQAC8A2lu4/f6wj7ee0dWWLwgH/9p2YrXAgpF9v+kQH2k6qs7uLgmBBZISjWlG4TAHL3y+ZRuIjKs4pUGY4llKftzFGebFsNZbVKBoMc0NjTsWdhIwxKszMpRhIGQQAwCwZYyYMByQp7jiKJxIaHh15Y3uB9+eWsRSwbAVsWwE7oKAVkJ0MDXKjmSrMzldxVr4KklsMvB4FuSrKzFdRdp4yIlHZxpZteX+P/fLxdgN313XVer9D5+5cYUn1AhqJj+hYx3lde3BLzRV1FGQW6kuq9Mv17+m//+GfFE/EKQjm3cqiSv2f/u4flJ+Z4+s6uK4ry1jKSbGtS7Zl67PmXdpZt56fc5iH54X3NjuaQTGQMggAgDk01faCMXEnobiTkDs6LI071vzh8ye69rBTxpjkCgDvYRtbGeGosqIZyV4DUeVn5KgoGRYUZeWrKCtPWZEMZYRjiobCCgdCCgeCCgWCL0OCiV749I8M6tDVU+rue0bzvwVkWZauPbilI9fPqrFshYI+Pn1itoJ2QD9bu1t/Pn9IHY/vsA0AC3LPFWblqYAZvpRkJMVCEcVCEYoBACIAABbNZFsMXNfV6z3ORzU4OqQnL3om+DskK7nlIBaOKi+WpfzMXBVk5KgwM1fZ0UxlhKPKzchWUaa33SAa8rYlRENhdfU80tH281yMRbj2QyPDOnj1pD5ds0PVRRUUZRZWFJTrbzd+qP/uu/9Zo6wCwAIYayYLAECqIwAAUpgrKeEklHASGhwdUndfj9yHnX/VnyAWiigrkqGsSIYyIzFlhKLKisTUNzSg20/vM/u/CCzLUmtXh87eblNlQRmnL8xCOBjSJ2t26Pu24zp963JKnrwBAACwGAgAgDQxVfPC4fiohvt69Ljv6atwwHW9LQYMPBdN72C/fmg7ofcatyg/w9/7i2drecEyfdGyV21dNzQ4MkSIBQAAMANMmwA+YOQ1L7SMJduyZFteE0IG/4t8XYzR0fbzOn/nqhzXoSCzELQD2lW/QWsr6+WwPBsAAGBGCAAAYBE9H+zTV+cPanB0mGLMUnVhhT5v2aOcaCZ7tAEAAGaAAAAAFpHjujp87azaH3ZSjFmyLUvvNWxWS2XDuI4XAAAAmAwBAAAssp7BXu1rPSbHYRvAbFXml+qT5p3KiWbJEfUDAACYCgEAACyykfiofrxySje771GMt/DBqi1qrqiXzY80AACAKfFqCQAWnaubj+9qf+txlrK/hbKcIv1600fKimZQPQAAgCkQAADAIjMyejE8oB/ajuve04cUZLb1M0bvN27V5ppmWRwHCAAAMCkCAABYItof3dHpzjYK8Rayohn6u02fKBaKUAwAAIBJEAAAwBJgGUuPe7t18OpJ9Q32U5BZ189oc/Uavde4hWIAAABMIkAJAGCJMEbHOy7ofz76RzVX1CsjHFVmJKaMcFSxUEThQEihQFC2ZVOrCWRHs/TrTR/rxM2LetTbLSO2AwAAAIxHAAAAS4RlLHU9e6z/5/f/UbmxbGVFY8qKZCgrkuGFAeGYCrJyVZyVr5xo1ss/y45mKDPifWxmOCbj033wljFqqWzQ+41b9J+Of+XbOgAAAEyGAAAAlhBjjAZGhtQ/Mii3R96pAK53NoBlLIWDQUUCYYWDIUWCIUWCYUWCIWWEYyrIyFFeRo6yohnKi2UpL5aj/MwcFWTmKi8jR7nRTEWCYdmWJWOsV/PjJn3mynNimfpZ8y791H5Wt7sf0BQQAABgHAIAAFhijDHe8vUJxq6jibhG43H1DvVLcuW6kuRKMrItS5axFLBtBeyAQnZAQTuocCCoaCiizEhMhZm5KszKU3FWvgozc1WQlaf8jBxlhsdWG8QUCgRlGUvGMrKMJct4b1OidjJaX7Vaexo26T8e+0quy8GAAAAAYwgAACCFjAUDJvm7N0MCx3U0HHc0PDqisVaCXjzg/ccylmxjybJevbWMpWgwrLzMHBUmVwvkx7KVl5mj/Ixs5WfkqigrTwWZuYoEQwraAQXsgIJjDysgy1o6AUFWJKafNe/S0fbz6nh4e0l9bgAAAIuJAAAA0ow32Dev/z7JdV3F3YTkJF77f/qG+vWo76mumbFowST/CqOQHVBGOKZYOKLMcEz5GdleSJCZq8IMb4tBQVaecqKZyghFFQtHFA6GFQ2GFA68CgwWUktlo/bWb9Ldpw80mohzUwAAAIgAAAAwztiSea/3gPe+QSehwdFh6cXr7x9bXB+wbIUCQWVHMpQTy1JeLFs5sUyvUWE0Q9nRTBVm5Co/0+tPkBHyGhrGwhFFgxFlhKMKBYJz+nVkhKP6Yv17OnT9tDoe3hEHAgAAABAAAABmYXxvgrExteM6Ghwd1uDIkB70PpHrvt68MGDZioUiiiWPM8wIR70VBaGIFw5k5io/2bwwJ5qpnFiWcmPZyo1mKjuapaxITMFAcNZj+KZlK/V+4xbd7r7PKgAAAAARAAAA5sDYtoPJmhd6JxsMaaxx4VhAYMaaFlq2goGgoi9PNgh7jQvDMeXFslSQlaeCjBwVZOWqICNX+RnZyo1lK5Y8HjEWininG7zskWAUtAP6zeZPdaT9rK503fT+TQAAAB8jAAAAzDvz8qjBvw4IXNfVSGJUI/FRvRga0F+fbmBkW+OaDiYfAdtWRjimoqw8FWXlKS/m9SMozs5XfmaOijLzVZydp0/X7NS1B51KvNH3AAAAwG8IAAAAi2660w0STkJxJ67BkVfvGzvd4PrDToUDIUVDYWWEvaMOi7LzVJJVoLLcYt3recTsPwAAgAgAAAAp4s3tBWO/dF1XQ6PDGhodVk9/r+49fTiuT4GRK/dlc0MAAAA/IwAAAKSV108qYOAPAAAwxqIEAAAAAACkPwIAAAAAAAB8gAAAAAAAAAAfIAAAAAAAAMAHCAAAAAAAAPABAgAAAAAAAHyAAAAAAAAAAB8gAAAAAAAAwAcIAAAAAAAA8AECAAAAAAAAfIAAAAAAAAAAHyAAAAAAAADABwgAAAAAAADwgQAlAAAAmJjruoon4hpNxCmGpIBlyxiTUp+z4zpKOA4XD/PGtixZhnlVpAYCAAAAgEl0PX+s/8+hf1FGKCLXx3WIJ0aVHc3UL9a9p/K8kpT5vB3X0elbrdrfekzBQIgbGnN8fyVkJH3StFPNlfUUBCmBAAAAAGASD3u79f878qXv65BwHNWVLtfGFU0pFQAkHEcX713X//vgb5mhxZxzXVfhYEjL8koIAJAyCAAAAAAm4bquEm7C93VIOI4cx5GbgusgXNdVwknINX5ew4F5vbdc7i2kDqJQAAAAAAB8gAAAAAAAAAAfIAAAAAAAAMAHCAAAAAAAAPABAgAAAAAAAHyAAAAAAAAAAB8gAAAAAAAAwAcIAAAAAAAA8AECAAAAAAAAfIAAAAAAAAAAHyAAAAAAAADABwgAAAAAAADwAQIAAAAAAAB8gAAAAAAAAAAfIAAAAAAAAMAHCAAAAAAAAPABAgAAAAAAAHyAAAAAAAAAAB8gAAAAAAAAwAcIAAAAAAAA8AECAAAAAAAAfIAAAAAAAAAAHyAAAAAAAADABwgAAAAAAADwAQIAAAAAAAB8gAAAAAAAAAAfIAAAAAAAAMAHCAAAAAAAAPABAgAAAAAAAHyAAAAAAAAAAB8gAAAAAAAAwAcIAAAAAAAA8AECAAAAAAAAfIAAAAAAAAAAHyAAAAAAAADABwgAAAAAAADwAQIAAAAAAAB8gAAAAAAAAAAfIAAAAAAAAMAHCAAAAAAAAPABAgAAAAAAAHyAAAAAAAAAAB8gAAAAAAAAwAcIAAAAAAAA8AECAAAAAAAAfIAAAAAAAAAAHyAAAAAAAADABwgAAAAAAADwAQIAAAAAAAB8gAAAAAAAAAAfIAAAAAAAAMAHCAAAAAAAAPABAgAAAAAAAHyAAAAAAAAAAB8gAAAAAAAAwAcIAAAAAAAA8AECAAAAAAAAfIAAAAAAAAAAHyAAAAAAAADABwgAAAAAAADwAQIAAAAATMuVSxEAIMUFKAEAAMDEssIx1ZYsVzAQ9HUdhkZHVJiVp+xIRkp93sYYFWbmam1FvWLhKDc05tRoPC5jpJLsAoqBlEEAAAAAMIm6kir9d/+r/1oFWXk+r4QrI6OAnVovHQOWrS9a9uqz5l2SDDc05vx54d1nDKmQOrhbAQAAJmGMUSgQVNjnKwBSmW3Zsi2bQgCA6AEAAAAAAIAvEAAAAAAAAOADBAAAAAAAAPgAAQAAAAAAAD5AAAAAAAAAgA8QAAAAAAAA4AMEAAAAAAAA+AABAAAAAAAAPkAAAAAAAACADxAAAAAAAADgAwQAAAAAAAD4AAEAAAAAAAA+QAAAAAAAAIAPEAAAAAAAAOADBAAAAAAAAPgAAQAAAAAAAD5AAAAAAAAAgA8QAAAAAAAA4AMEAAAAAAAA+AABAAAAAAAAPkAAAAAAAACADxAAAAAAAADgAwQAAAAAAAD4AAEAAAAAAAA+QAAAAAAAAIAPEAAAAAAAAOADBAAAAAAAAPgAAQAAAAAAAD5AAAAAAAAAgA8QAAAAAAAA4AMEAAAAAAAA+AABAAAAAAAAPkAAAAAAAACADxAAAAAAAADgAwQAAAAAAAD4AAEAAAAAAAA+QAAAAAAAAIAPEAAAAAAAAOADBAAAAAAAAPgAAQAAAAAAAD5AAAAAAAAAgA8QAAAAAAAA4AMEAAAAAAAA+AABAAAAAAAAPkAAAAAAAACADxAAAAAAAADgAwQAAAAAAAD4AAEAAAAAAAA+QAAAAAAAAIAPEAAAAAAAAOADBAAAAAAAAPgAAQAAAAAAAD5AAAAAAAAAgA8QAAAAAAAA4AMEAAAAAAAA+AABAAAA///27iy5rus6A/APggD7BgABoiGITpSU10yC7xlAZsFRKIPIADKAyKmKKyk35T6yEzlSWVRs2bJaymoos0ce1j4+VxRxQYkUCdzzfVWrrnDPfeERJeD8WHstAIABEAAAAADAAAgAAAAAYAAEAAAAADAAAgAAAAAYAAEAAAAADIAAAAAAAAZAAAAAMMbU1JSbALCHmemjmT4y7UYcEkfdAgCAR3uwu5vbd+/kzr272c2uGwIwYipTuf/gfo4ISg8NAQAAwB7eufFe/ulf/zknZo9ld1cAADBqamoqt+/dzevvvqUL4JAQAAAA7OHDz2/kX37+PQ//AHuYmprK9JFpXQCHhAAAAGAPU1NTmZn24xIAk8EQQAAAABgAAQAAAAAMgAAAAAAABkAAAAAAAAMgAAAAAIABEAAAAADAAAgAAAAAYAAEAAAAADAAAgAAAAAYAAEAAAAADIAAAAAAAAZAAAAAAAADIAAAAACAARAAAAAAwAAIAAAAAGAABAAAAAAwAAIAAAAAGAABAAAAAAyAAAAAAAAGQAAAAAAAAyAAAAAAgAEQAAAAAMAACAAAAABgAAQAAAAAMAACAAAAABgAAQAAAAAMgAAAAAAABkAAAAAAAAMgAAAAAIABEAAAAADAAAgAAAAAYAAEAAAAADAAAgAAAAAYAAEAAAAADIAAAAAAAAZgUgOAI0mm/esFAACAMokBwG6SD5P8b5IPknyZ5IF/1QAAAAzZ0Qn8Mz1I8u9J3k+ykeRikktJtpIsJrmQZL6VLgEAAAAGYRIDgN0knyT5QaskmUk98F9IspBkKRUIrCZZSwUE6+39WX8tAAAAmDQTFwBcf+XVr3y9fe1qktxNdQS8P3JpOsnxJGeTnEsFBCtJriR5IclmKiBYSHK+fX5qpAAAAODQmMQOgK94OBBI/hYK3E9ys9WfRy4fS3IyFQ6cSIUCL6UCgY32upkKDWbaPZyJUAAAAIADbOIDgEcZEwokye1Wf/t4kp+kOgCmk5xKzRJYTbLT6koqHJhv10+kgoRB3l8AAAAOHg+ozT6hwL1WSW0V+DDJb1PDBrv7OJdkOzVbYCPVObCZmjFwJnXU4GwqHAAAAOBgmfjj3gKAMR4VCozYbZXta1fvpJ8x8OORzywkWU5tIlhKBQM77Z8X2/vLqa4BAAAAnp+jSY5M+h+QJzSme+DjVv8zculkan7AQmorwWr6roH11EaCpdTgQRsJAOD5ei/J91IdgOb9AEyu6dT/899K3/09cXwje4ZGjhQ87GjqeEB3VGAu1SmwlQoF1lPHCZZTocBUKpma6HQKAA6Anyb5xyQfuBUAE20qNSj+yyT3rr/y6u4k/iF1ADxDYzoF7iW50arzw9Qgwdn2upiaJ3ApNWvgxdR2gqXUxoLZ1DaCbl0hAPDk7iX5pBUAHGoeFA+gMZ0C3W/+u40Ep1OhwE6SF9prFxKcTw0cPNledQsAwDf3oyT/cP2VV993KwA47HQAHEAPdwqMBAK7qbaU++3rv6Y2Erw28vGTqQBgNRUGXE4FA5dTswfmUvMHzkcABAAAMBgCgENgn20ESdtGkCTb167eTPJGq87x1GyBbujgemro4OX29UrqKMHZVIAAAADAhBEATJg9ugdutfogyesjl8+m30YwnxoyeCXVQbCWvovgbHQLAAAAHGoCgAk3ZvBgknzW6u2RyydbnU49+K+lP0pwJf1xgjOpoYPdNgIBAQAAwAEmABigvY4UtGDgy1Yftbd/3f6ezKS2EZxIdQtsJ3k5FQpcTh0juJivbiTw9wsAAOCA8Ftb9jRmG0HS/+a/20iwkGQr/WyBzdRmgsVUN8GZ9jrrzgJwiNgCAMDE8Bta9rRPp8CDVvfa218meWfkYzOprQMLqUDgcvqAYC0VDMynHzxoTSEAAMB3SADAN/YYWwmyfe3q3dQxgo/y1Y0Es6njAiupoYNLqa0EO6kjBIvt9UKEAgAAAE+NAIDvxJjhg3eS/L5VZybJXKpj4FwqANhIbSNYT3+k4GIqQHB0BQAA4BsSAPDMjAkF7qZWFH4wculIaqDgqVbnUoHAS6nZAlupNYUX27VuHoGNBAAAAI8gAOC5GhMKPEi/keDDdum1JP+WfsvA8fTDBrs5AzupcOB0amtBV0IBAABg0AQAHDhjQoGkjhDcGbn0XpKfpP/N/+nUXIHl1KrC7dSqws0k51PbCM6k1hn6+w8AAAyGByAOhTGDB3dbPUiS7WtXP0nySWrw4H+0z0ynhguuj9RqqlNgJTV/oKsT7jYAADCJBABMlD26B+6nOgXeS/KzkUsLrS6kAoLNVoupgOBSez3lzgIAAIedAICJN+ZIwcet3hy5dCJ1jKDrCOiOEmylNhNspgKCuXx1I4EZAwAAwIEmAGCQHg4FRmYM/LXVhyOXZ5KcHKmF1ODBjVZbrS62/6a6OuJOAwAAB4UAALL3jIGRNYWftkqSt5L8Iv2D/mzqGMFqkrUkLyZ5OdU5sJQKDU6kthHMuNsAAMDzIACAMcYcH7jf6naSm6nBg79LHQWYSg0ePJWaI7CVvmNgNTWEcC79RoLT7jQAAPBdEwDAN/QYGwm6wYN3UsHAb0Y+cyo1V2Al/aDBnfb1QqpjYCkVEJgrAAAAPDUCAPgOjDlScDN1hOCtkbePpboALqTmCKykgoHNVNfApVQocD42EgAAAN+SAACeoT2GD95u9XGSN0Yun0l1ApxPcjY1X2AnFQxcarXePpf0xw90DgAAAF8jAIDnaMyMgST5vNUfRi4fTz9Q8GzqGMFqkiupcOCFJJdTocBM+298OjYSAADA4AkA4IDZJxS41SpJ3kvyZuoBv9tIcCzJfCoQeDk1gHA91T2wnD48OB4bCQAAYFAEAHAI7BMKPLyR4EZqxsCr6TcSLKXmCXRhwGaqY+BC6ojBuVbH3G0AAJhMAgA4pMZsI0i+vpHgj60606kjBAupQOBS6ujAZiokWEqymAoHzsRcAQAAOPQEADDh9ugeuJ9aUfhJkt+NXDqW/uH/Qqtu8OBy+hWGS6kQAQAAOCQEADBAY44U3E7yTqvObKoL4HR7XUzNFlhNBQPbrZZScwWmUkMHdQ0AAMABIgAAkowNBe6kVhR+PHLpP1MP+8dbnUsdIXgxtYlgJxUQLKeOGhwdKcEAAAA8BwIAYE8PhwKPGDz48EaC76dfPXgy1SmwkX6+wJXUjIFT7Xr3CgAAfMcEAMBj22vwYAsGdpPca5XURoIPk/ysfX0kdYRgIdUZsJHqFNhJDSHsNhLMpUIB/38CAICnyA/YwBN7jI0E3eDBv7R6K8kP2/Xp1MP/6kitpIKB5XZtqb0ed7cBAODbEQAAz8SYGQP3k7zf6lcjl+dSHQHzqYf/jdTxgeX0RwpWU8MJAQCAfQgAgOdmnyMF3ZrCt9vbU6k1hSdTgwXPpToDdkZqo703l9pe0G0jOOJuAwAwdAIA4MDZY/jgbmro4K0kN0Yufz8VDBxvr4upMGAr/RDCnVQXwexITbvTAAAMiQAAOPDGHB9I+sGDN9vX7yb5Teq3/tOph/3FVhvpVxVup0KBs6ljBCfaZwEAYCIJAIBDaZ9Q4EGre0luJ/k8yfUkP0l/JOB0krVUELCZGjy43mohdcTgfCogAACAQ08AAEyMfbYRdHbbRoJPW70+cu1UqlNgub2upt9GsDLyOp8KEgAA4NAQAACDM6Z74Gar/xu5NJsKBhZSD/6LqS6Bbs7A5fbefJIzEQwAAHBACQAAMjYUuNPqk4cun0498J9OBQSXk7zUXtfb60Zqa0E3j6DbSgAAAM+cAABgD/vMGfiiVee1JK8mmWl1LnVcYC3VLXCl1XpqrkC3jWAm1hQCAPAMCAAAvoExocBuauDg7fb2J0l+n37o4JHUA/9SahNBt6bwUvpjBKdGasbdBgDgaRIAADyhMcMHd1s9SJLta1fvpLoGro98ZibJxVSnwEpq8OBWqmtgvtWFVkIBAAC+NQEAwDOyR/fA3SR/bNWZTs0XmEuFAyupLoGuY6ALCuZTMwgcIQAAYF8CAIDn6OFQoB0nuJ/kL63eHrl8PPXQfz59Z8ALSTZToUB3nOBCKkRIDB0EAKARAAAcIHsdJ2jBwK0k77bqzKY2DRxPzQ7oBg+uJ9lOP3xwrn12Ov1GAgAABkQAAHAIPMaaws5bqYf7o6mZAcdSWwc2Ut0CL6bmC6ymwoLT7TOz7RUAgAklAAA4pPY4PpDU0MEuGLiZ5EZqI8EP0m8lOJs6LrDeXjdSnQKrqVDgXKuT7jQAwGQQAABMiDHbCJLaRnC/+2L72tWPknyU5Jftral8dfBgN3RwMzVbYKnVfKwpBAA4lAQAAAP0iO6B3SSftfp9kp+2S0eSLKTfRrCYmjGwlf4YwcVWx91ZAICDSwAAwLgZAw+SfNjqv9ulI6lugbOpYwJzqSMEq6nOge30AcHJ9vluG4GtBAAAz4kAAIBH2icU+LTVO+3SD1LHAk6kHvrPpI4M7CR5KTV8cC3VKbAQGwkAAJ45AQAAj21MKLCbfvDgp0n+nOTNJD9OBQNdraS6A7ZTXQObqe0Ec6kjBCdaTbvbAABPlwAAgCcyJhRIavDg/SS32tc3kryeOgowlXroX0jNFthMBQPb7Z8vJjmfOmZwKtYUAgA8EQEAAE/dY2wk2E2S7WtXb6ZWFf4hyS9GPnMmtX3gcurowHKqY+BykgupbQQLqXAAAIDHIAAA4LkZ0z3weZLftuqcEXG9vAAABdxJREFUTD38L7RaTXUKrLV/vtRqPuYKAAB8jQAAgANlTCjwZapT4A8jl2ZSxwO6jQQLqU6BK6lZA5upowSLqQBh6qECABgMAQAAB97DocDIjIG7Sf7SqjOVfpjg8dRxgu3URoLLqYBgJ8l6u3601Yw7DQBMMgEAAIfOXjMGRjYSfNmq80bqe163evB8aq7AWioMeCG1rnAtFRh06wxn4zgBADAhBAAATIx91hTebZXU4ME/Jfll+qMAx1OhQHd0YCP9IMLFVDBwLnXcwPdPAODQ8QMMABPtG2wk+DLJ9VadmdTD/3KSpdSwwZ1UMHAhNV9gub36ngoAHGh+WAGA7Nk9cDfJu60606nBg+dTIcBSKhDYSnULdKsL51PdAtPuLgBwEAgAAGAPewwfvJ/ks1ajGwmOpx74z6aOC1xMzRbYSA0c3EiFAwupuQJd2UYAADwTAgAAeExjZgwkya1WH4xcnklyLDVM8GTquMBqKhB4qdVWkrmRz3XDCgEAnioBAAA8gX1CgdHBgzeS/DH9b/6nUwHBudTQwZ0kL6Y/QrCW5HQqOOhWGgIAfGsCAAB4yvYJBR60upfkdpIvUhsJfjTy8fnUXIG19JsIrqTmDcy163OpgAAA4LEIAADgGdhnG0HSthEkyfa1qx8n+TjJayPXT6e6BZZTocBq+rkCa0lWUsHAmdRRAgCArxAAAMABs8fwwS/Sdwv8ol06knrov9BqLjVfYKe9rqaCgZXUMQIAYMAEAABwwI05UvAgyUetOkdSawq7mk+FAWupYGC71VoqFJhOv43ARgIAmGACAAA4hPYJBT5vlSRvJfl56nt+t2ngVGqewN+lNhF0gcByqpNgNjWgcDYVDgAAE0AAAAATYkwosJuvbyR4J8l/pd9KcCx1VGA7NVfgcvpugfOp0OB0K2sKAeAQEgAAwATbZyPB/VZJbST4LMkbIx89kZorcDEVCKynAoHNVLfAfPrBg9YUAsABJwAAgIF5jI0ESZLta1f/muSvSd5N8quRS2fTDxe8mDpO8EIqJFhMHSO4mOocAAAOCAEAAPBIY7oHPsvXuwVOpR74z7W6lOoUWEkFAxtJttpnuqGDAMAzJAAAAB7bmFDgZqs/jVyaSR0N6OYHLKSOELyQ2kiwlQoILiQ5mX4egRkDAPAdEAAAAE/k4VBgZMZAN3iw20jwuyQ/S20X6DYNnE8FAVvpBw9eSbKaGkzY1aw7DQBPRgAAADxVe80YGFlTeKtVknyc5Hr6YwFHU4MHF1OrCbeSvJjqGlhJHS840+pYrCkEgMcmAAAAnokxwwd307YRbF+7ei/Jn1v9euQzx1MBwHqqU+BS+oBgIf1GgvPx8w0APJJvkADAgTFmxsCtJG+36syk5gcspDoGllOBwFpqC8GlVGCw2D4LAIMmAAAADrQxRwrupu8W6EwnOZFaVTifCghWUrMFNtvrpdQxg/Pt891GApsJAJhoAgAA4FDaY/jg/SRftHp35PKx1DaCU6mAYCU1bHDzoTqX+vloeuRVMADARBAAAAATYczxgSS53epG+/rNJD9M/Sw0kwoGllJHB7aTvJzk71NrDe+5uwBMAok2ADAoI6HAo0y16lYUHk3y3vVXXr3vzgFw2AkAAAAe8nBIMGaDAQAAAAAAAAAAAAAAAAAAAAAAAAAAAAAAAAAAAAAAAAAAAAAAAAAAAAAAAAAAAAAAAAAAAAAAAAAAAAAAAAAAAAAAAAAAAAAAAAAAAAAAAAAAAAAAAAAAAAAAAAAAAAAAAAAAAAAAAAAAAAAAAAAAAAAAAAAAAAAAAAAAAAAAAAAAAAAAAAAAAAAAAAAAAAAAAAAAAAAAAAAAAAAAAAAAAAAAAAAAAAAAAAAAAAAAAAAAAAAAAAAAAAAAAAAAAAAAAAAAAAAAAAAAAAAAAAAAAAAAAAAAAAAAAAAAAAAAAAAAAAAAAAAAAAAAAAAAAAAAAAAAAAAAAAAAAAAAAAAAAAAAAAAAAAAAAAAAABxk/w/f2avCtI4t7wAAACV0RVh0ZGF0ZTpjcmVhdGUAMjAxMy0wNC0xMVQwNTowOToyOS0wNzowMP6upGwAAAAldEVYdGRhdGU6bW9kaWZ5ADIwMTMtMDQtMTFUMDU6MDk6MjktMDc6MDCP8xzQAAAAAElFTkSuQmCC;" vertex="1" parent="28">
                    <mxGeometry x="44.5" y="145" width="85" height="85" as="geometry"/>
                </mxCell>
                <mxCell id="51" value="Commercial Information" style="text;html=1;align=center;verticalAlign=middle;resizable=0;points=[];autosize=1;strokeColor=none;fillColor=none;fontSize=20;fontStyle=1" vertex="1" parent="52">
                    <mxGeometry width="250" height="40" as="geometry"/>
                </mxCell>
                <mxCell id="54" value="" style="group" vertex="1" connectable="0" parent="1">
                    <mxGeometry x="520.0043243243243" y="924.3789473684209" width="205.614065186468" height="155.621052631579" as="geometry"/>
                </mxCell>
                <mxCell id="41" value="" style="group" vertex="1" connectable="0" parent="54">
                    <mxGeometry width="205.614065186468" height="115.61784897025166" as="geometry"/>
                </mxCell>
                <mxCell id="7" value="" style="shape=image;verticalLabelPosition=bottom;labelBackgroundColor=default;verticalAlign=top;aspect=fixed;imageAspect=0;image=data:image/svg+xml,PHN2ZyB4bWxucz0iaHR0cDovL3d3dy53My5vcmcvMjAwMC9zdmciIHByZXNlcnZlQXNwZWN0UmF0aW89InhNaWRZTWlkIG1lZXQiIHZpZXdCb3g9IjAuMTc2MDIwMjQ5NzI0Mzg4MTIgMC40NTkwMjU1OTE2MTE4NjIyIDUxMS42NDc5NDkyMTg3NSA1MTEuMzY0OTU5NzE2Nzk2OSIgaGVpZ2h0PSI1MTEuMzY0OTU5NzE2Nzk2OSIgd2lkdGg9IjUxMS42NDc5NDkyMTg3NSIgdmVyc2lvbj0iMS4wIj4KPG1ldGFkYXRhPgpDcmVhdGVkIGJ5IHBvdHJhY2UgMS4xMSwgd3JpdHRlbiBieSBQZXRlciBTZWxpbmdlciAyMDAxLTIwMTMKPC9tZXRhZGF0YT4KPGcgc3Ryb2tlPSJub25lIiBmaWxsPSIjMDAwMDAwIiB0cmFuc2Zvcm09InRyYW5zbGF0ZSgwLjAwMDAwMCw1MTIuMDAwMDAwKSBzY2FsZSgwLjEwMDAwMCwtMC4xMDAwMDApIj4KPHBhdGggZD0iTTIzMTAgNTEwOSBjLTUwMiAtNTUgLTk3NCAtMjQ5IC0xMzU1IC01NTYgLTEyOSAtMTA0IC0zNDAgLTMyMSAtNDMzIC00NDUgLTI2NSAtMzU0IC00MzQgLTc1OCAtNDk4IC0xMTkzIC0yMiAtMTQ3IC0yOSAtNDI4IC0xNSAtNTc1IDQyIC00MzMgMTgwIC04MzMgNDA1IC0xMTc0IDQxNCAtNjI5IDEwNDcgLTEwMzIgMTc5MSAtMTE0MiAxNDcgLTIyIDQyOCAtMjkgNTc1IC0xNSA0MzMgNDIgODMzIDE4MCAxMTc0IDQwNSA2MjkgNDE0IDEwMzIgMTA0NyAxMTQyIDE3OTEgMjIgMTQ3IDI5IDQyOCAxNSA1NzUgLTUxIDUyNCAtMjM4IDk4OCAtNTU4IDEzODUgLTEwNCAxMjkgLTMyMSAzNDAgLTQ0NSA0MzMgLTM1NCAyNjUgLTc1NSA0MzIgLTExOTMgNDk4IC0xMjEgMTggLTQ4NyAyNiAtNjA1IDEzeiBtOTA5IC0yMzQ4IGMzNDcgLTYwNyA2MzEgLTExMDUgNjMxIC0xMTA3IDAgLTIgLTU2OSAtNCAtMTI2NSAtNCAtNjk2IDAgLTEyNjUgMiAtMTI2NSA1IDAgOCAxMjYzIDIyMTYgMTI2NiAyMjEyIDEgLTEgMjg3IC00OTkgNjMzIC0xMTA2eiIvPgo8L2c+Cjwvc3ZnPg==;" parent="41" vertex="1">
                    <mxGeometry width="115.84908466819223" height="115.61784897025173" as="geometry"/>
                </mxCell>
                <mxCell id="6" value="" style="shape=image;verticalLabelPosition=bottom;labelBackgroundColor=default;verticalAlign=top;aspect=fixed;imageAspect=0;image=data:image/svg+xml,PHN2ZyB4bWxucz0iaHR0cDovL3d3dy53My5vcmcvMjAwMC9zdmciIGZpbGw9Im5vbmUiIHZpZXdCb3g9IjAgMCAxMDAgMTAwIiBoZWlnaHQ9IjEwMCIgd2lkdGg9IjEwMCI+PG1hc2sgaGVpZ2h0PSIxMDAiIHdpZHRoPSIxMDAiIHk9IjAiIHg9IjAiIG1hc2tVbml0cz0idXNlclNwYWNlT25Vc2UiIHN0eWxlPSJtYXNrLXR5cGU6YWxwaGEiIGlkPSJhIj48Y2lyY2xlIHN0eWxlPSJmaWxsOmJsYWNrO2ZpbGwtb3BhY2l0eToxOyIgZmlsbD0iYmxhY2siIHI9IjUwIiBjeT0iNTAiIGN4PSI1MCIvPjwvbWFzaz48ZyBtYXNrPSJ1cmwoI2EpIj48Y2lyY2xlIHN0cm9rZS13aWR0aD0iMy4zMyIgc3R5bGU9ImZpbGw6YmxhY2s7ZmlsbC1vcGFjaXR5OjE7c3Ryb2tlOmJsYWNrO3N0cm9rZS1vcGFjaXR5OjE7IiBzdHJva2U9ImJsYWNrIiBmaWxsPSJibGFjayIgcj0iNDguMzM1IiBjeT0iNTAiIGN4PSI1MCIvPjxwYXRoIHN0eWxlPSIiIGZpbGw9InVybCgjYikiIGQ9Ik04My4wNiA4Ny41MTEzTDM4LjQxMjIgMzBIMzBWNjkuOTgzM0gzNi43Mjk4VjM4LjU0NjRMNzcuNzc3MyA5MS41ODA2Qzc5LjYyOTMgOTAuMzQwOSA4MS4zOTQgODguOTgwOCA4My4wNiA4Ny41MTEzWiIvPjxyZWN0IHN0eWxlPSIiIGZpbGw9InVybCgjYykiIGhlaWdodD0iNDAiIHdpZHRoPSI2LjY2NjY3IiB5PSIzMCIgeD0iNjMuODg4OSIvPjwvZz48ZGVmcz48bGluZWFyR3JhZGllbnQgZ3JhZGllbnRVbml0cz0idXNlclNwYWNlT25Vc2UiIHkyPSI4OS4xNjY3IiB4Mj0iODAuMjc3OCIgeTE9IjY0LjcyMjIiIHgxPSI2MC41NTU2IiBpZD0iYiI+PHN0b3Agc3R5bGU9InN0b3AtY29sb3I6d2hpdGU7c3RvcC1vcGFjaXR5OjE7IiBzdG9wLWNvbG9yPSJ3aGl0ZSIvPjxzdG9wIHN0eWxlPSJzdG9wLWNvbG9yOm5vbmU7c3RvcC1vcGFjaXR5OjA7IiBzdG9wLW9wYWNpdHk9IjAiIHN0b3AtY29sb3I9IndoaXRlIiBvZmZzZXQ9IjEiLz48L2xpbmVhckdyYWRpZW50PjxsaW5lYXJHcmFkaWVudCBncmFkaWVudFVuaXRzPSJ1c2VyU3BhY2VPblVzZSIgeTI9IjU5LjM3NTEiIHgyPSI2Ny4xMTA2IiB5MT0iMzAiIHgxPSI2Ny4yMjIyIiBpZD0iYyI+PHN0b3Agc3R5bGU9InN0b3AtY29sb3I6d2hpdGU7c3RvcC1vcGFjaXR5OjE7IiBzdG9wLWNvbG9yPSJ3aGl0ZSIvPjxzdG9wIHN0eWxlPSJzdG9wLWNvbG9yOm5vbmU7c3RvcC1vcGFjaXR5OjA7IiBzdG9wLW9wYWNpdHk9IjAiIHN0b3AtY29sb3I9IndoaXRlIiBvZmZzZXQ9IjEiLz48L2xpbmVhckdyYWRpZW50PjwvZGVmcz48L3N2Zz4=;" parent="41" vertex="1">
                    <mxGeometry x="89.99621621621623" width="115.61784897025173" height="115.61784897025173" as="geometry"/>
                </mxCell>
                <mxCell id="53" value="&lt;b&gt;Head&lt;/b&gt;" style="text;html=1;align=center;verticalAlign=middle;resizable=0;points=[];autosize=1;strokeColor=none;fillColor=none;fontSize=20;" vertex="1" parent="54">
                    <mxGeometry x="67.80567567567562" y="115.621052631579" width="70" height="40" as="geometry"/>
                </mxCell>
                <mxCell id="57" value="AspHead" style="shape=image;verticalLabelPosition=bottom;labelBackgroundColor=default;verticalAlign=top;aspect=fixed;imageAspect=0;image=data:image/png,iVBORw0KGgoAAAANSUhEUgAAAMgAAADICAYAAACtWK6eAAA690lEQVR4nOydB3hT9frH35zs1aZ7JR2UmRRBhrQgtKBIFdHLhRQHQxlyFeVewHuvevE2uO51FfVSJ0tAkQRFUAQctMyWvZoypDPdI0mbZq//c1LLv0DXGZnl8zw8KO05OUnO97zj9/7el+Z0OuEO7kNndqTWt9lETXo71LXZoElvlxpsDmjW28Fkc0Kb2dHtsUwqAnwWxfXfIRwqRHCoyhA2tTiSS4NQDgLRPJqKw0AKPfh2+h2UOwIhj9+bLNmHygxQVG/OuFRnyrhYZ4Emg82tr5koYEBKNAMkkcz8kTGs/HtELBgQyljj1hftR9wRCA7q22zS8zVmOF9rkirrzXC5ySy92mABnaV7a+BJBCwExFFMGBrOVKREt/89IoYJsUE0hbevzd+4I5A+cr3Zkv35Ka10t7JNcq3Z7O3LwYU4kgl/EvOVC8cEr0kOZdwRSx+4I5BuKFVbpL+WGKSHSvXC4xWmtHKtxduXRCoJAjqkxbMLJiVxq6YN4igG3BFMl9wRSCeMVkf6+tMty744qZVeqjd5+3I8yug4NiwZE6yYe3dwLpeBHPL29fgK/V4gOrNdvO+aftHX51ukB37Xi0y2/v15MKgUuC+Zq3pqdLDi4aG8DRw6Uuzta/Im/VYgzQZb+tuH1Ln/K9BITDbfCK59DRYNgWWpAuWqiWGKGD6tX2bG+pVAjFaH8IcrbYu+OteyaN81vcjq6D/vnQgIBeCBgTzVglHBG2YM423gMpAqb1+Tp+gXAinXWKUbT2tXfHJCk9ZksHv7cvyaUDYV/jIupODpUcFrB4YHfmAf0AJBg+6XDzTmfnhcLfH2tQQiC+4WKNc+HLkshE0N2KA+IAWCWozcQvWK9ae0aVrTnfjCnXDoCCwZKyhYPj507YBQesBZlIASiN0B6W/kN+W+9luTxBFA78tfWHlvqPKtByKWMWmBkyYOCIFY7SD84pRmxbtH1CvLNb65oMekUiAumAbCYDpEcKgFCAWq2HQEeAzE9fNwLvWm328zO6Aj5YzGTa1me6rW5BCp9XZo0NtBa/LNWCqCS4OXJoUpXhgfupJOBb8P5v1eIM0GW/qc7TX5v5XovX0pLmgIwPAoFoxPYCmHRrAUyaF0GBrJhKQQOqlp0haTPb2ozpxxoc4MRQ0m6dkqs+RCnQl8ZR0nPYkD2x+Ly4jh0/zamvitQPQWhzjnqFr27uFmqbeKBCO5NLgrhgHDItqLAoeFMxWj4lgqrpdK0E02p/BSnTmtuMEkvtxgkVyqN4tPqIySZi9l7tg0BJaPDyn4Z3rY4hA21S8XHP1OIHYHiNcVqmWyXxulng7AB4UxYFISVzEhgaWamMgpHBjm+2lOJ4Dw92ZL2kmVMfVkpUl0pMIgPV/r2TIa1I18dUq4YsWEUBmdSvErofiVQCq1Vumfv6qSn6n23BeMUCgwJo4N6x6Jko0VsgJiNflcjTn705Mamfxiq0djGUkUC3bPjctK9oMHSwd+IRA0CN94Rpvz718bpA1tnvtCEaCAA5yuuGLnE0LFo2J+lsde3AMYrQ7h8Qpj2p7LuhXfX25Lq9Ra3f6aYRwqrM4IVywdJ1jJpvv+irzPC8ThBPET31TLd1xqdftiHwUo4ISuPw8BC4GrK5MlkTyaX7kIWNh3tS37zfxm2bEKg9tf6/6BPNi7QChh+LjL5dMCKVdbpc/tqXt/37U2kbteg9Lup/eJ+wdyVXvmCTPZAV7hWlRnXrH2uFoqv9ia1ubGBEh6Eke1fmbMKl8uWfFZgRwpN2RnblLJDFb3fUE9WYzumD6ED7vnCSVUBAJaJNCeKUx//bem3LXH1RKL3T33CYNKgW+fFMoeHsrzyfiOKpPJvH0NN2FzgPCTQs36Rd/VLnPH0yuCS4NFY4ILihssIjxf+u/NFjDbnJH3D+T67FOPLBhUSsX9g7gfL0sLKRawqHCl0SzR9dCFBQ/oV7BLqcvQW5zS8QnsPXQqpZXUFyCIz1mQJbtqi9af0rol3nh1coTy1Snhy+hUOLThdEve4u9qMvCe6/OZsflLxgZPJvcKfRurHdLfyGvKff1go8Qdd82fhvGVO58ULqMi4DOLiz4jEJXWKl30bZ38l5I20s99fzIPVk8JW5mexFnb+d+nbaqs/Pl3Pa74BqEAbJ8Tp8i6KyigMlt94VyNacU7h5sXfVvUKiHbA54Qz4EvpTE+kwr2CYEo683SBzer5KoW8tKM6A380BCe8l8Z4RtS49lru/qdErVFOmZdmRzvgiOLRoFPHo2RPzU6eA7R6/VHlA1m6X/ymrIVRTpSY5RwDhV2zxNljU9ge10kXhdImdqSfu/nFfk1reQ1WAtlU2FLVqxi+hBer0/3vVf0eQ9vqcTtaqHsmiuS/Unsm0GmJzhSbsx+bHu1rEZH3gOOx0Agf3FC/mghy6turFcFcuBa2/uPfVO9kqySEdRqLE8LLXhtavhiPrPvtT8Ld9ZUbjrbgjuVHMF1PfFkafHsfisSg9Uhfv23pvXvHW1OI2uLP5uGwFdz4hQzJb0/6NyF1wRypsqUl7G+IoOsTJUwmA67noyTjRFiv0kb9XZxwtvXlUYC3yyLhsDpZYkySRSz34oE2tdQsh/dppKVqsmxJqgb+/1cUf60wVyvWBLEGy+6/2qbnExx3JfMVZ16LjENjzig3QIU//u+cEL+rsnmgDnbq2Uao11I5Dz+Tko0c82JZ5PSZkn4KjLOZ7I5YcYWVca2cy1yMs6HFY9bEDItBwUAXkoPz399asQyogt3dgeIJ3xWoTyhIlZm8fiIIOXXc+JSCJ0kQHjvSHPeP/c3ZJDRPAZ1n+WPC/NnpfA9akk8akF+vqZ/nyxxRPFoqN+f89a0iMlkrGqj59gzL06SFEIndJ7tF1olL/xQX2SxO/u1JUF5cWLY5L3z43NQ95coqMge/6Y649sinUcticcsSJnakj56XXm+hoTy6hHRTMhbkpDhjm4a3xa1Zs/+uppweUH2lHCl7P4Iv7UkLSa7tMlgF1dqrKBqsblu0KpWK9i6MQfhHJor8yQMprlmmQwIoReHsKkut1VvcaQ/uEmVf4SEIkj0NY4uTZSNiPFMrOcRgVyoNUmnbVLJ69uIpXJRl+rJkUHKtdOjF4dzqW7ZtecEEK7c27D/g2PNhFbz6QjA2ukxymVpAp8USY3OJi1pskCpxiIuabZKSjVWqNPZpDWtVqhutUErCSUlbBri2msfG0QDAQtRHSozisjoYilgIfDTU/FZafHuXydxu0BK1RbphE8r5HUExYE+OTbMilFkDffMyvXib2srN5zREq4ifnVyuOK1qRFeS1PaHCC82mhOO1llSi2qN4su1BlTz1abRRqjd7bh0pH2iVlEu1qGsKlwZGlCliSS6VaRuF0g962vdB4sJdZQIZRDhUOLE2Qp0Z5LoerMdvHwD8uUFSRsIvr40Zj8Z8cJPBZc2h2Qvu9aW4aiSCfbd6UNGt085QorLBoCdqcTrARX38fEsaHw2cQMd9ZuuU0gVjsIn91du3/DaWKFh5E8KuxdIMoaE+f5soOSZuvsSZ+XK2p0xF3DjbNiFE+NFrjNkijrzdK8Un3qT1fbpEfKjSJ37uMgAyqlfScO0QqV2SlByq1ZsZksGsUtuxPdJpAPjqrlK36qlxI5Bw2hwOFn4mVp8RyvLb59X6zLnrmtinDQzqBS4OLyAbIhEeTNDzRYHWL5RZ30o+Nq2TkPN2IgAwZCcQnETvAefP3+COXqKeFuifXcIpCDJYbsR7eqZESeYrF8Gux8Ms6r4ugg54i66O/76yVE8/mSSCbsf0okFQroO/Gew2xzCr8v1q3YWaSb9luJXuKtWIIsaBQEvQu7zY71BRaNAvLHhbIZw8ivhyNdIFVaq3TI2lI5kZ2ACIUCBxeLZOlJXK+Lo4Nnd9cVfXpCQ3ifSjSPBudeSJJE87HtbUetxebTrbnvHGnKICMu8iVQTwH1uIjEJOg5zj6fJBtOcpxKqkAcThDP2KLa/9NV/HvIKa6biAE1ryRTSLswEmgx2YUTPq1QKRuID/BMFbFVPz0lyuxLM7UTKuOKLWdbFskvtUoCeXQDHUHA4XQScrfuTWCrfluckElmIwjSBIIG5XPl1fvlBLqP0JD2hYhpQ3jw43yRTwkE/khZT15fKSejPU5cEB32Py3MSoli3ZZ8qNXZpJvPtEi/PKuVXm3yzV7D7oBOpQB6OxJxtx4czFPumivMZJIUtJNWarL+lDaHqDgQCgI2J8DQcCZZl0UqA0IZisNLEjKCmMQ/tupWK8zaVi3Xme3pHf9md4A4+9emovi3r8tf+bmhX4kDoN3FQl2ljrUSPOy71ib5pFCbQ9Y1kSKQ6hbb7NcONhLKWFGAAhZ7e9wiDKb7VieJTiSE0A9t+HOsgsB3eINrzRYY8VF5/qFSw4p1BRr5iI9Kla8dbJQQeYL6Oyabw1WYSOTjfT2vUXq5wTKbjOsh7GKhccf4T4lVwd7afmfHY3GyrLuCfCZA74rcQk3e83vqCO1EvBksHboCHzYNASL7c4ZEMOHi8iTCjekIW5BPCjUyIuJoN6c33xi3zsrwRZalhkz+58QwEhcv74iDSgGI4NAAdWGtdodrxR0vVxvN8MExNWFPhEbkYL3FIX71F/yuFUKhdFmTw6T5XHzeJW9lRsoqW2zS7RdbvH0pPo8oiA7DY5jok105IISuEAXTISmUBnwmFRIEdNRlve1J39BmSx+dW55fhbOZx5t5TdKl9wjEwSz8oxcICWTtUfV6vOXrFNefrp+aHIbvWxBo38RT/KU0RmKyOfbvKta5rT2qv8CmUUASxQRxJLNgeDSzakg4QzEglAGJIXQll4G9XWskj3Zo06yYlQ9urszB4221mh3wRl7T+ncfjBqP/eh2cMcgGqM9PfGd6/l4y6JpCAI2R9fHnn1hgOxuD9X7k4HObBeP+6RSebnB/8o9iIA+5EbFsuGhoTxF5mCuckwcS+GOZtTvHVHn/X1fPa54j0WjwJWVybIEAb4JX7gEYneAcMYWlWrfNXxN3qgUSo8LQv4mEHCNgrOLMzdV7j9dbQpYS4KGi2PiWDB1IFdxj4ijTBWxDkTyaG6fpuVwgvjRrVX7f7yCz0qPj+dA3pJ4EYOKfW0El4v12UnNCrziYFApvS4EtZpsaCSC6/zeIoxDLf5xvmjV+E/L5aWawCgFcVmIOBZMSeYqJg/gFKQncQ5wvNDZHnVlN86Kybr3M3PBNRxrQ8crDfDhMU3O3yeFYq6mxpwmsDsg/b0jzSuxHgd/ZKwmJHCgtzS/1uDbpdrdEcWnKdY9Ei2jEMriex8OHYHVkyOU1S8Pkp1elkR5JzMy68HBvLXeEEcHEVxq4d4FIhneRcS3DzdJ9RZHOtbjMAvknSPNuWU4n5Cr7g0rKOlDv6R6vX/WHJWqrdJXfm5chHWkgi8QwaHBU6OCCxSPx8mqXx6Y9vrU8JQYPs2n3NyBYYw16D2E59hmgx1W7W3IxXocJoGoWqzS1T834ionEQbTYWmq4ECltncTWdViI3EBzjOcrjJmo+7V+Vr/ikEGhjHgy9mxiobVgyibZseOnz08aI2A5Z79/mTwyuTQxdE8fMnXz05pJOdrTJiWJTAJZF2BZoUDR1CPxh07HouT1bXa+mSiK1qsfiMQi90pfvWXRnnap+Uyok0peocc1y2KR4OlY0OUvy1OWPn7qmTK/FHBftOhns+kFu+eJ5SxcK6V5RZqVmD5/T4LxGxzpH9SqEnDc1GPjwhSjk9grynTWMR9+X1/2e9Q1WKVjsktV76R1yQlqx9tzzgJiYSGUOCfE8OUFf8YKPl0ZnTKlAGcLrve+zr3iNhr5t4drMRz7LbzLWmNelufY5E+CyT7t+ZcPAP7Uevxcnq4y5etabX1yT275AfbR/dc1rlcqkt1nr5W7BZ8eBQL3nswMqf2lUFZ/30wMoVJ8+3BmX3hHxPD1tBxVKKYbE54YU99n2ORPr1EbatN+u5hfH2iZqXwlUMi2oeh9HXEgdpoB7XBRqg62J28c0hd9OjWKpmqpa8ulVdaIMOAUAZ896RQcfGvSZRVE8NWhXOoXp+3QRaDwhmKOXcF4bIiOy61Si7U9i0W6dM3t/GMFlfsQWlvP7mh4//Vxr5boHKtb7WqQWnS21PnyauLXjpQj/Fh4dm09fgEDnzzWFzOtZXJkpmSwJrt3pl/podvwFvPuPlsS59ikV5Pb7Q6hB8cU+OKPd6cFqkcFcu64edqjLbUvh57sc7U59/1BFcazdK0T8oLtp1vdct8PjKYPoSnOvt80spjSxMoc+4KWhXok3hTophr/zMtEpcV2XBam6Yx2nu9x3oVyK/X9Yvw7IUeFEZH/cRlnf+t1ezocwr0aoPVZ9Kl15st6ZPXV8qvq31zh58wiA5nnk+S/bhAFH93pwdSf+DFiWEp6L2GFZ3ZAYpLrb0uePcqkG8uti7C/OoAsPSekJxbO95h2ShX3OgbFmRXkU4+6n9l+XUEm8e5k5pWKxwvN0qdAP2yo/xz40JxbbHdfqGVmAXRme3p3ymxF4gxqBSYP0pAaLHJF4r+vjrfkpf1TZUUT/bOk6BX98KPdZKcI+r93r4Wb7BwbPAGHgN7MHKozCAq01ize/qdHs/6n3x1rsmG3eN+dUq4MoJLLGNS02qDq42WHi/ench+bZTPk9dkeGZ9gxxePlAv2aVs88okJm8SxKQWvzY1AvP7Ru/sNw829ZjN6lYgRqtD/L8CNebUbhiHCn+fGLqsq5/RMBaa7buq9/iKusMJ4hd21+etOdgk9dVgvDusDoAndlRJj5QZ87x9LZ5meVrox9E87BvtNp1tkTTq7d2KpFuB/HJdPw1P69AnRgQXMGlIl922sW6l3XJO61GB2B0g/suu2v3rTqj9ptTlVlCL/8CmioxvLrb2K0uCxrsLRgkwFzI6nE7Ypew+FulWINvOtWKqWYE/1j2eHSfoNosSwkIwuV3nak1QVGf2yIJhmcYqHZtbpvziNPGZIN4GFcncHdVS2a9NRTZH/wncn08LWYlnXeTr863YLIjZ5kjfdw17+9CHhvBgWA8DTcI42Ksw88r0bheIxe4Uz9xaJffHDundYXcCrDnYKFn9c0O/CdyFwfTC2SlBmI87VmkQNeptXca7XQpk2/nW5/C4V9n3RfTYZiWEg91H/O263q3pXjTWmrO9av8Fj9dUdc3oWJZq5xNC2fBoJiljlN853CxZube+yGh19AtL8nJ6mAzrniqbA+Dzk9ouH8RdCmTD6RbM5QkpUUwYK2T1uMEmho9dIL9cN4jQJzzmA/sAKo6pG1XK74vxN9smk8xBPOXxZxMzZ6Xw1xxbmpCZFs8hfE4nAKw9ppas+ql/WJK7YlhrxgrZmI/79IRW4nDCbffZbQJRaa3SwkrsjeAeHsLrNUBKEDAwp34NVgccKjVMw3xBvYCKboGidv8xEiavEiWMQ4W1D0Upvp8nvNGZnM+kFucviZcsHC0gxZJ8ckIjWbCztkhvCXxLMlPMx3yfVbVa4Wy18bas7W0CySsziPGkN2cM4/da4pAQgm8n2E9X23DVgnWH3QHiP2+rViqKWr1uOeIFdDi8JFH2t3tDs27tSI6KZcOsmPh/TgzLJ+O1tpzVSp7eWRPwliRzMBfXGlx+meE2N+t2gZRgf1onCBhwj4jdFwuiwrPp/julTmolyc1Czegzu2r3772qI+N0hFgyNkRV/LcBEnFUz2PZ/vtg5OSPZkSR0jBbUaST/OvnhoBOAQ+PZhUMwTEh4Fi58bZ49zaBHK0wYH5aLxwdnE9DoNeeQxw6pXAMDv+wssUK8kvdp+KwsHxPfe5GEsY7E4FBpcAWaVz+5zOj4/vacfCFtNCs/U8l5OPdatqZt/KbpX/ZVefsyucOBBAKVC1PC8VsdY9WGG67L24SSFWrdXZJM7aKVSoFYP6ooD7v0JoygIOrPPnNvCYZ0Zz+W/lN8lwvLwIODmfAr4viV867OwjzWOipgziTf5gvWsknYT7JZ6c08Mx3tfvJssy+xuMj+blMKraHSZPBDofL9Dele2/qrPjf/OYdL//cgCmDNTGBA4eXJvT5Ss5WG7NH55bj6rqteCIuZ3ZK0CpoH2YpvtxokVysM4qrtDZJmcYKLZ36BLNoCAhYVIgJosGgMIayRG2RvHSgwWu7FNEPaPXkcEX2fREyovs0zteapHO2V8vxNFG7lRHRLPRzzRoUjj2B4us8uFlVuR/jet7ckcGwNSv2xv18k0BSP6lwYh1lkH1fhEJ2XzgmUUW+cc3ZiGOPyZRkDvxjUrjsi5Na2e7LOkKjujzNu5mRyhcnhZE2qthodaRP+rwy/3S1kfC5BoYxoPDZhIwwDs1tA/m9wVuHmuT/OoBt+kAomwbNrw66IZAbtrrZYE89VYU95Tk2joW5/iUtno0rdXmwxACZmypl3ypb/UYckTwa+oSWkSkOFDYdObR3gTDt0WE8XC5rZ643W2DUunJUbD7bBwAPExM4mO9NtdEG15osNz6HGwK5VGcW4bnnxgpZmBsCpyVwfLYxGZmgLt7PT8fLZqe4Z1pWJI9W+P08UcrisQLCIqnUWuHBTSr5tUYL5vacvso4EfsAnqzpuRrjjbisk0CwdZwDl2mmo18SZt91UhJ2ZfsbGQM4qkt/Tcoa4YEu9bmPRGe+fn+EkmiGCw1Sx31Slr/3SmDsKWFQKcXiSAbm487WmG8sGN4QSFE99oBvTBwb15MrVcQ+EMntaR+xfzd/njGUDz8tEGUKg+keCXwZVErV6inhKdvmxMmIfnJakwNmf10lvVhn9tpmNTIZHcfG/B0UN5hvd7GK6rFbkOHRTFzZGIQCxYvG9NQZzz/ii654eVK44vt5QgnbC53QZ0n4a7ZI4xQcPB3VOmGyOWH65krZ4TKD34tkZAz2BcPfO2UHb3ySxQ1mzCdKiWLh9n2XjhMo/NtO3A4aC7yVGZHV1bw9TzH37qCsc88nZUThbPDcQVWrDSavr5T9dK3Nr0Vydyx2C1KitoDVDq5YzCWQWp0tGzWtWMFrQcBVdkJfMymRQ0ohnrdBH9irJ4cr0VjA29eCMjiCcSh/SXzWPUJi1cAOpxMe314t23quJdtfO6YMicAeg9gcaBxidC0ouwRytBx7elcUxICkEGI+9jP3CPx+cSqERYXd8+JzXp8akYJnxJe7GBrBVBQ8myB5fWo4oRquVrMD5itqZEu+rT3urm0H7iSCS1UMxVGX9et1veu9uuzwmWoz5vKL0SLiI9IeHMIr9OcB+rFBNDj6TEJGUijDJxfYUFdv9eSIrHFCbt6fv1Jl4NkE18GGM1rRtWaLct9TIkl39WOVLVbpwesGcVG9WXq50SxpMzsgmI1ANI8OI6OZsgmJHNTr6HLkszuZkMiGK03YQojiRksWAMxxCeR8rQmzQO6OYRFOBb5/RL3CX8UxJJwB380VZvmqODozdRBn8q+L46UL5DXyqwTKU46UG2DG1qr9u56MGx/MolYZrQ7hwRLDol3Fumm/lRjSyjU9nttVXhTFo8kmJnKUM8W8A39OCVrLornf6qaK2LINp7WYypuUde2CcrlYl3EE6KNjWYSeAmVqa/b7R5tJ3efhKVBxnFqWmCHuYf+9rzFOyFZcWJ6UMWUAl9B58kr0ojnba/b/dt2QnfJhmerhLSr05utNHDeob7PBzqJWyZPympWj15Wp8kvdnymTRGH3di43ml1bIxCrHVKrWrEPrBkZy8J8TAfok2fmtioZnqZ03mZ4FAv2zBdm8ZlUn7cct8KkIYe+nycU/UnMJ5QcOfB7m+T+jRWyUoK9iosbzDB5fYXsz19VVXYu7yCboREMzNlWi90JdW1WCVKvt2EuMWFQKRAXhH/A43dK3SJfaZKABYRCgUPPxMsGh/uP5bgVPhOp2vmEMHPVBHJ2KZLBLqVONPzDUvkv1/VusSYhbOrOUDb2fgi1rXZAGnA0ZY4hmGP/uFCDqyG2t3E4nfBmXrPfF/RRESh+b3rk5M2zYxV8HD1t3QH6xJ65tUq2+YzWLSKJ4WO/Z5sNdkCqcbhXMUH4BfK9UrfjeKXR63vB8fLh8WZJSbP73AFPsmBUcNb1F5MlM4byfGI9Sm91wNPf1spW/9JIei1YHI57tklvS0VazQ7Mue0oHhX3Cvob+c1+PfHI5gDYqdQFhECgvSK4eNdckU+5XG/mNUmPlJMbvIfhGD+nMdlFiM7swNygWsCi4spgXW2ySM+QsMHH27i7mZ2n8UWXa/kP9YuMVuwP7+4Iw9G0UG1wANJqwZ5J4jOxvxi0r9gHxJP3aLlRZLY5AmbfRAeoy3VheVLGgFDs5Rlkc77WJPr3r0197nXQGwIcQbrOjArEiD1ID2Lhq104XmH0y3qeWzHaHJBfZvTbDvA9kRTKOHR4SUJWmgjfrk8y+eBYc8blBjPmJupdwWdhF4jZ5gCkDY8FwfFiKJfqTX65MNgVv133/OwSTxEXTFNMSGR7fdcnGu9tPKMl5Z7Bc8ta7ACI1Y5dIDw6dgvicIL4WqNvDsHEw7GKwLQg0F4ZJ/yuyDcSETsu6qRk9O9iYGwBBC5PwYlvwj2Fgv3FanU2aYvZj+aZ9cL1ZuzpcX/hcoM5rVTjG+9P1WIlJXbFsx3ZaHXgEwge0DcaSDTorWCwOAIqm9XB0XKDT72vbedbvGLNnE68FgTHMfWtvjtGGS9tVqffLnj2xEmVb8WK3yvbJA6ndzZs4RKI/5UY3gELJRqzTwmk0WCDJr2N0DXZndjvWg6DCgiemW4WHIF9IBJoe+o7aDb4XqxY30bMAzHhPBxh4lCIFcfnF4mjWMzXwTO83h/Q4ehP4G5MVmIPZbydOBEWjpSt3oy9r25SSE99sPwPVBxsOsVvy979DaLWuhWH6HkMCiAsHBbEjMPFiubT1rBJmG3hK0gi8W8Y83X4LN+zjDyC16TH4fYEMRFAuAzsN21TG3YLAu07u3Ad54vcm4i/J5ivE46jsM/dhHOJueh43EYOAwEkBMcafLPRhmtlU0Kg0ZyvMTGRE7Du1YAQ35oVEs2joaIldE2tOBapXRYkhI39hdUG7CXyKGOExBo9+Ap8BgIPDMI3KNIfSIn2LUt/30BijSZQGvU2zIuNwSxEhURysVuQOpwpt0eH8QOi3eiUZK7KG713PcX0odjHKLuT58aF4JpI1hlVC/Z7NpZPL0QEOPzNKpxlI4khdEUqCcPxvc30oTyvV7q6k0FhDMXgMN+wInwmFcYK2YR3OzbieKhH8miAxPCwC8Rgdbr6+WI+EABevz/cr2dPsGgUeGQoL8fb1+Fu5owI8okZLjqzHUZ8VJp/ogr/9CuDxTG72Yg9sRTNpwISxKIqonnY1yjwdui7byB3TgqORl6+wvxRAoji0wLagoBrhrtgLYKjatsdXG40w5QvKuX7rurz8Bx/sd4swbpOSEMoEMGlKV3J5aER2AVysdaMu0Z/WWqIXz6BQ9lUeGNqhE/sk3A3omC64j8PRPhM1tFgdcD0LyszXj7QeBzr6OrzNdh7sA0MZbh6G7sEgqc146lqI+7uJAvHCDbEC3zDx8XCwjECZQSXutPb1+Ep/pEeljLBh2JG1Aj891BTWvoXlUq10d5nkZysMmEO8seI2heCXQIRRzIxn+BYOf7uJAwqpXirNEZGdKaep3lqVPAGb1+Dp/lwRlRWENO3VtYLKg2Q8Xml8vc+tis9pcJuQe6OYbpiZdc7vy8Z+1OiTGOB2lYrbndjUhJnzX8eiPCpdGJvTP9SleOu9pi+yug4luLUcwNkCQLfqqW7VG+CsR+XyXMLNHKrvfu9Ik16u7SoAbtA0pM4rjS+SyBDIphr8DwlrjUR2yX4wvgw2eQBPELn8CQVWis8sLFS9vlJrV9n4rAyOIK+Zu8Ckczd1ctUBFv/qhaTA57/oU668Lua/d39Dp7JBTQE4K7o9tTyjXc8GEed1Lla7IM/O0NFoHj3vFhJWoL3W8xgYdmeWunffqwv0pkdAdHGqC9IophrLi0fkJWR5J6xeVE8GuyeK8opeTFZ8uy4EEwp5m3nWiRj1pU5z3dxP16qN+MYb84AOhVc3ftvCGRoOBNzxuJ8Df5MVgd8JrV4y6zYVUTP40lsDoAPj6slj25RqYzWwGsg1x2JoXTFzwvjM+cMDyI1uzVtEE9Z8mJyxvShvFXBLGrxx49Gj//w4WhMr3GmxgSTPqu4LRV8qQ67BZFE/r8WbghEHMnAXDpxtsaIqybrVurabH75JM4rM8CwtaX5v17Xk9LczB+gUynFXz8Wl4m6XA8NJtb0+oGBXNXueULZjwtEmVwGctO8leXjQ1JOPpckGx/fd+9CZ2lPBa/aW3/cbGtPBZ+uxr7AKIn6/+G0NwRydywLc8CsbDADGf1Tj1cafWoPNBbQuOTBzZU5uYUaXItY/ghCgaqHhvDW7H1KFF/+j4Gyv4wLUfY1PmFQKTB9KB8OLo6XHVgYH//IMP4aGgJdjmEbK2StyV+SkLlifFh+X/OdTgDIOaZOu3tdufJakyX7Qi0OCxL1/wN3KM4/NrPXt9mk0W/9jjn4PLQkYeWkJM5azFfRCenX1ZU7i1r9vkPIkyOCVZ/OjB7PYyA+M+3WU9gdIL5UZ5YU1ZvEFVqrpFFvB6vdCVQKBUI4iGvgqTiCqZBEM1WhbCrmSoR9V9veX7G3fiWWCo4QNhU0OEpMlH8bkNUxXu+GQFCGrS11XmnEprg3p0UoXkkPJzTSIPHt686KAOmbNU7Ihr1PCTPCODS/G9Hm61jtkL7w2+rcbedbSXHtuyKUTYPG1YMkHZN4b7KL04dwMQdfh0uNhJqMlTRbsgNFHCgnqowwNKc0f9OZln6VCvYEdCoc+lIal7l9TpwsOdQ96zJ/lvCUncdU3ySQBaOwD/bPL9WLNEb7bLwXtOG057vmsWgUeGgIT4lnwHxfaDLYYeG3NdLUj8udhZXGfhPAewI0/nlsRNCaC8sHiJaODSkguxZj4ZibNXCTiwU43Z3cGTH5z6UJJuO5IDxuHV7GxrHRD0A2ezi/OJxDVdS32cTpX1Qqr7rx9dGg9O3MyPzl40OXeXqAfn/gaLkxe/bXVTKifbNQgplU0GYPvklztwlk7o7q419daMWUVZJEsuDiX5NEqLqxHNekt0sj3rxGiiuSIKDD9CG8G+qnIRQI5VBd8xSTBHTFXTFMiOLRbrOQOrNdvOS7uv07Lrk3SXB/Mle1eXZsVlxw4JfKe5pKrVX6718bs7863yKxEWjpNX0oT/XjfFF853+7rVXE+ERO1VcXWjGdWNlggkt1prQRMdhSxUX15D25590drHh9agTmZAGfSXXl9Q1Wh/yHK21uC/5+LdGLRueWFcgfj5NNSuLgHqF9h9uJF9AVm2fHKmanBMnnbK+WGvB0NgSAKQM4tz28bkteT0rA163jwO96zLGEsgF7GUB3zBjKw70DDnV9djwel/mvjAglnjkSfQV1A9K/qJDNk9dUok89t71QP+XhobyskheTs7AsLnZmSjLvtnv/NoGkRDMVg3EEr98XYx+4gqcMoCtC2VQYI2QfIHIONh2peuOB8JQvZ8e6vcJ42/kWUfJ7JfIvz97JdJFNNJ+moCIUzO6yMIgOI2OYvQsEXDv+BJi/uBMqIyjrzZiyWcUkWZAHBnFVZAXAj40Iyjq2NFHmrgxXBzaHE57aWSN9YKPKebTccCfTRRLlGsvswkoD5uMWjxV0ucRxW5COorc40kNfv5aPtYv73JEC2JoV02cfJfS1a06NCV+Xxs5smBWjWDhaQOr89WaDXTxjS5WyAMeHjRX0A3t6tADWPhwpCWL2PGL7YIk++8crbdLLjRZJpcbqaqARzkUgPoQBY2JZipkSvnJoBKPfxjiLvqtzbjytwXQMQgGoeXmQLIpHu+1z61IgKA9tVlXuu9aGyVTREQqU/2NgWmxQ75maErU5e+B7pYT7HbnO9WJy1oBQ8rsBWu1O8WsHm2Rv5TdJcTYHx0SCgA7vPhSVM0vC39BhEY1Wh/Cnq/pFOy62Lvrlul6k7cMDJUHAgIeHcgueGBm8Ni2eXUABbNlFf6W6xZY68P3rBSYbti8rI4mjyluSEN/Vz6gyWdf3qNMJwl3FOkzpXvQmYtMRyZRkbq9bU3+6os/YVawjPAgzPZEDK+4NI9V6dEBFKI1TkrmKrOHBoGwwJ5drrMHueJ0OWkwOUFxqTdtyrnUZAhB0sNS4eK68ev2GM9qM4gZzcF+/+BaTHU5VmUQbT2ulu4vbVkZwqTAknFmCUABbetLPeP9os/y3EgPm+GP1lPANo2JZP3f1s24tiM5sF4e/8bsSq5sVF0SDin8MyqAi0GMt0sq99c61x9SYzt0VG/4cI1s4RuB2lwK1JrO/qpbvuaJzWyrYnTw5Mli5LSs2xdvX4U4Gv3/d+TvG4aoIhQI1Lw/M6mqNDHoawcZnUoufTw3BXJtV3WqD9ac1z/X2e+dxlCHfCh0BQH1uwifqy2tRKcXyJ+Iy/zcjWhGJo9met/nqfIsk9eMKZ5kmMNPLX57V7sAqDpTH7gpSdicO6G1G4UsZYcvwjGhb/XNTVm/7RPDU6d+KOIoJIWzPteFh0ihVz6eFZJ16LilrdJz/zQc5UWWAmVur5HYH8bnjvgR6r734UyNmN5sCAK9NDe8xdu3x9o/g0g49MJCLedGlyWCDredaF3X38/o2m1RtJF47MzaO7ZX2mPECuuLEs0mSDx6OUgh8cNhMT1yoM8Hf99Wv9/Z1kIn8km4Res9hZcoAjio5tOeMX6/f7hMj8fWCyi1Ur+zuZzUkjYQeHcfyWnaGikDxX8eHZl1/MTljQoLvNFfrC2uPqdN+uIyvjacv8vlJTbf3Wk88PjK412xrrwJ5dBj/QCgbu899sc4Mn5zQ7OjqZ2RUXkJ7wzuv99UK49AO/bJQJPpgepRfxSbzFVUZ5RoLob08vsD2Cy07jldib2LIolHQe7vXFri9CoTHRAr/grENSwcr99ZnXW++vftdVQv2YSa3glAARsYyfaJdEJuOVP11QmjW1RXJacvTQgroiO93jNSaHPCvnxv9utQFFfiib+twpfifGh1cEM7tfetvnxzoBXcH49pzbrI54d3Dzbd1IsQ7gKcz4kgWBDGx7212JwI2tfDDGdHjL68YIBsTx/b25fSK4pJO1Ki3+W3boo8KtOuNOOvbl44N6dM93SeBDI5gKJ4cga8X0pZzLZIKrfUmU96oIy6QjAEcn+k8fivJYYw1h5+JF30+M0YxMNR3m3RbHU5474g619vXgYc6nS11wykNrjWpzME8GNnHLj59TsH875HoZXwcrSdRK/LekeabsiaNBuL1V+lJvj1EE3W7lowVZJ1fniRZNi4031e9rvWnWiT+mPbNOapej2cwJ/o1fPqn6D6XOPX5jg9hUw89PSYYVyyy+UyL5FKd6YarpTbaCccgkxLZPmtBOsNlIMXrHo2afPb5pJWPDOP7RMzUGbXRBt8qdYs6Gq35AyXNltmfncRnPWYPD1IlCOh9rrzAZBKWjQvFFYu0WRzw6NZqWceX0IJD+Z0JZVMhkkfzqzkdI2JYa3fPE8afez5JNiLatxYZ52yvWil47Zryse3Vzr1X27J9WSwOJ4jnfFOjwGM9UP42PgTTskW3tVjd8dz3dUWf4FTvG1MjFP+aHJ4l+aDEWdyAb4Qbyl3RTLiwfICPOi29Y7E7hXuKdYv+trdeVk3SmhCZsGgUGBPHguFRLMVdMUzViBhWoSSKqQpiIl5PiuQWaOTP/1CHywOZMzxI+c3jcZjq0TALxGxzpCe+W5JfhyPQ5tARuLZqQEbaxxX5qlb8vbAeHMyFn56K91uBdJD6SbnzhAr/ICJPgsZQqOUbI2Ip0xO4ipFxTBgWwVR4slNLVYst+64PS2V49hCh8XP1ywMz+EwqpoZ+tzVt6A0mDTn00qQwxd/21mNWscHqgEe3VOX3ZU9DTwiD6D4doPcVjIXSXsXhdI27QP9IvjipdXkQLBpFNiCMAYkCuiqCSy2M5NIgik+DcA5VFcunFfIYCPBZCDBpFAhmdb+Ianc4odlgd/2tMTrQGBUqtFZpg84GtW02KFFbpeVqi2vtBnXX8fBcakgBVnEAHoG0v1joyt2X26R5pXrMx57BMVDxVpLCfGvaEV7wFIL6EiabE4rrzegfEQC4tW0Sj4ngFoc4kgGrp+Brj4vrK6JToeqrObEZ3poxGMcPDIFEcal+kYnzNqhr3oYzKEcfQt8+6ZqOhatuD/czLIZPO7RiQphXqmkje6jf9ycSBdhnsvQ3qBSKa0ETL4vGhBQQ2aNPyMi/nBG62Bvl3sFMv4/PXUii3ds5JRBALYAVZ7BGRyjw7ynhhEZzELq7+Uxq8b+neH5SLb+HgM+fmJjo29UA3oZKATATyGSsujesIDaImLdB+PH/fFqITBLl2YWvYD/bpNQdQyMYCk9/drfjm9aYAhRCWb5YPh1WTwlbTPQ6CN9pdCqleNeTcVI8e0bw4muD7Ynw1tQIL5ec+2au2Ungurh0BH6YL5RxGQjhGI+UO21QOGPna/d7xtVCKK6cesC4Jo+IeXP8oTTen3hhfKhyVByLlE43pD2KF48VrHx0mPs7jAQxAyP+6MxLGaG97mwjGzYNAXc26vYWY+NY8FJ6aCZZ58NcatITVrtTPG1T5f68UuzNu/pKDI8ONa8MDLhv9q285qJ//dLgkZ5bYRwqHFwULxsSwdxwvdmSpmwwC4sbLGnKevRvc1qp2gJYuxP6AsOjmXB0aUKv7VuxQKpAUC43WLLv+qhUZnNTr85EAQPK/pEccAJBeWZXbdEXp7RuF8kWaaxs3t3B3bogdgeIz9eZpKdUJjhba5SerTJLihvMgHf3nqc4ujRBNiGB3NkrpAsE2meFZM/aViXT4xxk0hOBLBC9xSGcurHyeEGl0W0W+JWMMMWbD0TiKrto0NulNS02ULVYoUZnkza02aBJbwetyQ5qo13cbLBLtEY76MwOaLM4gWjNXV9BPcWPZkQrn0sNIb1zpFsEgvL2oeailw6Q7zIEskBQGtps4oz1KuXlBuI1a7fy3kNR+avuDcU1SxIvGqNdqjX9fxPBSq0VHH94F2Uaq/T5PfUSopZpWWqIct0j0W5pq+o2gZhtTuHCb2v3f32hhVSRCIPooHop8GKQzhitDnH2r03rPzyuTsPaG7krhMF0yHkoMkc6PGgVKRdIAhVaqzRzU6X8SiP+fUHg2lnKgT3zhaJgFtUtPdLcJpAOUj+ucJ6oIm/GhoBFA82/BwW0QDooU1uzF31XK8NTNd3Byglhyv9mRi6jU3tuJu5Jmg229PGfVuRfayImjsHhDDj/QlIGm4647b25XSCXG8zSez+rkKuN5PijDCoC5teH9AuBQPs+DOGxCkPajoutKw6WGNKuNJp7XEJjUikwVsSG6YN5isdGBCkSQ3xr78yRcoP0sW+q5US7a3LoFMhfkpA1Vsh26/tzu0BQClVG6YObKuVaEzlBu/bfg7MCabEQC80Ge+rFOrNI1WIR68xOl/tKcfVRpiqSQhggiWKq2HSK17fG3orR6hC+fUi9/+3DTRKiKWQWjQK75opyMgdz3e4yekQg0N7NPfvez8pleDe9dGbBqGDl5tmBPesikLA7IH3mNlUuGWO2aQjAj/Pj86cN5nok2eCxoqYRMcw1m2bFKshoy/nl2RbJuI/LnedqTAE56yKQOFtjko5eV5ZPhjjQO+d/M6IVnhIHeNKCdLDjYmveEzuqM8hYR+QxEPh6Tlz+jGE8j6Yu79A3tp5rzVu6qzaDjAVGVBxf/Dkmf9EYgUe/a4+Xxc65K2jyFzNjFGTsx27vt6XK+OuP9cdRH5eM67sDcTRGe+qc7dWV8xXVpInjoxlRCk+LA7xhQTrYd1Wfh97cRLZTdmZCAgd2z4vLCOPQfCad2R+p0FjTMzer8q80Ep8gBl60HB14bWPFg0O4k7+aE6sgq/HDsQoDDHqvNP+zExq5w+l/vWb9HbsDxO8cbpYPW1tKmjjQcHXdI9FesRwdeM2CdHCkzJg3bVMlKaa4A9SafD0nNite4FtrAIGKst4snfNNtVxZT44w4I9U7ndPivLRBylpJ8WB1wWCcqjUsOJPX6lytEbyRBLCpsKy1BDFC2khOZE8ms+tCwQC5RpL6juH1eu/PKuVGKzk3Ud8JgI7nxDmPDDI/escveETAoE/VtznyWvkZDSW64yARYW/jBMol6eFLo4JuiMUMrjebJG+c7g5e+u5FsKLfrcyKIwB3zwemzUq1r0r5H3FZwQCfywoPbJVlfvTVeI581vhMxDYNDtGMSslCFep9x3a2XNZJ3/8mxqpwQ1bGdITObDvaZFba6uw4lMCgfbUrfDVXxr35xaoJW74DuAeIRuWjw/NyRrO30CnUu40busDeotD/NX5lkXrT2lXnqomvwyfhgAsSw1Vvj41IpPPxNcB0V34nEA62HlJJ5/zTbXU4abrEwYx4L2HIhRz7rpjUXoit1Ajf+VAo7TV7L7NTxtnxSqeHh3sk9+DzwoE5VKdOfuZXbWLClXu22E3MIwBC0cLFEvvEeSEcnxrKKi3aGizp352UpOz/rQ2rVKLf0xFbwyPZkHuI1GyiYnkbpMlE58WCPyxeWjqBpXyWCV5e0q6Ag3mF40Jzv/bhNCPhcH9Mz18pcEsffeoRv71ea3bmzaMimFB/jPxEj6JDRbcgc8LBEVndgg/PKbJee9os7TFzfucGVQKTEriwp+G8XIeEfMKRQEulpJmq/Q7pU66q7hVelJldPvMEg6dAi+khSpfzgjLdNcuQDLxC4F0cKXBIs3cXCmvcKPZv5WJiRx45p4Q2UwxT0FGpz5fQGe2i3+4opduPK2V/VaCf7ciVqJ5NNg9Xyi7R8j2WZfqVvxKINA+pUr8Vl7z+nePNJOyX7uvBDEReGgIr+DeRE7VPUK2YmQMU+kvWTC7A8Snq42Sw+UG6eEyQ+rBEoPIHWna7kAorsYKBWvuj1gcwvZtl+pW/E4gHdTpbNI1vzWuQANJb7RrQl2x0XEsQMUyPJqpSoliFg6NYKqCWd4ddKkx2lOL6y2iSw2m1Mv1FtHFOlPqCZVJ5I2eVhTX5jZBgey+8LUJPrb1t6/4rUA6uNZkyZZ+XS27WEd+fh4r6A2RlsCBCfHs/FGxrHxJNBMGhzEUTJp7LI3Z5hRfV1ukvzdaoFBlysgvM2ScULk3mdFXkkMZIH88TkZWj1xv4fcCgT/2O7+V3yz/4Jg6jYwtvWRCQwBig+gQF0SDKB6tIJRNrRKwENfMvUhe+4hIJo2iCr5lxHKj3i51ti/Suf6gNOntUNVqFapabGm1rTaob7P5XG92Dh2Bv4wTFLw6OXylgO3/afOAEEgHjXpb+gt76nJ3XNJ5pMftHW4mczAPtkhjMiK4gbMnJ6AE0sGpKpN0XYF6xdcXWrwSn/Q3HhrMU70wPmTDA4N4GxAK+HzqFgsBKZAOKrTW7L98Xyfbf63N25cSkIyNY8HnM2NkI2P9O87oiYAWCLTPTxKerjKlbT6rXbH5jDaNzH0L/RE0ppIOD1LNHxm84f5BvA00JLAsxq0EvEA6ozbYU3cqdSs3ndamurO+KxC5K5oFT4wIUjwxMihHFEz3++C7r/QrgXSmuMGc/VZek/SrC613AvoeyEjiwOtTI2T3+nBBoTvptwLpoFFvl+5S6lI3n9FKC+5YFReSSCY8PiJIMWMYX3FXNNMvF/jIot8LpDOqFlv2Fye10k1ntJKqVs/Ve/kCHDoCT4wMUr6QFoqKol9ai664I5BuOF1lkv5WqpceLNGnFlaaRO7cMOQN6Eh7qczkZI5iygBuwcREzgF3rfj7M3cE0keOlBuyN55ukX5frJN4arQY2SAUCtw3kANLx4bIHhrCzfelvd++yh2B4OBSnVl6rtYovtZklRTVmcVXGs2S35st4Ka5pbiI5NJgUDgD0BhiRAwT7o5lKYZHMZVsemCU7HuKOwIhCaPVkX5SZco4WWWSnK01SS/Xm0HZYAZ3TfvtTAyPDpJoBqREMZXpiVxFWgILoni0O3EECdwRiJup0Fpd02DVBgfUtdlStSa7qLHNBpo/muTpzA4w9VAPw2EgwKUjEMJGgE1HIIxLhVgeTRHGoUEkn+rahMRnIv060+RO/i8AAP//fqURG577llwAAAAASUVORK5CYII=;" vertex="1" parent="1">
                    <mxGeometry x="1160" y="992.19" width="100" height="100" as="geometry"/>
                </mxCell>
                <mxCell id="59" value="" style="shape=image;verticalLabelPosition=bottom;labelBackgroundColor=default;verticalAlign=top;aspect=fixed;imageAspect=0;image=https://static-00.iconduck.com/assets.00/openai-icon-2021x2048-4rpe5x7n.png;" vertex="1" parent="1">
                    <mxGeometry x="593" y="1380" width="98.65" height="100" as="geometry"/>
                </mxCell>
                <mxCell id="62" value="" style="edgeStyle=none;html=1;strokeWidth=5;fontSize=20;startArrow=classic;startFill=1;endArrow=classic;endFill=1;" edge="1" parent="1" source="6" target="5">
                    <mxGeometry relative="1" as="geometry"/>
                </mxCell>
            </root>
        </mxGraphModel>
    </diagram>
</mxfile>